999
"DXF R12 Output" (www.mydxf.blogspot.com)
 0 
SECTION
 2 
HEADER
 9 
$ACADVER
 1 
AC1009
 9 
$EXTMIN
 10 
 0 
 20 
 0 
 9 
$EXTMAX
 10 
 8.5 
 20 
 11 
 0 
ENDSEC
 0 
SECTION
 2 
ENTITIES
0
LINE
8
Layer 1
10
0.245980
20
20.721800
11
10.891300
21
20.721800
0
LINE
8
Layer 1
10
10.891300
20
20.721800
11
13.061725
21
20.595813
0
LINE
8
Layer 1
10
13.061725
20
20.595813
11
14.922100
21
20.217900
0
LINE
8
Layer 1
10
14.922100
20
20.217900
11
16.482050
21
19.601025
0
LINE
8
Layer 1
10
16.482050
20
19.601025
11
17.751300
21
18.758100
0
LINE
8
Layer 1
10
17.751300
20
18.758100
11
18.729950
21
17.708375
0
LINE
8
Layer 1
10
18.729950
20
17.708375
11
19.417900
21
16.445500
0
LINE
8
Layer 1
10
19.417900
20
16.445500
11
19.834550
21
14.988925
0
LINE
8
Layer 1
10
19.834550
20
14.988925
11
19.973400
21
13.357900
0
LINE
8
Layer 1
10
19.973400
20
13.357900
11
19.837775
21
11.804362
0
LINE
8
Layer 1
10
19.837775
20
11.804362
11
19.430800
21
10.373600
0
LINE
8
Layer 1
10
19.430800
20
10.373600
11
18.742900
21
9.094585
0
LINE
8
Layer 1
10
18.742900
20
9.094585
11
17.764300
21
7.996470
0
LINE
8
Layer 1
10
17.764300
20
7.996470
11
16.504675
21
7.108268
0
LINE
8
Layer 1
10
16.504675
20
7.108268
11
14.947900
21
6.433260
0
LINE
8
Layer 1
10
14.947900
20
6.433260
11
13.087525
21
6.016605
0
LINE
8
Layer 1
10
13.087525
20
6.016605
11
10.917100
21
5.877720
0
LINE
8
Layer 1
10
10.917100
20
5.877720
11
4.341330
21
5.890660
0
LINE
8
Layer 1
10
4.341330
20
5.890660
11
4.341330
21
0.529226
0
LINE
8
Layer 1
10
4.341330
20
0.529226
11
0.245980
21
0.529226
0
LINE
8
Layer 1
10
0.245980
20
0.529226
11
0.245980
21
20.721800
0
LINE
8
Layer 1
10
0.245980
20
20.721800
11
0.245980
21
20.721800
0
LINE
8
Layer 1
10
10.994700
20
9.430490
11
12.083100
21
9.498314
0
LINE
8
Layer 1
10
12.083100
20
9.498314
11
13.023000
21
9.701790
0
LINE
8
Layer 1
10
13.023000
20
9.701790
11
13.827150
21
10.040921
0
LINE
8
Layer 1
10
13.827150
20
10.040921
11
14.482800
21
10.489800
0
LINE
8
Layer 1
10
14.482800
20
10.489800
11
14.999562
21
11.058312
0
LINE
8
Layer 1
10
14.999562
20
11.058312
11
15.361300
21
11.730100
0
LINE
8
Layer 1
10
15.361300
20
11.730100
11
15.584138
21
12.505225
0
LINE
8
Layer 1
10
15.584138
20
12.505225
11
15.658400
21
13.357900
0
LINE
8
Layer 1
10
15.658400
20
13.357900
11
15.584934
21
14.205722
0
LINE
8
Layer 1
10
15.584934
20
14.205722
11
15.364525
21
14.953400
0
LINE
8
Layer 1
10
15.364525
20
14.953400
11
14.997153
21
15.600953
0
LINE
8
Layer 1
10
14.997153
20
15.600953
11
14.482800
21
16.148400
0
LINE
8
Layer 1
10
14.482800
20
16.148400
11
13.828800
21
16.589269
0
LINE
8
Layer 1
10
13.828800
20
16.589269
11
13.029450
21
16.904175
0
LINE
8
Layer 1
10
13.029450
20
16.904175
11
10.994700
21
17.156100
0
LINE
8
Layer 1
10
10.994700
20
17.156100
11
4.341330
21
17.156100
0
LINE
8
Layer 1
10
4.341330
20
17.156100
11
4.341330
21
9.430490
0
LINE
8
Layer 1
10
4.341330
20
9.430490
11
10.994700
21
9.430490
0
LINE
8
Layer 1
10
10.994700
20
9.430490
11
10.994700
21
9.430490
0
LINE
8
Layer 1
10
31.342200
20
20.721800
11
35.683000
21
20.721800
0
LINE
8
Layer 1
10
35.683000
20
20.721800
11
45.449800
21
0.529226
0
LINE
8
Layer 1
10
45.449800
20
0.529226
11
41.147900
21
0.529226
0
LINE
8
Layer 1
10
41.147900
20
0.529226
11
39.532900
21
3.926950
0
LINE
8
Layer 1
10
39.532900
20
3.926950
11
27.737800
21
3.926950
0
LINE
8
Layer 1
10
27.737800
20
3.926950
11
26.174600
21
0.529226
0
LINE
8
Layer 1
10
26.174600
20
0.529226
11
21.859600
21
0.529226
0
LINE
8
Layer 1
10
21.859600
20
0.529226
11
31.342200
21
20.721800
0
LINE
8
Layer 1
10
31.342200
20
20.721800
11
31.342200
21
20.721800
0
LINE
8
Layer 1
10
37.917900
20
7.298820
11
33.551500
21
16.471400
0
LINE
8
Layer 1
10
33.551500
20
16.471400
11
29.301000
21
7.298820
0
LINE
8
Layer 1
10
29.301000
20
7.298820
11
37.917900
21
7.298820
0
LINE
8
Layer 1
10
37.917900
20
7.298820
11
37.917900
21
7.298820
0
LINE
8
Layer 1
10
47.400600
20
10.683600
11
47.610537
21
12.873438
0
LINE
8
Layer 1
10
47.610537
20
12.873438
11
48.240400
21
14.869400
0
LINE
8
Layer 1
10
48.240400
20
14.869400
11
49.248050
21
16.632875
0
LINE
8
Layer 1
10
49.248050
20
16.632875
11
50.591700
21
18.125000
0
LINE
8
Layer 1
10
50.591700
20
18.125000
11
52.264713
21
19.339425
0
LINE
8
Layer 1
10
52.264713
20
19.339425
11
54.234800
21
20.243800
0
LINE
8
Layer 1
10
54.234800
20
20.243800
11
56.479575
21
20.805763
0
LINE
8
Layer 1
10
56.479575
20
20.805763
11
58.950400
21
20.993100
0
LINE
8
Layer 1
10
58.950400
20
20.993100
11
61.411475
21
20.805763
0
LINE
8
Layer 1
10
61.411475
20
20.805763
11
63.652800
21
20.243800
0
LINE
8
Layer 1
10
63.652800
20
20.243800
11
65.629488
21
19.339425
0
LINE
8
Layer 1
10
65.629488
20
19.339425
11
67.296200
21
18.125000
0
LINE
8
Layer 1
10
67.296200
20
18.125000
11
68.649313
21
16.632875
0
LINE
8
Layer 1
10
68.649313
20
16.632875
11
69.660200
21
14.869400
0
LINE
8
Layer 1
10
69.660200
20
14.869400
11
70.290063
21
12.873438
0
LINE
8
Layer 1
10
70.290063
20
12.873438
11
70.500000
21
10.683600
0
LINE
8
Layer 1
10
70.500000
20
10.683600
11
70.290063
21
8.477692
0
LINE
8
Layer 1
10
70.290063
20
8.477692
11
69.660200
21
6.459090
0
LINE
8
Layer 1
10
69.660200
20
6.459090
11
68.649313
21
4.679484
0
LINE
8
Layer 1
10
68.649313
20
4.679484
11
67.296200
21
3.164710
0
LINE
8
Layer 1
10
67.296200
20
3.164710
11
65.629488
21
1.934184
0
LINE
8
Layer 1
10
65.629488
20
1.934184
11
63.652800
21
1.007220
0
LINE
8
Layer 1
10
63.652800
20
1.007220
11
61.411475
21
0.435567
0
LINE
8
Layer 1
10
61.411475
20
0.435567
11
58.950400
21
0.245011
0
LINE
8
Layer 1
10
58.950400
20
0.245011
11
56.479575
21
0.435567
0
LINE
8
Layer 1
10
56.479575
20
0.435567
11
54.234800
21
1.007220
0
LINE
8
Layer 1
10
54.234800
20
1.007220
11
52.264713
21
1.934184
0
LINE
8
Layer 1
10
52.264713
20
1.934184
11
50.591700
21
3.164710
0
LINE
8
Layer 1
10
50.591700
20
3.164710
11
49.248050
21
4.679484
0
LINE
8
Layer 1
10
49.248050
20
4.679484
11
48.240400
21
6.459090
0
LINE
8
Layer 1
10
48.240400
20
6.459090
11
47.610537
21
8.477692
0
LINE
8
Layer 1
10
47.610537
20
8.477692
11
47.400600
21
10.683600
0
LINE
8
Layer 1
10
47.400600
20
10.683600
11
47.400600
21
10.683600
0
LINE
8
Layer 1
10
51.496100
20
10.683600
11
51.634963
21
9.197931
0
LINE
8
Layer 1
10
51.634963
20
9.197931
11
52.051400
21
7.867280
0
LINE
8
Layer 1
10
52.051400
20
7.867280
11
52.726562
21
6.704551
0
LINE
8
Layer 1
10
52.726562
20
6.704551
11
53.614800
21
5.722700
0
LINE
8
Layer 1
10
53.614800
20
5.722700
11
54.709625
21
4.944330
0
LINE
8
Layer 1
10
54.709625
20
4.944330
11
55.978900
21
4.366210
0
LINE
8
Layer 1
10
55.978900
20
4.366210
11
57.406525
21
4.007691
0
LINE
8
Layer 1
10
57.406525
20
4.007691
11
58.950400
21
3.888190
0
LINE
8
Layer 1
10
58.950400
20
3.888190
11
60.490900
21
4.007691
0
LINE
8
Layer 1
10
60.490900
20
4.007691
11
61.908700
21
4.366210
0
LINE
8
Layer 1
10
61.908700
20
4.366210
11
63.184525
21
4.944330
0
LINE
8
Layer 1
10
63.184525
20
4.944330
11
64.273000
21
5.722700
0
LINE
8
Layer 1
10
64.273000
20
5.722700
11
65.161175
21
6.704551
0
LINE
8
Layer 1
10
65.161175
20
6.704551
11
65.836200
21
7.867280
0
LINE
8
Layer 1
10
65.836200
20
7.867280
11
66.262587
21
9.197931
0
LINE
8
Layer 1
10
66.262587
20
9.197931
11
66.404800
21
10.683600
0
LINE
8
Layer 1
10
66.404800
20
10.683600
11
66.262587
21
12.166125
0
LINE
8
Layer 1
10
66.262587
20
12.166125
11
65.836200
21
13.487100
0
LINE
8
Layer 1
10
65.836200
20
13.487100
11
65.161175
21
14.630413
0
LINE
8
Layer 1
10
65.161175
20
14.630413
11
64.273000
21
15.580000
0
LINE
8
Layer 1
10
64.273000
20
15.580000
11
63.184525
21
16.342200
0
LINE
8
Layer 1
10
63.184525
20
16.342200
11
61.908700
21
16.897700
0
LINE
8
Layer 1
10
61.908700
20
16.897700
11
60.490900
21
17.236863
0
LINE
8
Layer 1
10
60.490900
20
17.236863
11
58.950400
21
17.349900
0
LINE
8
Layer 1
10
58.950400
20
17.349900
11
57.406525
21
17.236863
0
LINE
8
Layer 1
10
57.406525
20
17.236863
11
55.978900
21
16.897700
0
LINE
8
Layer 1
10
55.978900
20
16.897700
11
54.709625
21
16.342200
0
LINE
8
Layer 1
10
54.709625
20
16.342200
11
53.614800
21
15.580000
0
LINE
8
Layer 1
10
53.614800
20
15.580000
11
52.726562
21
14.630413
0
LINE
8
Layer 1
10
52.726562
20
14.630413
11
52.051400
21
13.487100
0
LINE
8
Layer 1
10
52.051400
20
13.487100
11
51.634963
21
12.166125
0
LINE
8
Layer 1
10
51.634963
20
12.166125
11
51.496100
21
10.683600
0
LINE
8
Layer 1
10
51.496100
20
10.683600
11
51.496100
21
10.683600
0
LINE
8
Layer 1
10
72.437800
20
20.721800
11
76.907900
21
20.721800
0
LINE
8
Layer 1
10
76.907900
20
20.721800
11
82.385600
21
7.686410
0
LINE
8
Layer 1
10
82.385600
20
7.686410
11
83.651600
21
4.534140
0
LINE
8
Layer 1
10
83.651600
20
4.534140
11
84.646500
21
7.686410
0
LINE
8
Layer 1
10
84.646500
20
7.686410
11
86.661800
21
12.440600
0
LINE
8
Layer 1
10
86.661800
20
12.440600
11
83.031400
21
20.721800
0
LINE
8
Layer 1
10
83.031400
20
20.721800
11
87.243100
21
20.721800
0
LINE
8
Layer 1
10
87.243100
20
20.721800
11
88.729000
21
16.781400
0
LINE
8
Layer 1
10
88.729000
20
16.781400
11
90.111100
21
20.721800
0
LINE
8
Layer 1
10
90.111100
20
20.721800
11
94.322800
21
20.721800
0
LINE
8
Layer 1
10
94.322800
20
20.721800
11
90.692400
21
12.440600
0
LINE
8
Layer 1
10
90.692400
20
12.440600
11
92.746700
21
7.583060
0
LINE
8
Layer 1
10
92.746700
20
7.583060
11
93.987000
21
4.534140
0
LINE
8
Layer 1
10
93.987000
20
4.534140
11
94.943000
21
7.634730
0
LINE
8
Layer 1
10
94.943000
20
7.634730
11
100.447000
21
20.721800
0
LINE
8
Layer 1
10
100.447000
20
20.721800
11
104.916000
21
20.721800
0
LINE
8
Layer 1
10
104.916000
20
20.721800
11
96.002400
21
0.529226
0
LINE
8
Layer 1
10
96.002400
20
0.529226
11
91.945800
21
0.529226
0
LINE
8
Layer 1
10
91.945800
20
0.529226
11
90.150000
21
4.534140
0
LINE
8
Layer 1
10
90.150000
20
4.534140
11
88.690100
21
8.422800
0
LINE
8
Layer 1
10
88.690100
20
8.422800
11
87.230100
21
4.534140
0
LINE
8
Layer 1
10
87.230100
20
4.534140
11
85.408700
21
0.529226
0
LINE
8
Layer 1
10
85.408700
20
0.529226
11
81.352100
21
0.529226
0
LINE
8
Layer 1
10
81.352100
20
0.529226
11
72.437800
21
20.721800
0
LINE
8
Layer 1
10
72.437800
20
20.721800
11
72.437800
21
20.721800
0
LINE
8
Layer 1
10
107.526000
20
20.721800
11
111.647000
21
20.721800
0
LINE
8
Layer 1
10
111.647000
20
20.721800
11
111.647000
21
0.529226
0
LINE
8
Layer 1
10
111.647000
20
0.529226
11
107.526000
21
0.529226
0
LINE
8
Layer 1
10
107.526000
20
0.529226
11
107.526000
21
20.721800
0
LINE
8
Layer 1
10
107.526000
20
20.721800
11
107.526000
21
20.721800
0
LINE
8
Layer 1
10
115.652000
20
10.748200
11
115.855750
21
12.831400
0
LINE
8
Layer 1
10
115.855750
20
12.831400
11
116.466000
21
14.766100
0
LINE
8
Layer 1
10
116.466000
20
14.766100
11
117.461125
21
16.513375
0
LINE
8
Layer 1
10
117.461125
20
16.513375
11
118.817000
21
18.008800
0
LINE
8
Layer 1
10
118.817000
20
18.008800
11
120.535500
21
19.242538
0
LINE
8
Layer 1
10
120.535500
20
19.242538
11
122.590000
21
20.179200
0
LINE
8
Layer 1
10
122.590000
20
20.179200
11
124.970000
21
20.770187
0
LINE
8
Layer 1
10
124.970000
20
20.770187
11
127.641000
21
20.967200
0
LINE
8
Layer 1
10
127.641000
20
20.967200
11
130.005125
21
20.841262
0
LINE
8
Layer 1
10
130.005125
20
20.841262
11
132.163000
21
20.463400
0
LINE
8
Layer 1
10
132.163000
20
20.463400
11
134.155750
21
19.840062
0
LINE
8
Layer 1
10
134.155750
20
19.840062
11
136.000000
21
18.951900
0
LINE
8
Layer 1
10
136.000000
20
18.951900
11
134.114000
21
15.851300
0
LINE
8
Layer 1
10
134.114000
20
15.851300
11
132.886000
21
16.471400
0
LINE
8
Layer 1
10
132.886000
20
16.471400
11
131.414000
21
16.923600
0
LINE
8
Layer 1
10
131.414000
20
16.923600
11
129.799000
21
17.220700
0
LINE
8
Layer 1
10
129.799000
20
17.220700
11
128.158000
21
17.324100
0
LINE
8
Layer 1
10
128.158000
20
17.324100
11
126.301000
21
17.201338
0
LINE
8
Layer 1
10
126.301000
20
17.201338
11
124.657000
21
16.833100
0
LINE
8
Layer 1
10
124.657000
20
16.833100
11
123.238875
21
16.255012
0
LINE
8
Layer 1
10
123.238875
20
16.255012
11
122.060000
21
15.476600
0
LINE
8
Layer 1
10
122.060000
20
15.476600
11
121.136000
21
14.523825
0
LINE
8
Layer 1
10
121.136000
20
14.523825
11
120.458000
21
13.396600
0
LINE
8
Layer 1
10
120.458000
20
13.396600
11
120.051250
21
12.133825
0
LINE
8
Layer 1
10
120.051250
20
12.133825
11
119.916000
21
10.748200
0
LINE
8
Layer 1
10
119.916000
20
10.748200
11
120.057875
21
9.310974
0
LINE
8
Layer 1
10
120.057875
20
9.310974
11
120.484000
21
7.996470
0
LINE
8
Layer 1
10
120.484000
20
7.996470
11
121.178500
21
6.827283
0
LINE
8
Layer 1
10
121.178500
20
6.827283
11
122.125000
21
5.826050
0
LINE
8
Layer 1
10
122.125000
20
5.826050
11
123.326250
21
5.018610
0
LINE
8
Layer 1
10
123.326250
20
5.018610
11
124.760000
21
4.404940
0
LINE
8
Layer 1
10
124.760000
20
4.404940
11
126.423375
21
4.027065
0
LINE
8
Layer 1
10
126.423375
20
4.027065
11
128.287000
21
3.901100
0
LINE
8
Layer 1
10
128.287000
20
3.901100
11
130.057000
21
4.030290
0
LINE
8
Layer 1
10
130.057000
20
4.030290
11
131.749000
21
4.379120
0
LINE
8
Layer 1
10
131.749000
20
4.379120
11
133.338000
21
4.921730
0
LINE
8
Layer 1
10
133.338000
20
4.921730
11
134.760000
21
5.619350
0
LINE
8
Layer 1
10
134.760000
20
5.619350
11
136.646000
21
2.518760
0
LINE
8
Layer 1
10
136.646000
20
2.518760
11
134.863000
21
1.572448
0
LINE
8
Layer 1
10
134.863000
20
1.572448
11
132.822000
21
0.852202
0
LINE
8
Layer 1
10
132.822000
20
0.852202
11
130.583500
21
0.406493
0
LINE
8
Layer 1
10
130.583500
20
0.406493
11
128.210000
21
0.257923
0
LINE
8
Layer 1
10
128.210000
20
0.257923
11
125.286625
21
0.458169
0
LINE
8
Layer 1
10
125.286625
20
0.458169
11
122.745000
21
1.058920
0
LINE
8
Layer 1
10
122.745000
20
1.058920
11
120.587125
21
2.021377
0
LINE
8
Layer 1
10
120.587125
20
2.021377
11
118.817000
21
3.281000
0
LINE
8
Layer 1
10
118.817000
20
3.281000
11
117.435000
21
4.824817
0
LINE
8
Layer 1
10
117.435000
20
4.824817
11
116.440000
21
6.614110
0
LINE
8
Layer 1
10
116.440000
20
6.614110
11
115.849125
21
8.610107
0
LINE
8
Layer 1
10
115.849125
20
8.610107
11
115.652000
21
10.748200
0
LINE
8
Layer 1
10
115.652000
20
10.748200
11
115.652000
21
10.748200
0
LINE
8
Layer 1
10
141.167000
20
20.721800
11
145.263000
21
20.721800
0
LINE
8
Layer 1
10
145.263000
20
20.721800
11
145.263000
21
10.270200
0
LINE
8
Layer 1
10
145.263000
20
10.270200
11
155.921000
21
20.721800
0
LINE
8
Layer 1
10
155.921000
20
20.721800
11
161.166000
21
20.721800
0
LINE
8
Layer 1
10
161.166000
20
20.721800
11
151.218000
21
11.084100
0
LINE
8
Layer 1
10
151.218000
20
11.084100
11
161.166000
21
0.529226
0
LINE
8
Layer 1
10
161.166000
20
0.529226
11
155.714000
21
0.529226
0
LINE
8
Layer 1
10
155.714000
20
0.529226
11
148.273000
21
8.229010
0
LINE
8
Layer 1
10
148.273000
20
8.229010
11
145.263000
21
5.322200
0
LINE
8
Layer 1
10
145.263000
20
5.322200
11
145.263000
21
0.529226
0
LINE
8
Layer 1
10
145.263000
20
0.529226
11
141.167000
21
0.529226
0
LINE
8
Layer 1
10
141.167000
20
0.529226
11
141.167000
21
20.721800
0
LINE
8
Layer 1
10
141.167000
20
20.721800
11
141.167000
21
20.721800
 0 
ENDSEC
 0 
EOF