<svg width="610" height="80" viewBox="0 0 610 80" fill="none" xmlns="http://www.w3.org/2000/svg">
<path d="M0.929688 1.68164H41.1641C47.0234 1.68164 52.1016 2.31641 56.3984 3.58594C60.6953 4.85547 64.2598 6.69466 67.0918 9.10352C69.9238 11.4798 72.0234 14.3932 73.3906 17.8438C74.7904 21.2943 75.4902 25.1842 75.4902 29.5137C75.4902 33.5827 74.8066 37.3424 73.4395 40.793C72.0723 44.2435 69.9727 47.2383 67.1406 49.7773C64.3411 52.2839 60.793 54.2533 56.4961 55.6855C52.1992 57.0853 47.1211 57.7852 41.2617 57.7852L16.4082 57.7363V78H0.929688V1.68164ZM41.5547 44.3574C44.4844 44.3574 47.0397 44.0156 49.2207 43.332C51.4342 42.6159 53.2734 41.623 54.7383 40.3535C56.2357 39.0514 57.3424 37.4889 58.0586 35.666C58.8073 33.8105 59.1816 31.7598 59.1816 29.5137C59.1816 24.9889 57.7005 21.4733 54.7383 18.9668C51.8086 16.4277 47.4141 15.1582 41.5547 15.1582H16.4082V44.3574H41.5547ZM118.459 1.68164H134.865L171.779 78H155.52L149.416 65.1582H104.836L98.9277 78H82.6191L118.459 1.68164ZM143.312 52.4141L126.809 17.7461L110.744 52.4141H143.312ZM179.152 39.6211C179.152 33.8594 180.21 28.5859 182.326 23.8008C184.442 19.0156 187.404 14.9141 191.213 11.4961C195.054 8.04557 199.644 5.3763 204.982 3.48828C210.354 1.60026 216.294 0.65625 222.805 0.65625C229.283 0.65625 235.207 1.60026 240.578 3.48828C245.949 5.3763 250.539 8.04557 254.348 11.4961C258.189 14.9141 261.167 19.0156 263.283 23.8008C265.399 28.5859 266.457 33.8594 266.457 39.6211C266.457 45.4154 265.399 50.7376 263.283 55.5879C261.167 60.4056 258.189 64.556 254.348 68.0391C250.539 71.5221 245.949 74.2402 240.578 76.1934C235.207 78.1139 229.283 79.0742 222.805 79.0742C216.294 79.0742 210.354 78.1139 204.982 76.1934C199.644 74.2402 195.054 71.5221 191.213 68.0391C187.404 64.556 184.442 60.4056 182.326 55.5879C180.21 50.7376 179.152 45.4154 179.152 39.6211ZM194.631 39.6211C194.631 43.5599 195.331 47.1081 196.73 50.2656C198.163 53.4232 200.132 56.125 202.639 58.3711C205.178 60.5846 208.156 62.2936 211.574 63.498C215.025 64.7025 218.768 65.3047 222.805 65.3047C226.841 65.3047 230.568 64.7025 233.986 63.498C237.437 62.2936 240.415 60.5846 242.922 58.3711C245.428 56.125 247.398 53.4232 248.83 50.2656C250.262 47.1081 250.979 43.5599 250.979 39.6211C250.979 35.6823 250.262 32.1504 248.83 29.0254C247.398 25.9004 245.428 23.2637 242.922 21.1152C240.415 18.9342 237.437 17.2741 233.986 16.1348C230.568 14.9954 226.841 14.4258 222.805 14.4258C218.768 14.4258 215.025 14.9954 211.574 16.1348C208.156 17.2741 205.178 18.9342 202.639 21.1152C200.132 23.2637 198.163 25.9004 196.73 29.0254C195.331 32.1504 194.631 35.6823 194.631 39.6211ZM273.781 1.68164H290.676L311.379 50.9492L316.164 62.8633L319.924 50.9492L327.541 32.9805L313.82 1.68164H329.738L335.354 16.5742L340.578 1.68164H356.496L342.775 32.9805L350.539 51.3398L355.227 62.8633L358.84 51.1445L379.641 1.68164H396.535L362.844 78H347.512L340.725 62.8633L335.207 48.166L329.689 62.8633L322.805 78H307.473L273.781 1.68164ZM406.398 1.68164H421.975V78H406.398V1.68164ZM437.111 39.377C437.111 33.9408 438.137 28.8789 440.188 24.1914C442.238 19.4714 445.201 15.3861 449.074 11.9355C452.98 8.45247 457.733 5.7181 463.332 3.73242C468.964 1.74674 475.327 0.753906 482.424 0.753906C488.641 0.753906 494.338 1.38867 499.514 2.6582C504.722 3.89518 509.556 5.79948 514.016 8.37109L506.887 20.0898C505.552 19.2109 504.006 18.4297 502.248 17.7461C500.523 17.0625 498.667 16.4928 496.682 16.0371C494.729 15.5488 492.694 15.1745 490.578 14.9141C488.495 14.6536 486.428 14.5234 484.377 14.5234C479.429 14.5234 475.018 15.1419 471.145 16.3789C467.271 17.5833 463.999 19.2923 461.33 21.5059C458.693 23.6868 456.675 26.3073 455.275 29.3672C453.908 32.3945 453.225 35.7311 453.225 39.377C453.225 43.153 453.941 46.6198 455.373 49.7773C456.805 52.9349 458.872 55.6693 461.574 57.9805C464.309 60.2591 467.629 62.0495 471.535 63.3516C475.474 64.6211 479.917 65.2559 484.865 65.2559C487.111 65.2559 489.341 65.0931 491.555 64.7676C493.768 64.4421 495.9 64.0026 497.951 63.4492C500.035 62.8633 502.036 62.1797 503.957 61.3984C505.878 60.5846 507.668 59.7057 509.328 58.7617L516.457 70.4805C512.29 73.1497 507.473 75.2493 502.004 76.7793C496.535 78.2767 490.725 79.0254 484.572 79.0254C476.727 79.0254 469.842 78.0163 463.918 75.998C457.993 73.9473 453.046 71.1478 449.074 67.5996C445.103 64.0189 442.108 59.8197 440.09 55.002C438.104 50.1517 437.111 44.9434 437.111 39.377ZM533.547 1.68164H549.025V41.1836L589.309 1.68164H609.133L571.535 38.1074L609.133 78H588.527L560.402 48.8984L549.025 59.8848V78H533.547V1.68164Z" fill="black"/>
</svg>
