<svg width="24" height="113" viewBox="0 0 24 113" fill="none" xmlns="http://www.w3.org/2000/svg">
<path d="M4.475 11.175H18.425V12.6H6.35V23.05H4.475V11.175ZM17.825 11.175H19.7V20.95C19.7 21.975 19.425 22.45 18.65 22.7C17.85 22.95 16.5 22.95 14.45 22.95C14.35 22.5 14.075 21.875 13.825 21.425C15.35 21.45 16.85 21.45 17.25 21.45C17.7 21.425 17.825 21.325 17.825 20.95V11.175ZM5.625 14.375H18.45V15.75H5.625V14.375ZM0.975 8.1H23V9.575H0.975V8.1ZM2.6 1.675H21.675V3.175H2.6V1.675ZM3.425 4.85H20.6V6.275H3.425V4.85ZM5.625 17.575H18.45V18.9H5.625V17.575ZM10.975 -8.34465e-07H12.875V9.025H10.975V-8.34465e-07ZM5.075 33.575C4.95 34.15 4.875 35.35 4.85 36C4.825 37.55 4.85 39.85 5.025 41.9C5.45 46.075 6.65 48.85 8.45 48.85C9.725 48.85 10.9 46.275 11.55 43.775L13.125 45.55C11.6 49.775 10.1 51.225 8.4 51.225C6.025 51.225 3.775 48.875 3.075 42.4C2.85 40.25 2.8 37.2 2.8 35.75C2.8 35.175 2.8 34.1 2.65 33.525L5.075 33.575ZM18.075 34.25C20.325 37.15 22.125 42.475 22.5 46.7L20.475 47.5C20.05 43 18.525 37.85 16.15 34.925L18.075 34.25ZM18.625 61.525C19.25 62.425 20.15 63.95 20.675 64.95L19.3 65.55C18.825 64.55 17.975 63.05 17.3 62.1L18.625 61.525ZM21.375 60.525C22.025 61.45 23 63 23.45 63.925L22.125 64.525C21.575 63.45 20.75 62.025 20.05 61.1L21.375 60.525ZM4.925 73.5C6.025 70.9 7.05 67.1 7.4 64.225L9.625 64.675C9.45 65.225 9.275 65.975 9.15 66.5C8.825 68.05 7.95 71.75 6.9 74.325C5.975 76.6 4.6 79.175 3.2 81.2L1.075 80.3C2.65 78.2 4.075 75.575 4.925 73.5ZM17.25 72.55C16.25 69.975 14.7 66.5 13.625 64.625L15.65 63.95C16.625 65.775 18.225 69.225 19.3 71.85C20.3 74.325 21.625 78.15 22.3 80.425L20.075 81.125C19.45 78.6 18.275 75.2 17.25 72.55ZM5.275 92.4C5.925 92.475 6.7 92.525 7.5 92.525C8.85 92.525 15.875 92.525 17.35 92.525C18.125 92.525 19 92.475 19.6 92.4V94.475C19.025 94.425 18.15 94.4 17.3 94.4C15.9 94.4 8.875 94.4 7.5 94.4C6.75 94.4 5.95 94.425 5.275 94.475V92.4ZM21.45 98.975C21.325 99.225 21.15 99.525 21.1 99.725C20.45 102.175 19.325 104.775 17.45 106.825C14.85 109.7 11.7 111.15 8.525 112.05L6.975 110.275C10.5 109.55 13.625 107.925 15.775 105.675C17.275 104.1 18.275 101.975 18.725 100.15C17.5 100.15 6.975 100.15 5.475 100.15C4.875 100.15 3.925 100.175 3.025 100.25V98.15C3.925 98.225 4.775 98.3 5.475 98.3C6.7 98.3 17.35 98.3 18.625 98.3C19.2 98.3 19.75 98.225 20.025 98.1L21.45 98.975Z" fill="white"/>
</svg>
