999
"DXF R12 Output" (www.mydxf.blogspot.com)
 0 
SECTION
 2 
HEADER
 9 
$ACADVER
 1 
AC1009
 9 
$EXTMIN
 10 
 0 
 20 
 0 
 9 
$EXTMAX
 10 
 8.5 
 20 
 11 
 0 
ENDSEC
 0 
SECTION
 2 
ENTITIES
0
LINE
8
Layer 1
10
1.184010
20
26.941200
11
4.874940
21
26.941200
0
LINE
8
Layer 1
10
4.874940
20
26.941200
11
4.874940
21
26.564200
0
LINE
8
Layer 1
10
4.874940
20
26.564200
11
1.680100
21
26.564200
0
LINE
8
Layer 1
10
1.680100
20
26.564200
11
1.680100
21
23.799300
0
LINE
8
Layer 1
10
1.680100
20
23.799300
11
1.184010
21
23.799300
0
LINE
8
Layer 1
10
1.184010
20
23.799300
11
1.184010
21
26.941200
0
LINE
8
Layer 1
10
1.184010
20
26.941200
11
1.184010
21
26.941200
0
LINE
8
Layer 1
10
4.716190
20
26.941200
11
5.212290
21
26.941200
0
LINE
8
Layer 1
10
5.212290
20
26.941200
11
5.212290
21
24.354900
0
LINE
8
Layer 1
10
5.212290
20
24.354900
11
5.150274
21
24.046487
0
LINE
8
Layer 1
10
5.150274
20
24.046487
11
4.934470
21
23.891900
0
LINE
8
Layer 1
10
4.934470
20
23.891900
11
3.823220
21
23.825700
0
LINE
8
Layer 1
10
3.823220
20
23.825700
11
3.657860
21
24.229200
0
LINE
8
Layer 1
10
3.657860
20
24.229200
11
4.564060
21
24.222600
0
LINE
8
Layer 1
10
4.564060
20
24.222600
11
4.716190
21
24.354900
0
LINE
8
Layer 1
10
4.716190
20
24.354900
11
4.716190
21
26.941200
0
LINE
8
Layer 1
10
4.716190
20
26.941200
11
4.716190
21
26.941200
0
LINE
8
Layer 1
10
1.488280
20
26.094500
11
4.881560
21
26.094500
0
LINE
8
Layer 1
10
4.881560
20
26.094500
11
4.881560
21
25.730700
0
LINE
8
Layer 1
10
4.881560
20
25.730700
11
1.488280
21
25.730700
0
LINE
8
Layer 1
10
1.488280
20
25.730700
11
1.488280
21
26.094500
0
LINE
8
Layer 1
10
1.488280
20
26.094500
11
1.488280
21
26.094500
0
LINE
8
Layer 1
10
0.257968
20
27.754800
11
6.085410
21
27.754800
0
LINE
8
Layer 1
10
6.085410
20
27.754800
11
6.085410
21
27.364500
0
LINE
8
Layer 1
10
6.085410
20
27.364500
11
0.257968
21
27.364500
0
LINE
8
Layer 1
10
0.257968
20
27.364500
11
0.257968
21
27.754800
0
LINE
8
Layer 1
10
0.257968
20
27.754800
11
0.257968
21
27.754800
0
LINE
8
Layer 1
10
0.687916
20
29.454700
11
5.734840
21
29.454700
0
LINE
8
Layer 1
10
5.734840
20
29.454700
11
5.734840
21
29.057800
0
LINE
8
Layer 1
10
5.734840
20
29.057800
11
0.687916
21
29.057800
0
LINE
8
Layer 1
10
0.687916
20
29.057800
11
0.687916
21
29.454700
0
LINE
8
Layer 1
10
0.687916
20
29.454700
11
0.687916
21
29.454700
0
LINE
8
Layer 1
10
0.906197
20
28.614700
11
5.450410
21
28.614700
0
LINE
8
Layer 1
10
5.450410
20
28.614700
11
5.450410
21
28.237600
0
LINE
8
Layer 1
10
5.450410
20
28.237600
11
0.906197
21
28.237600
0
LINE
8
Layer 1
10
0.906197
20
28.237600
11
0.906197
21
28.614700
0
LINE
8
Layer 1
10
0.906197
20
28.614700
11
0.906197
21
28.614700
0
LINE
8
Layer 1
10
1.488280
20
25.247900
11
4.881560
21
25.247900
0
LINE
8
Layer 1
10
4.881560
20
25.247900
11
4.881560
21
24.897300
0
LINE
8
Layer 1
10
4.881560
20
24.897300
11
1.488280
21
24.897300
0
LINE
8
Layer 1
10
1.488280
20
24.897300
11
1.488280
21
25.247900
0
LINE
8
Layer 1
10
1.488280
20
25.247900
11
1.488280
21
25.247900
0
LINE
8
Layer 1
10
2.903800
20
29.897900
11
3.406510
21
29.897900
0
LINE
8
Layer 1
10
3.406510
20
29.897900
11
3.406510
21
27.510000
0
LINE
8
Layer 1
10
3.406510
20
27.510000
11
2.903800
21
27.510000
0
LINE
8
Layer 1
10
2.903800
20
27.510000
11
2.903800
21
29.897900
0
LINE
8
Layer 1
10
2.903800
20
29.897900
11
2.903800
21
29.897900
0
LINE
8
Layer 1
10
1.342760
20
21.014500
11
1.283230
21
20.372900
0
LINE
8
Layer 1
10
1.283230
20
20.372900
11
1.329530
21
18.811900
0
LINE
8
Layer 1
10
1.329530
20
18.811900
11
1.646205
21
17.478187
0
LINE
8
Layer 1
10
1.646205
20
17.478187
11
1.909032
21
17.104980
0
LINE
8
Layer 1
10
1.909032
20
17.104980
11
2.235730
21
16.973000
0
LINE
8
Layer 1
10
2.235730
20
16.973000
11
2.482017
21
17.089789
0
LINE
8
Layer 1
10
2.482017
20
17.089789
11
2.707840
21
17.396337
0
LINE
8
Layer 1
10
2.707840
20
17.396337
11
3.055930
21
18.315800
0
LINE
8
Layer 1
10
3.055930
20
18.315800
11
3.472650
21
17.846100
0
LINE
8
Layer 1
10
3.472650
20
17.846100
11
2.864937
21
16.676175
0
LINE
8
Layer 1
10
2.864937
20
16.676175
11
2.550850
21
16.422019
0
LINE
8
Layer 1
10
2.550850
20
16.422019
11
2.222500
21
16.344600
0
LINE
8
Layer 1
10
2.222500
20
16.344600
11
1.763301
21
16.468525
0
LINE
8
Layer 1
10
1.763301
20
16.468525
11
1.351853
21
16.869650
0
LINE
8
Layer 1
10
1.351853
20
16.869650
11
1.023502
21
17.592000
0
LINE
8
Layer 1
10
1.023502
20
17.592000
11
0.813593
21
18.679600
0
LINE
8
Layer 1
10
0.813593
20
18.679600
11
0.740832
21
20.439100
0
LINE
8
Layer 1
10
0.740832
20
20.439100
11
0.701145
21
21.027800
0
LINE
8
Layer 1
10
0.701145
20
21.027800
11
1.342760
21
21.014500
0
LINE
8
Layer 1
10
1.342760
20
21.014500
11
1.342760
21
21.014500
0
LINE
8
Layer 1
10
4.782340
20
20.835900
11
5.553764
21
19.320338
0
LINE
8
Layer 1
10
5.553764
20
19.320338
11
5.953120
21
17.541900
0
LINE
8
Layer 1
10
5.953120
20
17.541900
11
5.417340
21
17.330200
0
LINE
8
Layer 1
10
5.417340
20
17.330200
11
5.038654
21
19.150013
0
LINE
8
Layer 1
10
5.038654
20
19.150013
11
4.701105
21
19.978380
0
LINE
8
Layer 1
10
4.701105
20
19.978380
11
4.273020
21
20.657300
0
LINE
8
Layer 1
10
4.273020
20
20.657300
11
4.782340
21
20.835900
0
LINE
8
Layer 1
10
4.782340
20
20.835900
11
4.782340
21
20.835900
0
LINE
8
Layer 1
10
4.927860
20
13.619400
11
5.470250
21
12.713200
0
LINE
8
Layer 1
10
5.470250
20
12.713200
11
5.106450
21
12.554500
0
LINE
8
Layer 1
10
5.106450
20
12.554500
11
4.577290
21
13.467300
0
LINE
8
Layer 1
10
4.577290
20
13.467300
11
4.927860
21
13.619400
0
LINE
8
Layer 1
10
4.927860
20
13.619400
11
4.927860
21
13.619400
0
LINE
8
Layer 1
10
5.655460
20
13.884000
11
6.204470
21
12.984400
0
LINE
8
Layer 1
10
6.204470
20
12.984400
11
5.853900
21
12.825700
0
LINE
8
Layer 1
10
5.853900
20
12.825700
11
5.304890
21
13.731900
0
LINE
8
Layer 1
10
5.304890
20
13.731900
11
5.655460
21
13.884000
0
LINE
8
Layer 1
10
5.655460
20
13.884000
11
5.655460
21
13.884000
0
LINE
8
Layer 1
10
1.303070
20
10.451000
11
1.704905
21
11.650787
0
LINE
8
Layer 1
10
1.704905
20
11.650787
11
1.957910
21
12.905100
0
LINE
8
Layer 1
10
1.957910
20
12.905100
11
2.546610
21
12.786000
0
LINE
8
Layer 1
10
2.546610
20
12.786000
11
2.420930
21
12.303100
0
LINE
8
Layer 1
10
2.420930
20
12.303100
11
1.825620
21
10.232800
0
LINE
8
Layer 1
10
1.825620
20
10.232800
11
0.846666
21
8.413760
0
LINE
8
Layer 1
10
0.846666
20
8.413760
11
0.284427
21
8.651890
0
LINE
8
Layer 1
10
0.284427
20
8.651890
11
1.303070
21
10.451000
0
LINE
8
Layer 1
10
1.303070
20
10.451000
11
1.303070
21
10.451000
0
LINE
8
Layer 1
10
4.564060
20
10.702400
11
3.604940
21
12.799200
0
LINE
8
Layer 1
10
3.604940
20
12.799200
11
4.140720
21
12.977800
0
LINE
8
Layer 1
10
4.140720
20
12.977800
11
5.106450
21
10.887600
0
LINE
8
Layer 1
10
5.106450
20
10.887600
11
5.900200
21
8.618810
0
LINE
8
Layer 1
10
5.900200
20
8.618810
11
5.311500
21
8.433600
0
LINE
8
Layer 1
10
5.311500
20
8.433600
11
4.564060
21
10.702400
0
LINE
8
Layer 1
10
4.564060
20
10.702400
11
4.564060
21
10.702400
0
LINE
8
Layer 1
10
1.395680
20
5.450430
11
1.984370
21
5.417360
0
LINE
8
Layer 1
10
1.984370
20
5.417360
11
4.590520
21
5.417360
0
LINE
8
Layer 1
10
4.590520
20
5.417360
11
5.185830
21
5.450430
0
LINE
8
Layer 1
10
5.185830
20
5.450430
11
5.185830
21
4.901420
0
LINE
8
Layer 1
10
5.185830
20
4.901420
11
4.577290
21
4.921260
0
LINE
8
Layer 1
10
4.577290
20
4.921260
11
1.984370
21
4.921260
0
LINE
8
Layer 1
10
1.984370
20
4.921260
11
1.395680
21
4.901420
0
LINE
8
Layer 1
10
1.395680
20
4.901420
11
1.395680
21
5.450430
0
LINE
8
Layer 1
10
1.395680
20
5.450430
11
1.395680
21
5.450430
0
LINE
8
Layer 1
10
5.675310
20
3.710800
11
5.582700
21
3.512360
0
LINE
8
Layer 1
10
5.582700
20
3.512360
11
5.221380
21
2.533404
0
LINE
8
Layer 1
10
5.221380
20
2.533404
11
4.616970
21
1.633820
0
LINE
8
Layer 1
10
4.616970
20
1.633820
11
3.493322
21
0.746641
0
LINE
8
Layer 1
10
3.493322
20
0.746641
11
2.255570
21
0.251375
0
LINE
8
Layer 1
10
2.255570
20
0.251375
11
1.845470
21
0.721010
0
LINE
8
Layer 1
10
1.845470
20
0.721010
11
3.146056
21
1.178242
0
LINE
8
Layer 1
10
3.146056
20
1.178242
11
4.173800
21
1.938090
0
LINE
8
Layer 1
10
4.173800
20
1.938090
11
4.668235
21
2.644197
0
LINE
8
Layer 1
10
4.668235
20
2.644197
11
4.954320
21
3.399910
0
LINE
8
Layer 1
10
4.954320
20
3.399910
11
1.448590
21
3.399910
0
LINE
8
Layer 1
10
1.448590
20
3.399910
11
0.800364
21
3.373450
0
LINE
8
Layer 1
10
0.800364
20
3.373450
11
0.800364
21
3.929080
0
LINE
8
Layer 1
10
0.800364
20
3.929080
11
1.448590
21
3.889390
0
LINE
8
Layer 1
10
1.448590
20
3.889390
11
4.927860
21
3.889390
0
LINE
8
Layer 1
10
4.927860
20
3.889390
11
5.298270
21
3.942310
0
LINE
8
Layer 1
10
5.298270
20
3.942310
11
5.675310
21
3.710800
0
LINE
8
Layer 1
10
5.675310
20
3.710800
11
5.675310
21
3.710800
 0 
ENDSEC
 0 
EOF