  0
SECTION
  2
HEADER
  9
$ACADVER
  1
AC1009
  9
$FILLMODE
 70
 0
  9
$SPLFRAME
 70
 1
  9
$EXTMIN
 10
0
 20
0
 30
0.0
  9
$EXTMAX
 10
1058.33
 20
1058.33
 30
0.0
  0
ENDSEC
  0
SECTION
  2
TABLES
  0
TABLE
  2
LAYER
 70
1
  0
LAYER
  2
0
 70
     0
 62
     7
  6
CONTINUOUS
  0
ENDTAB
  0
ENDSEC
  0
SECTION
  2
ENTITIES
  0
LINE
  8
0
 62
     0
 10
0.0950846
 20
101.505
 30
0.0
 11
320.42
 21
101.505
 31
0.0
  0
LINE
  8
0
 62
     0
 10
320.42
 20
101.505
 30
0.0
 11
320.42
 21
0.254937
 31
0.0
  0
LINE
  8
0
 62
     0
 10
320.42
 20
0.254937
 30
0.0
 11
0.0950846
 21
0.254937
 31
0.0
  0
LINE
  8
0
 62
     0
 10
0.0950846
 20
0.254937
 30
0.0
 11
0.0950846
 21
101.505
 31
0.0
  0
LINE
  8
0
 62
     0
 10
318.611
 20
2.70647
 30
0.0
 11
318.332
 21
2.56453
 31
0.0
  0
LINE
  8
0
 62
     0
 10
318.332
 20
2.56453
 30
0.0
 11
318.11
 21
2.34267
 31
0.0
  0
LINE
  8
0
 62
     0
 10
318.11
 20
2.34267
 30
0.0
 11
317.968
 21
2.0643
 31
0.0
  0
LINE
  8
0
 62
     0
 10
317.968
 20
2.0643
 30
0.0
 11
317.92
 21
1.75562
 31
0.0
  0
LINE
  8
0
 62
     0
 10
317.92
 20
1.75562
 30
0.0
 11
317.968
 21
1.44556
 31
0.0
  0
LINE
  8
0
 62
     0
 10
317.968
 20
1.44556
 30
0.0
 11
318.11
 21
1.1672
 31
0.0
  0
LINE
  8
0
 62
     0
 10
318.11
 20
1.1672
 30
0.0
 11
318.332
 21
0.945335
 31
0.0
  0
LINE
  8
0
 62
     0
 10
318.332
 20
0.945335
 30
0.0
 11
318.611
 21
0.803395
 31
0.0
  0
LINE
  8
0
 62
     0
 10
318.611
 20
0.803395
 30
0.0
 11
318.921
 21
0.755167
 31
0.0
  0
LINE
  8
0
 62
     0
 10
318.921
 20
0.755167
 30
0.0
 11
319.229
 21
0.803395
 31
0.0
  0
LINE
  8
0
 62
     0
 10
319.229
 20
0.803395
 30
0.0
 11
319.508
 21
0.945335
 31
0.0
  0
LINE
  8
0
 62
     0
 10
319.508
 20
0.945335
 30
0.0
 11
319.73
 21
1.1672
 31
0.0
  0
LINE
  8
0
 62
     0
 10
319.73
 20
1.1672
 30
0.0
 11
319.872
 21
1.44556
 31
0.0
  0
LINE
  8
0
 62
     0
 10
319.872
 20
1.44556
 30
0.0
 11
319.92
 21
1.75562
 31
0.0
  0
LINE
  8
0
 62
     0
 10
319.92
 20
1.75562
 30
0.0
 11
319.872
 21
2.0643
 31
0.0
  0
LINE
  8
0
 62
     0
 10
319.872
 20
2.0643
 30
0.0
 11
319.73
 21
2.34267
 31
0.0
  0
LINE
  8
0
 62
     0
 10
319.73
 20
2.34267
 30
0.0
 11
319.508
 21
2.56453
 31
0.0
  0
LINE
  8
0
 62
     0
 10
319.508
 20
2.56453
 30
0.0
 11
319.229
 21
2.70647
 31
0.0
  0
LINE
  8
0
 62
     0
 10
319.229
 20
2.70647
 30
0.0
 11
318.921
 21
2.75608
 31
0.0
  0
LINE
  8
0
 62
     0
 10
318.921
 20
2.75608
 30
0.0
 11
318.611
 21
2.70647
 31
0.0
  0
LINE
  8
0
 62
     0
 10
212.835
 20
2.70647
 30
0.0
 11
212.557
 21
2.56453
 31
0.0
  0
LINE
  8
0
 62
     0
 10
212.557
 20
2.56453
 30
0.0
 11
212.335
 21
2.34267
 31
0.0
  0
LINE
  8
0
 62
     0
 10
212.335
 20
2.34267
 30
0.0
 11
212.193
 21
2.0643
 31
0.0
  0
LINE
  8
0
 62
     0
 10
212.193
 20
2.0643
 30
0.0
 11
212.145
 21
1.75562
 31
0.0
  0
LINE
  8
0
 62
     0
 10
212.145
 20
1.75562
 30
0.0
 11
212.193
 21
1.44556
 31
0.0
  0
LINE
  8
0
 62
     0
 10
212.193
 20
1.44556
 30
0.0
 11
212.335
 21
1.1672
 31
0.0
  0
LINE
  8
0
 62
     0
 10
212.335
 20
1.1672
 30
0.0
 11
212.557
 21
0.945335
 31
0.0
  0
LINE
  8
0
 62
     0
 10
212.557
 20
0.945335
 30
0.0
 11
212.835
 21
0.803395
 31
0.0
  0
LINE
  8
0
 62
     0
 10
212.835
 20
0.803395
 30
0.0
 11
213.144
 21
0.755167
 31
0.0
  0
LINE
  8
0
 62
     0
 10
213.144
 20
0.755167
 30
0.0
 11
213.454
 21
0.803395
 31
0.0
  0
LINE
  8
0
 62
     0
 10
213.454
 20
0.803395
 30
0.0
 11
213.732
 21
0.945335
 31
0.0
  0
LINE
  8
0
 62
     0
 10
213.732
 20
0.945335
 30
0.0
 11
213.953
 21
1.1672
 31
0.0
  0
LINE
  8
0
 62
     0
 10
213.953
 20
1.1672
 30
0.0
 11
214.096
 21
1.44556
 31
0.0
  0
LINE
  8
0
 62
     0
 10
214.096
 20
1.44556
 30
0.0
 11
214.144
 21
1.75562
 31
0.0
  0
LINE
  8
0
 62
     0
 10
214.144
 20
1.75562
 30
0.0
 11
214.096
 21
2.0643
 31
0.0
  0
LINE
  8
0
 62
     0
 10
214.096
 20
2.0643
 30
0.0
 11
213.953
 21
2.34267
 31
0.0
  0
LINE
  8
0
 62
     0
 10
213.953
 20
2.34267
 30
0.0
 11
213.732
 21
2.56453
 31
0.0
  0
LINE
  8
0
 62
     0
 10
213.732
 20
2.56453
 30
0.0
 11
213.454
 21
2.70647
 31
0.0
  0
LINE
  8
0
 62
     0
 10
213.454
 20
2.70647
 30
0.0
 11
213.144
 21
2.75608
 31
0.0
  0
LINE
  8
0
 62
     0
 10
213.144
 20
2.75608
 30
0.0
 11
212.835
 21
2.70647
 31
0.0
  0
LINE
  8
0
 62
     0
 10
107.061
 20
2.70647
 30
0.0
 11
106.782
 21
2.56453
 31
0.0
  0
LINE
  8
0
 62
     0
 10
106.782
 20
2.56453
 30
0.0
 11
106.561
 21
2.34267
 31
0.0
  0
LINE
  8
0
 62
     0
 10
106.561
 20
2.34267
 30
0.0
 11
106.419
 21
2.0643
 31
0.0
  0
LINE
  8
0
 62
     0
 10
106.419
 20
2.0643
 30
0.0
 11
106.37
 21
1.75562
 31
0.0
  0
LINE
  8
0
 62
     0
 10
106.37
 20
1.75562
 30
0.0
 11
106.419
 21
1.44556
 31
0.0
  0
LINE
  8
0
 62
     0
 10
106.419
 20
1.44556
 30
0.0
 11
106.561
 21
1.1672
 31
0.0
  0
LINE
  8
0
 62
     0
 10
106.561
 20
1.1672
 30
0.0
 11
106.782
 21
0.945335
 31
0.0
  0
LINE
  8
0
 62
     0
 10
106.782
 20
0.945335
 30
0.0
 11
107.061
 21
0.803395
 31
0.0
  0
LINE
  8
0
 62
     0
 10
107.061
 20
0.803395
 30
0.0
 11
107.37
 21
0.755167
 31
0.0
  0
LINE
  8
0
 62
     0
 10
107.37
 20
0.755167
 30
0.0
 11
107.678
 21
0.803395
 31
0.0
  0
LINE
  8
0
 62
     0
 10
107.678
 20
0.803395
 30
0.0
 11
107.957
 21
0.945335
 31
0.0
  0
LINE
  8
0
 62
     0
 10
107.957
 20
0.945335
 30
0.0
 11
108.179
 21
1.1672
 31
0.0
  0
LINE
  8
0
 62
     0
 10
108.179
 20
1.1672
 30
0.0
 11
108.321
 21
1.44556
 31
0.0
  0
LINE
  8
0
 62
     0
 10
108.321
 20
1.44556
 30
0.0
 11
108.369
 21
1.75562
 31
0.0
  0
LINE
  8
0
 62
     0
 10
108.369
 20
1.75562
 30
0.0
 11
108.321
 21
2.0643
 31
0.0
  0
LINE
  8
0
 62
     0
 10
108.321
 20
2.0643
 30
0.0
 11
108.179
 21
2.34267
 31
0.0
  0
LINE
  8
0
 62
     0
 10
108.179
 20
2.34267
 30
0.0
 11
107.957
 21
2.56453
 31
0.0
  0
LINE
  8
0
 62
     0
 10
107.957
 20
2.56453
 30
0.0
 11
107.678
 21
2.70647
 31
0.0
  0
LINE
  8
0
 62
     0
 10
107.678
 20
2.70647
 30
0.0
 11
107.37
 21
2.75608
 31
0.0
  0
LINE
  8
0
 62
     0
 10
107.37
 20
2.75608
 30
0.0
 11
107.061
 21
2.70647
 31
0.0
  0
LINE
  8
0
 62
     0
 10
1.28433
 20
2.70647
 30
0.0
 11
1.00597
 21
2.56453
 31
0.0
  0
LINE
  8
0
 62
     0
 10
1.00597
 20
2.56453
 30
0.0
 11
0.784105
 21
2.34267
 31
0.0
  0
LINE
  8
0
 62
     0
 10
0.784105
 20
2.34267
 30
0.0
 11
0.642165
 21
2.0643
 31
0.0
  0
LINE
  8
0
 62
     0
 10
0.642165
 20
2.0643
 30
0.0
 11
0.593933
 21
1.75562
 31
0.0
  0
LINE
  8
0
 62
     0
 10
0.593933
 20
1.75562
 30
0.0
 11
0.642165
 21
1.44556
 31
0.0
  0
LINE
  8
0
 62
     0
 10
0.642165
 20
1.44556
 30
0.0
 11
0.784105
 21
1.1672
 31
0.0
  0
LINE
  8
0
 62
     0
 10
0.784105
 20
1.1672
 30
0.0
 11
1.00597
 21
0.945335
 31
0.0
  0
LINE
  8
0
 62
     0
 10
1.00597
 20
0.945335
 30
0.0
 11
1.28433
 21
0.803395
 31
0.0
  0
LINE
  8
0
 62
     0
 10
1.28433
 20
0.803395
 30
0.0
 11
1.59439
 21
0.755167
 31
0.0
  0
LINE
  8
0
 62
     0
 10
1.59439
 20
0.755167
 30
0.0
 11
1.90307
 21
0.803395
 31
0.0
  0
LINE
  8
0
 62
     0
 10
1.90307
 20
0.803395
 30
0.0
 11
2.18143
 21
0.945335
 31
0.0
  0
LINE
  8
0
 62
     0
 10
2.18143
 20
0.945335
 30
0.0
 11
2.4033
 21
1.1672
 31
0.0
  0
LINE
  8
0
 62
     0
 10
2.4033
 20
1.1672
 30
0.0
 11
2.54524
 21
1.44556
 31
0.0
  0
LINE
  8
0
 62
     0
 10
2.54524
 20
1.44556
 30
0.0
 11
2.59485
 21
1.75562
 31
0.0
  0
LINE
  8
0
 62
     0
 10
2.59485
 20
1.75562
 30
0.0
 11
2.54524
 21
2.0643
 31
0.0
  0
LINE
  8
0
 62
     0
 10
2.54524
 20
2.0643
 30
0.0
 11
2.4033
 21
2.34267
 31
0.0
  0
LINE
  8
0
 62
     0
 10
2.4033
 20
2.34267
 30
0.0
 11
2.18143
 21
2.56453
 31
0.0
  0
LINE
  8
0
 62
     0
 10
2.18143
 20
2.56453
 30
0.0
 11
1.90307
 21
2.70647
 31
0.0
  0
LINE
  8
0
 62
     0
 10
1.90307
 20
2.70647
 30
0.0
 11
1.59439
 21
2.75608
 31
0.0
  0
LINE
  8
0
 62
     0
 10
1.59439
 20
2.75608
 30
0.0
 11
1.28433
 21
2.70647
 31
0.0
  0
LINE
  8
0
 62
     0
 10
127.062
 20
19.7804
 30
0.0
 11
127.062
 21
15.0799
 31
0.0
  0
LINE
  8
0
 62
     0
 10
127.062
 20
15.0799
 30
0.0
 11
87.4377
 21
15.0799
 31
0.0
  0
LINE
  8
0
 62
     0
 10
87.4377
 20
15.0799
 30
0.0
 11
87.4377
 21
18.31
 31
0.0
  0
LINE
  8
0
 62
     0
 10
87.4377
 20
18.31
 30
0.0
 11
85.7127
 21
18.31
 31
0.0
  0
LINE
  8
0
 62
     0
 10
85.7127
 20
18.31
 30
0.0
 11
85.7127
 21
19.2319
 31
0.0
  0
LINE
  8
0
 62
     0
 10
85.7127
 20
19.2319
 30
0.0
 11
82.4121
 21
19.2319
 31
0.0
  0
LINE
  8
0
 62
     0
 10
82.4121
 20
19.2319
 30
0.0
 11
82.4121
 21
18.31
 31
0.0
  0
LINE
  8
0
 62
     0
 10
82.4121
 20
18.31
 30
0.0
 11
80.687
 21
18.31
 31
0.0
  0
LINE
  8
0
 62
     0
 10
80.687
 20
18.31
 30
0.0
 11
80.687
 21
15.0799
 31
0.0
  0
LINE
  8
0
 62
     0
 10
80.687
 20
15.0799
 30
0.0
 11
79.8629
 21
15.0799
 31
0.0
  0
LINE
  8
0
 62
     0
 10
79.8629
 20
15.0799
 30
0.0
 11
79.8629
 21
12.2811
 31
0.0
  0
LINE
  8
0
 62
     0
 10
79.8629
 20
12.2811
 30
0.0
 11
80.687
 21
12.2811
 31
0.0
  0
LINE
  8
0
 62
     0
 10
80.687
 20
12.2811
 30
0.0
 11
80.687
 21
6.01102
 31
0.0
  0
LINE
  8
0
 62
     0
 10
80.687
 20
6.01102
 30
0.0
 11
82.4121
 21
6.01102
 31
0.0
  0
LINE
  8
0
 62
     0
 10
82.4121
 20
6.01102
 30
0.0
 11
82.4121
 21
5.02984
 31
0.0
  0
LINE
  8
0
 62
     0
 10
82.4121
 20
5.02984
 30
0.0
 11
85.7127
 21
5.02984
 31
0.0
  0
LINE
  8
0
 62
     0
 10
85.7127
 20
5.02984
 30
0.0
 11
85.7127
 21
6.01102
 31
0.0
  0
LINE
  8
0
 62
     0
 10
85.7127
 20
6.01102
 30
0.0
 11
87.4377
 21
6.01102
 31
0.0
  0
LINE
  8
0
 62
     0
 10
87.4377
 20
6.01102
 30
0.0
 11
87.4377
 21
10.4813
 31
0.0
  0
LINE
  8
0
 62
     0
 10
87.4377
 20
10.4813
 30
0.0
 11
127.062
 21
10.4813
 31
0.0
  0
LINE
  8
0
 62
     0
 10
127.062
 20
10.4813
 30
0.0
 11
127.062
 21
5.78086
 31
0.0
  0
LINE
  8
0
 62
     0
 10
127.062
 20
5.78086
 30
0.0
 11
141.063
 21
5.78086
 31
0.0
  0
LINE
  8
0
 62
     0
 10
141.063
 20
5.78086
 30
0.0
 11
141.063
 21
10.4813
 31
0.0
  0
LINE
  8
0
 62
     0
 10
141.063
 20
10.4813
 30
0.0
 11
180.687
 21
10.4813
 31
0.0
  0
LINE
  8
0
 62
     0
 10
180.687
 20
10.4813
 30
0.0
 11
180.687
 21
6.01102
 31
0.0
  0
LINE
  8
0
 62
     0
 10
180.687
 20
6.01102
 30
0.0
 11
182.412
 21
6.01102
 31
0.0
  0
LINE
  8
0
 62
     0
 10
182.412
 20
6.01102
 30
0.0
 11
182.412
 21
5.02984
 31
0.0
  0
LINE
  8
0
 62
     0
 10
182.412
 20
5.02984
 30
0.0
 11
185.713
 21
5.02984
 31
0.0
  0
LINE
  8
0
 62
     0
 10
185.713
 20
5.02984
 30
0.0
 11
185.713
 21
6.01102
 31
0.0
  0
LINE
  8
0
 62
     0
 10
185.713
 20
6.01102
 30
0.0
 11
187.438
 21
6.01102
 31
0.0
  0
LINE
  8
0
 62
     0
 10
187.438
 20
6.01102
 30
0.0
 11
187.438
 21
12.2811
 31
0.0
  0
LINE
  8
0
 62
     0
 10
187.438
 20
12.2811
 30
0.0
 11
188.262
 21
12.2811
 31
0.0
  0
LINE
  8
0
 62
     0
 10
188.262
 20
12.2811
 30
0.0
 11
188.262
 21
15.0799
 31
0.0
  0
LINE
  8
0
 62
     0
 10
188.262
 20
15.0799
 30
0.0
 11
187.438
 21
15.0799
 31
0.0
  0
LINE
  8
0
 62
     0
 10
187.438
 20
15.0799
 30
0.0
 11
187.438
 21
18.31
 31
0.0
  0
LINE
  8
0
 62
     0
 10
187.438
 20
18.31
 30
0.0
 11
185.713
 21
18.31
 31
0.0
  0
LINE
  8
0
 62
     0
 10
185.713
 20
18.31
 30
0.0
 11
185.713
 21
19.2319
 31
0.0
  0
LINE
  8
0
 62
     0
 10
185.713
 20
19.2319
 30
0.0
 11
182.412
 21
19.2319
 31
0.0
  0
LINE
  8
0
 62
     0
 10
182.412
 20
19.2319
 30
0.0
 11
182.412
 21
18.31
 31
0.0
  0
LINE
  8
0
 62
     0
 10
182.412
 20
18.31
 30
0.0
 11
180.687
 21
18.31
 31
0.0
  0
LINE
  8
0
 62
     0
 10
180.687
 20
18.31
 30
0.0
 11
180.687
 21
15.0799
 31
0.0
  0
LINE
  8
0
 62
     0
 10
180.687
 20
15.0799
 30
0.0
 11
141.063
 21
15.0799
 31
0.0
  0
LINE
  8
0
 62
     0
 10
141.063
 20
15.0799
 30
0.0
 11
141.063
 21
19.7804
 31
0.0
  0
LINE
  8
0
 62
     0
 10
141.063
 20
19.7804
 30
0.0
 11
127.062
 21
19.7804
 31
0.0
  0
LINE
  8
0
 62
     0
 10
8.00089
 20
19.7804
 30
0.0
 11
22.0004
 21
19.7804
 31
0.0
  0
LINE
  8
0
 62
     0
 10
22.0004
 20
19.7804
 30
0.0
 11
22.0004
 21
5.78086
 31
0.0
  0
LINE
  8
0
 62
     0
 10
22.0004
 20
5.78086
 30
0.0
 11
8.00089
 21
5.78086
 31
0.0
  0
LINE
  8
0
 62
     0
 10
8.00089
 20
5.78086
 30
0.0
 11
8.00089
 21
19.7804
 31
0.0
  0
LINE
  8
0
 62
     0
 10
31.812
 20
19.7804
 30
0.0
 11
45.8128
 21
19.7804
 31
0.0
  0
LINE
  8
0
 62
     0
 10
45.8128
 20
19.7804
 30
0.0
 11
45.8128
 21
5.78086
 31
0.0
  0
LINE
  8
0
 62
     0
 10
45.8128
 20
5.78086
 30
0.0
 11
31.812
 21
5.78086
 31
0.0
  0
LINE
  8
0
 62
     0
 10
31.812
 20
5.78086
 30
0.0
 11
31.812
 21
19.7804
 31
0.0
  0
LINE
  8
0
 62
     0
 10
55.626
 20
19.7804
 30
0.0
 11
69.6253
 21
19.7804
 31
0.0
  0
LINE
  8
0
 62
     0
 10
69.6253
 20
19.7804
 30
0.0
 11
69.6253
 21
5.78086
 31
0.0
  0
LINE
  8
0
 62
     0
 10
69.6253
 20
5.78086
 30
0.0
 11
55.626
 21
5.78086
 31
0.0
  0
LINE
  8
0
 62
     0
 10
55.626
 20
5.78086
 30
0.0
 11
55.626
 21
19.7804
 31
0.0
  0
LINE
  8
0
 62
     0
 10
196.12
 20
19.7804
 30
0.0
 11
210.119
 21
19.7804
 31
0.0
  0
LINE
  8
0
 62
     0
 10
210.119
 20
19.7804
 30
0.0
 11
210.119
 21
5.78086
 31
0.0
  0
LINE
  8
0
 62
     0
 10
210.119
 20
5.78086
 30
0.0
 11
196.12
 21
5.78086
 31
0.0
  0
LINE
  8
0
 62
     0
 10
196.12
 20
5.78086
 30
0.0
 11
196.12
 21
19.7804
 31
0.0
  0
LINE
  8
0
 62
     0
 10
217.551
 20
19.7804
 30
0.0
 11
231.55
 21
19.7804
 31
0.0
  0
LINE
  8
0
 62
     0
 10
231.55
 20
19.7804
 30
0.0
 11
231.55
 21
5.78086
 31
0.0
  0
LINE
  8
0
 62
     0
 10
231.55
 20
5.78086
 30
0.0
 11
217.551
 21
5.78086
 31
0.0
  0
LINE
  8
0
 62
     0
 10
217.551
 20
5.78086
 30
0.0
 11
217.551
 21
19.7804
 31
0.0
  0
LINE
  8
0
 62
     0
 10
241.362
 20
19.7804
 30
0.0
 11
255.361
 21
19.7804
 31
0.0
  0
LINE
  8
0
 62
     0
 10
255.361
 20
19.7804
 30
0.0
 11
255.361
 21
5.78086
 31
0.0
  0
LINE
  8
0
 62
     0
 10
255.361
 20
5.78086
 30
0.0
 11
241.362
 21
5.78086
 31
0.0
  0
LINE
  8
0
 62
     0
 10
241.362
 20
5.78086
 30
0.0
 11
241.362
 21
19.7804
 31
0.0
  0
LINE
  8
0
 62
     0
 10
262.795
 20
19.7804
 30
0.0
 11
276.794
 21
19.7804
 31
0.0
  0
LINE
  8
0
 62
     0
 10
276.794
 20
19.7804
 30
0.0
 11
276.794
 21
5.78086
 31
0.0
  0
LINE
  8
0
 62
     0
 10
276.794
 20
5.78086
 30
0.0
 11
262.795
 21
5.78086
 31
0.0
  0
LINE
  8
0
 62
     0
 10
262.795
 20
5.78086
 30
0.0
 11
262.795
 21
19.7804
 31
0.0
  0
LINE
  8
0
 62
     0
 10
281.845
 20
19.7804
 30
0.0
 11
295.844
 21
19.7804
 31
0.0
  0
LINE
  8
0
 62
     0
 10
295.844
 20
19.7804
 30
0.0
 11
295.844
 21
5.78086
 31
0.0
  0
LINE
  8
0
 62
     0
 10
295.844
 20
5.78086
 30
0.0
 11
281.845
 21
5.78086
 31
0.0
  0
LINE
  8
0
 62
     0
 10
281.845
 20
5.78086
 30
0.0
 11
281.845
 21
19.7804
 31
0.0
  0
LINE
  8
0
 62
     0
 10
300.895
 20
19.7804
 30
0.0
 11
314.894
 21
19.7804
 31
0.0
  0
LINE
  8
0
 62
     0
 10
314.894
 20
19.7804
 30
0.0
 11
314.894
 21
5.78086
 31
0.0
  0
LINE
  8
0
 62
     0
 10
314.894
 20
5.78086
 30
0.0
 11
300.895
 21
5.78086
 31
0.0
  0
LINE
  8
0
 62
     0
 10
300.895
 20
5.78086
 30
0.0
 11
300.895
 21
19.7804
 31
0.0
  0
LINE
  8
0
 62
     0
 10
17.5259
 20
38.8303
 30
0.0
 11
17.5259
 21
34.1299
 31
0.0
  0
LINE
  8
0
 62
     0
 10
17.5259
 20
34.1299
 30
0.0
 11
16.0004
 21
34.1299
 31
0.0
  0
LINE
  8
0
 62
     0
 10
16.0004
 20
34.1299
 30
0.0
 11
16.0004
 21
37.3599
 31
0.0
  0
LINE
  8
0
 62
     0
 10
16.0004
 20
37.3599
 30
0.0
 11
14.2751
 21
37.3599
 31
0.0
  0
LINE
  8
0
 62
     0
 10
14.2751
 20
37.3599
 30
0.0
 11
14.2751
 21
38.2806
 31
0.0
  0
LINE
  8
0
 62
     0
 10
14.2751
 20
38.2806
 30
0.0
 11
10.9761
 21
38.2806
 31
0.0
  0
LINE
  8
0
 62
     0
 10
10.9761
 20
38.2806
 30
0.0
 11
10.9761
 21
37.3599
 31
0.0
  0
LINE
  8
0
 62
     0
 10
10.9761
 20
37.3599
 30
0.0
 11
9.25079
 21
37.3599
 31
0.0
  0
LINE
  8
0
 62
     0
 10
9.25079
 20
37.3599
 30
0.0
 11
9.25079
 21
34.1299
 31
0.0
  0
LINE
  8
0
 62
     0
 10
9.25079
 20
34.1299
 30
0.0
 11
8.42532
 21
34.1299
 31
0.0
  0
LINE
  8
0
 62
     0
 10
8.42532
 20
34.1299
 30
0.0
 11
8.42532
 21
31.3311
 31
0.0
  0
LINE
  8
0
 62
     0
 10
8.42532
 20
31.3311
 30
0.0
 11
9.25079
 21
31.3311
 31
0.0
  0
LINE
  8
0
 62
     0
 10
9.25079
 20
31.3311
 30
0.0
 11
9.25079
 21
25.061
 31
0.0
  0
LINE
  8
0
 62
     0
 10
9.25079
 20
25.061
 30
0.0
 11
10.9761
 21
25.061
 31
0.0
  0
LINE
  8
0
 62
     0
 10
10.9761
 20
25.061
 30
0.0
 11
10.9761
 21
24.0798
 31
0.0
  0
LINE
  8
0
 62
     0
 10
10.9761
 20
24.0798
 30
0.0
 11
14.2751
 21
24.0798
 31
0.0
  0
LINE
  8
0
 62
     0
 10
14.2751
 20
24.0798
 30
0.0
 11
14.2751
 21
25.061
 31
0.0
  0
LINE
  8
0
 62
     0
 10
14.2751
 20
25.061
 30
0.0
 11
16.0004
 21
25.061
 31
0.0
  0
LINE
  8
0
 62
     0
 10
16.0004
 20
25.061
 30
0.0
 11
16.0004
 21
29.53
 31
0.0
  0
LINE
  8
0
 62
     0
 10
16.0004
 20
29.53
 30
0.0
 11
17.5259
 21
29.53
 31
0.0
  0
LINE
  8
0
 62
     0
 10
17.5259
 20
29.53
 30
0.0
 11
17.5259
 21
24.8309
 31
0.0
  0
LINE
  8
0
 62
     0
 10
17.5259
 20
24.8309
 30
0.0
 11
31.5254
 21
24.8309
 31
0.0
  0
LINE
  8
0
 62
     0
 10
31.5254
 20
24.8309
 30
0.0
 11
31.5254
 21
29.53
 31
0.0
  0
LINE
  8
0
 62
     0
 10
31.5254
 20
29.53
 30
0.0
 11
33.0509
 21
29.53
 31
0.0
  0
LINE
  8
0
 62
     0
 10
33.0509
 20
29.53
 30
0.0
 11
33.0509
 21
25.061
 31
0.0
  0
LINE
  8
0
 62
     0
 10
33.0509
 20
25.061
 30
0.0
 11
34.7762
 21
25.061
 31
0.0
  0
LINE
  8
0
 62
     0
 10
34.7762
 20
25.061
 30
0.0
 11
34.7762
 21
24.0798
 31
0.0
  0
LINE
  8
0
 62
     0
 10
34.7762
 20
24.0798
 30
0.0
 11
38.0753
 21
24.0798
 31
0.0
  0
LINE
  8
0
 62
     0
 10
38.0753
 20
24.0798
 30
0.0
 11
38.0753
 21
25.061
 31
0.0
  0
LINE
  8
0
 62
     0
 10
38.0753
 20
25.061
 30
0.0
 11
39.8004
 21
25.061
 31
0.0
  0
LINE
  8
0
 62
     0
 10
39.8004
 20
25.061
 30
0.0
 11
39.8004
 21
31.3311
 31
0.0
  0
LINE
  8
0
 62
     0
 10
39.8004
 20
31.3311
 30
0.0
 11
40.6259
 21
31.3311
 31
0.0
  0
LINE
  8
0
 62
     0
 10
40.6259
 20
31.3311
 30
0.0
 11
40.6259
 21
34.1299
 31
0.0
  0
LINE
  8
0
 62
     0
 10
40.6259
 20
34.1299
 30
0.0
 11
39.8004
 21
34.1299
 31
0.0
  0
LINE
  8
0
 62
     0
 10
39.8004
 20
34.1299
 30
0.0
 11
39.8004
 21
37.3599
 31
0.0
  0
LINE
  8
0
 62
     0
 10
39.8004
 20
37.3599
 30
0.0
 11
38.0753
 21
37.3599
 31
0.0
  0
LINE
  8
0
 62
     0
 10
38.0753
 20
37.3599
 30
0.0
 11
38.0753
 21
38.2806
 31
0.0
  0
LINE
  8
0
 62
     0
 10
38.0753
 20
38.2806
 30
0.0
 11
34.7762
 21
38.2806
 31
0.0
  0
LINE
  8
0
 62
     0
 10
34.7762
 20
38.2806
 30
0.0
 11
34.7762
 21
37.3599
 31
0.0
  0
LINE
  8
0
 62
     0
 10
34.7762
 20
37.3599
 30
0.0
 11
33.0509
 21
37.3599
 31
0.0
  0
LINE
  8
0
 62
     0
 10
33.0509
 20
37.3599
 30
0.0
 11
33.0509
 21
34.1299
 31
0.0
  0
LINE
  8
0
 62
     0
 10
33.0509
 20
34.1299
 30
0.0
 11
31.5254
 21
34.1299
 31
0.0
  0
LINE
  8
0
 62
     0
 10
31.5254
 20
34.1299
 30
0.0
 11
31.5254
 21
38.8303
 31
0.0
  0
LINE
  8
0
 62
     0
 10
31.5254
 20
38.8303
 30
0.0
 11
17.5259
 21
38.8303
 31
0.0
  0
LINE
  8
0
 62
     0
 10
250.887
 20
38.8303
 30
0.0
 11
250.887
 21
34.1299
 31
0.0
  0
LINE
  8
0
 62
     0
 10
250.887
 20
34.1299
 30
0.0
 11
249.363
 21
34.1299
 31
0.0
  0
LINE
  8
0
 62
     0
 10
249.363
 20
34.1299
 30
0.0
 11
249.363
 21
37.3599
 31
0.0
  0
LINE
  8
0
 62
     0
 10
249.363
 20
37.3599
 30
0.0
 11
247.638
 21
37.3599
 31
0.0
  0
LINE
  8
0
 62
     0
 10
247.638
 20
37.3599
 30
0.0
 11
247.638
 21
38.2806
 31
0.0
  0
LINE
  8
0
 62
     0
 10
247.638
 20
38.2806
 30
0.0
 11
244.337
 21
38.2806
 31
0.0
  0
LINE
  8
0
 62
     0
 10
244.337
 20
38.2806
 30
0.0
 11
244.337
 21
37.3599
 31
0.0
  0
LINE
  8
0
 62
     0
 10
244.337
 20
37.3599
 30
0.0
 11
242.612
 21
37.3599
 31
0.0
  0
LINE
  8
0
 62
     0
 10
242.612
 20
37.3599
 30
0.0
 11
242.612
 21
34.1299
 31
0.0
  0
LINE
  8
0
 62
     0
 10
242.612
 20
34.1299
 30
0.0
 11
241.788
 21
34.1299
 31
0.0
  0
LINE
  8
0
 62
     0
 10
241.788
 20
34.1299
 30
0.0
 11
241.788
 21
31.3311
 31
0.0
  0
LINE
  8
0
 62
     0
 10
241.788
 20
31.3311
 30
0.0
 11
242.612
 21
31.3311
 31
0.0
  0
LINE
  8
0
 62
     0
 10
242.612
 20
31.3311
 30
0.0
 11
242.612
 21
25.061
 31
0.0
  0
LINE
  8
0
 62
     0
 10
242.612
 20
25.061
 30
0.0
 11
244.337
 21
25.061
 31
0.0
  0
LINE
  8
0
 62
     0
 10
244.337
 20
25.061
 30
0.0
 11
244.337
 21
24.0798
 31
0.0
  0
LINE
  8
0
 62
     0
 10
244.337
 20
24.0798
 30
0.0
 11
247.638
 21
24.0798
 31
0.0
  0
LINE
  8
0
 62
     0
 10
247.638
 20
24.0798
 30
0.0
 11
247.638
 21
25.061
 31
0.0
  0
LINE
  8
0
 62
     0
 10
247.638
 20
25.061
 30
0.0
 11
249.363
 21
25.061
 31
0.0
  0
LINE
  8
0
 62
     0
 10
249.363
 20
25.061
 30
0.0
 11
249.363
 21
29.53
 31
0.0
  0
LINE
  8
0
 62
     0
 10
249.363
 20
29.53
 30
0.0
 11
250.887
 21
29.53
 31
0.0
  0
LINE
  8
0
 62
     0
 10
250.887
 20
29.53
 30
0.0
 11
250.887
 21
24.8309
 31
0.0
  0
LINE
  8
0
 62
     0
 10
250.887
 20
24.8309
 30
0.0
 11
264.888
 21
24.8309
 31
0.0
  0
LINE
  8
0
 62
     0
 10
264.888
 20
24.8309
 30
0.0
 11
264.888
 21
29.53
 31
0.0
  0
LINE
  8
0
 62
     0
 10
264.888
 20
29.53
 30
0.0
 11
266.412
 21
29.53
 31
0.0
  0
LINE
  8
0
 62
     0
 10
266.412
 20
29.53
 30
0.0
 11
266.412
 21
25.061
 31
0.0
  0
LINE
  8
0
 62
     0
 10
266.412
 20
25.061
 30
0.0
 11
268.137
 21
25.061
 31
0.0
  0
LINE
  8
0
 62
     0
 10
268.137
 20
25.061
 30
0.0
 11
268.137
 21
24.0798
 31
0.0
  0
LINE
  8
0
 62
     0
 10
268.137
 20
24.0798
 30
0.0
 11
271.438
 21
24.0798
 31
0.0
  0
LINE
  8
0
 62
     0
 10
271.438
 20
24.0798
 30
0.0
 11
271.438
 21
25.061
 31
0.0
  0
LINE
  8
0
 62
     0
 10
271.438
 20
25.061
 30
0.0
 11
273.163
 21
25.061
 31
0.0
  0
LINE
  8
0
 62
     0
 10
273.163
 20
25.061
 30
0.0
 11
273.163
 21
31.3311
 31
0.0
  0
LINE
  8
0
 62
     0
 10
273.163
 20
31.3311
 30
0.0
 11
273.987
 21
31.3311
 31
0.0
  0
LINE
  8
0
 62
     0
 10
273.987
 20
31.3311
 30
0.0
 11
273.987
 21
34.1299
 31
0.0
  0
LINE
  8
0
 62
     0
 10
273.987
 20
34.1299
 30
0.0
 11
273.163
 21
34.1299
 31
0.0
  0
LINE
  8
0
 62
     0
 10
273.163
 20
34.1299
 30
0.0
 11
273.163
 21
37.3599
 31
0.0
  0
LINE
  8
0
 62
     0
 10
273.163
 20
37.3599
 30
0.0
 11
271.438
 21
37.3599
 31
0.0
  0
LINE
  8
0
 62
     0
 10
271.438
 20
37.3599
 30
0.0
 11
271.438
 21
38.2806
 31
0.0
  0
LINE
  8
0
 62
     0
 10
271.438
 20
38.2806
 30
0.0
 11
268.137
 21
38.2806
 31
0.0
  0
LINE
  8
0
 62
     0
 10
268.137
 20
38.2806
 30
0.0
 11
268.137
 21
37.3599
 31
0.0
  0
LINE
  8
0
 62
     0
 10
268.137
 20
37.3599
 30
0.0
 11
266.412
 21
37.3599
 31
0.0
  0
LINE
  8
0
 62
     0
 10
266.412
 20
37.3599
 30
0.0
 11
266.412
 21
34.1299
 31
0.0
  0
LINE
  8
0
 62
     0
 10
266.412
 20
34.1299
 30
0.0
 11
264.888
 21
34.1299
 31
0.0
  0
LINE
  8
0
 62
     0
 10
264.888
 20
34.1299
 30
0.0
 11
264.888
 21
38.8303
 31
0.0
  0
LINE
  8
0
 62
     0
 10
264.888
 20
38.8303
 30
0.0
 11
250.887
 21
38.8303
 31
0.0
  0
LINE
  8
0
 62
     0
 10
48.4822
 20
38.8303
 30
0.0
 11
62.4815
 21
38.8303
 31
0.0
  0
LINE
  8
0
 62
     0
 10
62.4815
 20
38.8303
 30
0.0
 11
62.4815
 21
24.8309
 31
0.0
  0
LINE
  8
0
 62
     0
 10
62.4815
 20
24.8309
 30
0.0
 11
48.4822
 21
24.8309
 31
0.0
  0
LINE
  8
0
 62
     0
 10
48.4822
 20
24.8309
 30
0.0
 11
48.4822
 21
38.8303
 31
0.0
  0
LINE
  8
0
 62
     0
 10
67.5322
 20
38.8303
 30
0.0
 11
81.5315
 21
38.8303
 31
0.0
  0
LINE
  8
0
 62
     0
 10
81.5315
 20
38.8303
 30
0.0
 11
81.5315
 21
24.8309
 31
0.0
  0
LINE
  8
0
 62
     0
 10
81.5315
 20
24.8309
 30
0.0
 11
67.5322
 21
24.8309
 31
0.0
  0
LINE
  8
0
 62
     0
 10
67.5322
 20
24.8309
 30
0.0
 11
67.5322
 21
38.8303
 31
0.0
  0
LINE
  8
0
 62
     0
 10
86.5822
 20
38.8303
 30
0.0
 11
100.582
 21
38.8303
 31
0.0
  0
LINE
  8
0
 62
     0
 10
100.582
 20
38.8303
 30
0.0
 11
100.582
 21
24.8309
 31
0.0
  0
LINE
  8
0
 62
     0
 10
100.582
 20
24.8309
 30
0.0
 11
86.5822
 21
24.8309
 31
0.0
  0
LINE
  8
0
 62
     0
 10
86.5822
 20
24.8309
 30
0.0
 11
86.5822
 21
38.8303
 31
0.0
  0
LINE
  8
0
 62
     0
 10
105.632
 20
38.8303
 30
0.0
 11
119.632
 21
38.8303
 31
0.0
  0
LINE
  8
0
 62
     0
 10
119.632
 20
38.8303
 30
0.0
 11
119.632
 21
24.8309
 31
0.0
  0
LINE
  8
0
 62
     0
 10
119.632
 20
24.8309
 30
0.0
 11
105.632
 21
24.8309
 31
0.0
  0
LINE
  8
0
 62
     0
 10
105.632
 20
24.8309
 30
0.0
 11
105.632
 21
38.8303
 31
0.0
  0
LINE
  8
0
 62
     0
 10
124.681
 20
38.8303
 30
0.0
 11
138.682
 21
38.8303
 31
0.0
  0
LINE
  8
0
 62
     0
 10
138.682
 20
38.8303
 30
0.0
 11
138.682
 21
24.8309
 31
0.0
  0
LINE
  8
0
 62
     0
 10
138.682
 20
24.8309
 30
0.0
 11
124.681
 21
24.8309
 31
0.0
  0
LINE
  8
0
 62
     0
 10
124.681
 20
24.8309
 30
0.0
 11
124.681
 21
38.8303
 31
0.0
  0
LINE
  8
0
 62
     0
 10
143.732
 20
38.8303
 30
0.0
 11
157.732
 21
38.8303
 31
0.0
  0
LINE
  8
0
 62
     0
 10
157.732
 20
38.8303
 30
0.0
 11
157.732
 21
24.8309
 31
0.0
  0
LINE
  8
0
 62
     0
 10
157.732
 20
24.8309
 30
0.0
 11
143.732
 21
24.8309
 31
0.0
  0
LINE
  8
0
 62
     0
 10
143.732
 20
24.8309
 30
0.0
 11
143.732
 21
38.8303
 31
0.0
  0
LINE
  8
0
 62
     0
 10
162.782
 20
38.8303
 30
0.0
 11
176.782
 21
38.8303
 31
0.0
  0
LINE
  8
0
 62
     0
 10
176.782
 20
38.8303
 30
0.0
 11
176.782
 21
24.8309
 31
0.0
  0
LINE
  8
0
 62
     0
 10
176.782
 20
24.8309
 30
0.0
 11
162.782
 21
24.8309
 31
0.0
  0
LINE
  8
0
 62
     0
 10
162.782
 20
24.8309
 30
0.0
 11
162.782
 21
38.8303
 31
0.0
  0
LINE
  8
0
 62
     0
 10
181.832
 20
38.8303
 30
0.0
 11
195.832
 21
38.8303
 31
0.0
  0
LINE
  8
0
 62
     0
 10
195.832
 20
38.8303
 30
0.0
 11
195.832
 21
24.8309
 31
0.0
  0
LINE
  8
0
 62
     0
 10
195.832
 20
24.8309
 30
0.0
 11
181.832
 21
24.8309
 31
0.0
  0
LINE
  8
0
 62
     0
 10
181.832
 20
24.8309
 30
0.0
 11
181.832
 21
38.8303
 31
0.0
  0
LINE
  8
0
 62
     0
 10
200.882
 20
38.8303
 30
0.0
 11
214.882
 21
38.8303
 31
0.0
  0
LINE
  8
0
 62
     0
 10
214.882
 20
38.8303
 30
0.0
 11
214.882
 21
24.8309
 31
0.0
  0
LINE
  8
0
 62
     0
 10
214.882
 20
24.8309
 30
0.0
 11
200.882
 21
24.8309
 31
0.0
  0
LINE
  8
0
 62
     0
 10
200.882
 20
24.8309
 30
0.0
 11
200.882
 21
38.8303
 31
0.0
  0
LINE
  8
0
 62
     0
 10
219.932
 20
38.8303
 30
0.0
 11
233.932
 21
38.8303
 31
0.0
  0
LINE
  8
0
 62
     0
 10
233.932
 20
38.8303
 30
0.0
 11
233.932
 21
24.8309
 31
0.0
  0
LINE
  8
0
 62
     0
 10
233.932
 20
24.8309
 30
0.0
 11
219.932
 21
24.8309
 31
0.0
  0
LINE
  8
0
 62
     0
 10
219.932
 20
24.8309
 30
0.0
 11
219.932
 21
38.8303
 31
0.0
  0
LINE
  8
0
 62
     0
 10
281.845
 20
38.8303
 30
0.0
 11
295.844
 21
38.8303
 31
0.0
  0
LINE
  8
0
 62
     0
 10
295.844
 20
38.8303
 30
0.0
 11
295.844
 21
24.8309
 31
0.0
  0
LINE
  8
0
 62
     0
 10
295.844
 20
24.8309
 30
0.0
 11
281.845
 21
24.8309
 31
0.0
  0
LINE
  8
0
 62
     0
 10
281.845
 20
24.8309
 30
0.0
 11
281.845
 21
38.8303
 31
0.0
  0
LINE
  8
0
 62
     0
 10
260.412
 20
57.8803
 30
0.0
 11
260.412
 21
53.1798
 31
0.0
  0
LINE
  8
0
 62
     0
 10
260.412
 20
53.1798
 30
0.0
 11
258.888
 21
53.1798
 31
0.0
  0
LINE
  8
0
 62
     0
 10
258.888
 20
53.1798
 30
0.0
 11
258.888
 21
56.4099
 31
0.0
  0
LINE
  8
0
 62
     0
 10
258.888
 20
56.4099
 30
0.0
 11
257.161
 21
56.4099
 31
0.0
  0
LINE
  8
0
 62
     0
 10
257.161
 20
56.4099
 30
0.0
 11
257.161
 21
57.3306
 31
0.0
  0
LINE
  8
0
 62
     0
 10
257.161
 20
57.3306
 30
0.0
 11
253.861
 21
57.3306
 31
0.0
  0
LINE
  8
0
 62
     0
 10
253.861
 20
57.3306
 30
0.0
 11
253.861
 21
56.4099
 31
0.0
  0
LINE
  8
0
 62
     0
 10
253.861
 20
56.4099
 30
0.0
 11
252.137
 21
56.4099
 31
0.0
  0
LINE
  8
0
 62
     0
 10
252.137
 20
56.4099
 30
0.0
 11
252.137
 21
53.1798
 31
0.0
  0
LINE
  8
0
 62
     0
 10
252.137
 20
53.1798
 30
0.0
 11
251.313
 21
53.1798
 31
0.0
  0
LINE
  8
0
 62
     0
 10
251.313
 20
53.1798
 30
0.0
 11
251.313
 21
50.3813
 31
0.0
  0
LINE
  8
0
 62
     0
 10
251.313
 20
50.3813
 30
0.0
 11
252.137
 21
50.3813
 31
0.0
  0
LINE
  8
0
 62
     0
 10
252.137
 20
50.3813
 30
0.0
 11
252.137
 21
44.111
 31
0.0
  0
LINE
  8
0
 62
     0
 10
252.137
 20
44.111
 30
0.0
 11
253.861
 21
44.111
 31
0.0
  0
LINE
  8
0
 62
     0
 10
253.861
 20
44.111
 30
0.0
 11
253.861
 21
43.1299
 31
0.0
  0
LINE
  8
0
 62
     0
 10
253.861
 20
43.1299
 30
0.0
 11
257.161
 21
43.1299
 31
0.0
  0
LINE
  8
0
 62
     0
 10
257.161
 20
43.1299
 30
0.0
 11
257.161
 21
44.111
 31
0.0
  0
LINE
  8
0
 62
     0
 10
257.161
 20
44.111
 30
0.0
 11
258.888
 21
44.111
 31
0.0
  0
LINE
  8
0
 62
     0
 10
258.888
 20
44.111
 30
0.0
 11
258.888
 21
48.58
 31
0.0
  0
LINE
  8
0
 62
     0
 10
258.888
 20
48.58
 30
0.0
 11
260.412
 21
48.58
 31
0.0
  0
LINE
  8
0
 62
     0
 10
260.412
 20
48.58
 30
0.0
 11
260.412
 21
43.881
 31
0.0
  0
LINE
  8
0
 62
     0
 10
260.412
 20
43.881
 30
0.0
 11
274.413
 21
43.881
 31
0.0
  0
LINE
  8
0
 62
     0
 10
274.413
 20
43.881
 30
0.0
 11
274.413
 21
48.58
 31
0.0
  0
LINE
  8
0
 62
     0
 10
274.413
 20
48.58
 30
0.0
 11
275.937
 21
48.58
 31
0.0
  0
LINE
  8
0
 62
     0
 10
275.937
 20
48.58
 30
0.0
 11
275.937
 21
44.111
 31
0.0
  0
LINE
  8
0
 62
     0
 10
275.937
 20
44.111
 30
0.0
 11
277.662
 21
44.111
 31
0.0
  0
LINE
  8
0
 62
     0
 10
277.662
 20
44.111
 30
0.0
 11
277.662
 21
43.1299
 31
0.0
  0
LINE
  8
0
 62
     0
 10
277.662
 20
43.1299
 30
0.0
 11
280.963
 21
43.1299
 31
0.0
  0
LINE
  8
0
 62
     0
 10
280.963
 20
43.1299
 30
0.0
 11
280.963
 21
44.111
 31
0.0
  0
LINE
  8
0
 62
     0
 10
280.963
 20
44.111
 30
0.0
 11
282.688
 21
44.111
 31
0.0
  0
LINE
  8
0
 62
     0
 10
282.688
 20
44.111
 30
0.0
 11
282.688
 21
50.3813
 31
0.0
  0
LINE
  8
0
 62
     0
 10
282.688
 20
50.3813
 30
0.0
 11
283.512
 21
50.3813
 31
0.0
  0
LINE
  8
0
 62
     0
 10
283.512
 20
50.3813
 30
0.0
 11
283.512
 21
53.1798
 31
0.0
  0
LINE
  8
0
 62
     0
 10
283.512
 20
53.1798
 30
0.0
 11
282.688
 21
53.1798
 31
0.0
  0
LINE
  8
0
 62
     0
 10
282.688
 20
53.1798
 30
0.0
 11
282.688
 21
56.4099
 31
0.0
  0
LINE
  8
0
 62
     0
 10
282.688
 20
56.4099
 30
0.0
 11
280.963
 21
56.4099
 31
0.0
  0
LINE
  8
0
 62
     0
 10
280.963
 20
56.4099
 30
0.0
 11
280.963
 21
57.3306
 31
0.0
  0
LINE
  8
0
 62
     0
 10
280.963
 20
57.3306
 30
0.0
 11
277.662
 21
57.3306
 31
0.0
  0
LINE
  8
0
 62
     0
 10
277.662
 20
57.3306
 30
0.0
 11
277.662
 21
56.4099
 31
0.0
  0
LINE
  8
0
 62
     0
 10
277.662
 20
56.4099
 30
0.0
 11
275.937
 21
56.4099
 31
0.0
  0
LINE
  8
0
 62
     0
 10
275.937
 20
56.4099
 30
0.0
 11
275.937
 21
53.1798
 31
0.0
  0
LINE
  8
0
 62
     0
 10
275.937
 20
53.1798
 30
0.0
 11
274.413
 21
53.1798
 31
0.0
  0
LINE
  8
0
 62
     0
 10
274.413
 20
53.1798
 30
0.0
 11
274.413
 21
57.8803
 31
0.0
  0
LINE
  8
0
 62
     0
 10
274.413
 20
57.8803
 30
0.0
 11
260.412
 21
57.8803
 31
0.0
  0
LINE
  8
0
 62
     0
 10
12.762
 20
57.8803
 30
0.0
 11
26.7629
 21
57.8803
 31
0.0
  0
LINE
  8
0
 62
     0
 10
26.7629
 20
57.8803
 30
0.0
 11
26.7629
 21
43.881
 31
0.0
  0
LINE
  8
0
 62
     0
 10
26.7629
 20
43.881
 30
0.0
 11
12.762
 21
43.881
 31
0.0
  0
LINE
  8
0
 62
     0
 10
12.762
 20
43.881
 30
0.0
 11
12.762
 21
57.8803
 31
0.0
  0
LINE
  8
0
 62
     0
 10
38.9573
 20
57.8803
 30
0.0
 11
52.9565
 21
57.8803
 31
0.0
  0
LINE
  8
0
 62
     0
 10
52.9565
 20
57.8803
 30
0.0
 11
52.9565
 21
43.881
 31
0.0
  0
LINE
  8
0
 62
     0
 10
52.9565
 20
43.881
 30
0.0
 11
38.9573
 21
43.881
 31
0.0
  0
LINE
  8
0
 62
     0
 10
38.9573
 20
43.881
 30
0.0
 11
38.9573
 21
57.8803
 31
0.0
  0
LINE
  8
0
 62
     0
 10
58.0072
 20
57.8803
 30
0.0
 11
72.0065
 21
57.8803
 31
0.0
  0
LINE
  8
0
 62
     0
 10
72.0065
 20
57.8803
 30
0.0
 11
72.0065
 21
43.881
 31
0.0
  0
LINE
  8
0
 62
     0
 10
72.0065
 20
43.881
 30
0.0
 11
58.0072
 21
43.881
 31
0.0
  0
LINE
  8
0
 62
     0
 10
58.0072
 20
43.881
 30
0.0
 11
58.0072
 21
57.8803
 31
0.0
  0
LINE
  8
0
 62
     0
 10
77.0572
 20
57.8803
 30
0.0
 11
91.0565
 21
57.8803
 31
0.0
  0
LINE
  8
0
 62
     0
 10
91.0565
 20
57.8803
 30
0.0
 11
91.0565
 21
43.881
 31
0.0
  0
LINE
  8
0
 62
     0
 10
91.0565
 20
43.881
 30
0.0
 11
77.0572
 21
43.881
 31
0.0
  0
LINE
  8
0
 62
     0
 10
77.0572
 20
43.881
 30
0.0
 11
77.0572
 21
57.8803
 31
0.0
  0
LINE
  8
0
 62
     0
 10
96.1072
 20
57.8803
 30
0.0
 11
110.107
 21
57.8803
 31
0.0
  0
LINE
  8
0
 62
     0
 10
110.107
 20
57.8803
 30
0.0
 11
110.107
 21
43.881
 31
0.0
  0
LINE
  8
0
 62
     0
 10
110.107
 20
43.881
 30
0.0
 11
96.1072
 21
43.881
 31
0.0
  0
LINE
  8
0
 62
     0
 10
96.1072
 20
43.881
 30
0.0
 11
96.1072
 21
57.8803
 31
0.0
  0
LINE
  8
0
 62
     0
 10
115.157
 20
57.8803
 30
0.0
 11
129.157
 21
57.8803
 31
0.0
  0
LINE
  8
0
 62
     0
 10
129.157
 20
57.8803
 30
0.0
 11
129.157
 21
43.881
 31
0.0
  0
LINE
  8
0
 62
     0
 10
129.157
 20
43.881
 30
0.0
 11
115.157
 21
43.881
 31
0.0
  0
LINE
  8
0
 62
     0
 10
115.157
 20
43.881
 30
0.0
 11
115.157
 21
57.8803
 31
0.0
  0
LINE
  8
0
 62
     0
 10
134.207
 20
57.8803
 30
0.0
 11
148.207
 21
57.8803
 31
0.0
  0
LINE
  8
0
 62
     0
 10
148.207
 20
57.8803
 30
0.0
 11
148.207
 21
43.881
 31
0.0
  0
LINE
  8
0
 62
     0
 10
148.207
 20
43.881
 30
0.0
 11
134.207
 21
43.881
 31
0.0
  0
LINE
  8
0
 62
     0
 10
134.207
 20
43.881
 30
0.0
 11
134.207
 21
57.8803
 31
0.0
  0
LINE
  8
0
 62
     0
 10
153.257
 20
57.8803
 30
0.0
 11
167.257
 21
57.8803
 31
0.0
  0
LINE
  8
0
 62
     0
 10
167.257
 20
57.8803
 30
0.0
 11
167.257
 21
43.881
 31
0.0
  0
LINE
  8
0
 62
     0
 10
167.257
 20
43.881
 30
0.0
 11
153.257
 21
43.881
 31
0.0
  0
LINE
  8
0
 62
     0
 10
153.257
 20
43.881
 30
0.0
 11
153.257
 21
57.8803
 31
0.0
  0
LINE
  8
0
 62
     0
 10
172.307
 20
57.8803
 30
0.0
 11
186.307
 21
57.8803
 31
0.0
  0
LINE
  8
0
 62
     0
 10
186.307
 20
57.8803
 30
0.0
 11
186.307
 21
43.881
 31
0.0
  0
LINE
  8
0
 62
     0
 10
186.307
 20
43.881
 30
0.0
 11
172.307
 21
43.881
 31
0.0
  0
LINE
  8
0
 62
     0
 10
172.307
 20
43.881
 30
0.0
 11
172.307
 21
57.8803
 31
0.0
  0
LINE
  8
0
 62
     0
 10
191.357
 20
57.8803
 30
0.0
 11
205.357
 21
57.8803
 31
0.0
  0
LINE
  8
0
 62
     0
 10
205.357
 20
57.8803
 30
0.0
 11
205.357
 21
43.881
 31
0.0
  0
LINE
  8
0
 62
     0
 10
205.357
 20
43.881
 30
0.0
 11
191.357
 21
43.881
 31
0.0
  0
LINE
  8
0
 62
     0
 10
191.357
 20
43.881
 30
0.0
 11
191.357
 21
57.8803
 31
0.0
  0
LINE
  8
0
 62
     0
 10
210.407
 20
57.8803
 30
0.0
 11
224.407
 21
57.8803
 31
0.0
  0
LINE
  8
0
 62
     0
 10
224.407
 20
57.8803
 30
0.0
 11
224.407
 21
43.881
 31
0.0
  0
LINE
  8
0
 62
     0
 10
224.407
 20
43.881
 30
0.0
 11
210.407
 21
43.881
 31
0.0
  0
LINE
  8
0
 62
     0
 10
210.407
 20
43.881
 30
0.0
 11
210.407
 21
57.8803
 31
0.0
  0
LINE
  8
0
 62
     0
 10
229.457
 20
57.8803
 30
0.0
 11
243.457
 21
57.8803
 31
0.0
  0
LINE
  8
0
 62
     0
 10
243.457
 20
57.8803
 30
0.0
 11
243.457
 21
43.881
 31
0.0
  0
LINE
  8
0
 62
     0
 10
243.457
 20
43.881
 30
0.0
 11
229.457
 21
43.881
 31
0.0
  0
LINE
  8
0
 62
     0
 10
229.457
 20
43.881
 30
0.0
 11
229.457
 21
57.8803
 31
0.0
  0
LINE
  8
0
 62
     0
 10
10.3821
 20
76.9303
 30
0.0
 11
24.3816
 21
76.9303
 31
0.0
  0
LINE
  8
0
 62
     0
 10
24.3816
 20
76.9303
 30
0.0
 11
24.3816
 21
62.931
 31
0.0
  0
LINE
  8
0
 62
     0
 10
24.3816
 20
62.931
 30
0.0
 11
10.3821
 21
62.931
 31
0.0
  0
LINE
  8
0
 62
     0
 10
10.3821
 20
62.931
 30
0.0
 11
10.3821
 21
76.9303
 31
0.0
  0
LINE
  8
0
 62
     0
 10
34.1946
 20
76.9303
 30
0.0
 11
48.194
 21
76.9303
 31
0.0
  0
LINE
  8
0
 62
     0
 10
48.194
 20
76.9303
 30
0.0
 11
48.194
 21
62.931
 31
0.0
  0
LINE
  8
0
 62
     0
 10
48.194
 20
62.931
 30
0.0
 11
34.1946
 21
62.931
 31
0.0
  0
LINE
  8
0
 62
     0
 10
34.1946
 20
62.931
 30
0.0
 11
34.1946
 21
76.9303
 31
0.0
  0
LINE
  8
0
 62
     0
 10
53.2447
 20
76.9303
 30
0.0
 11
67.244
 21
76.9303
 31
0.0
  0
LINE
  8
0
 62
     0
 10
67.244
 20
76.9303
 30
0.0
 11
67.244
 21
62.931
 31
0.0
  0
LINE
  8
0
 62
     0
 10
67.244
 20
62.931
 30
0.0
 11
53.2447
 21
62.931
 31
0.0
  0
LINE
  8
0
 62
     0
 10
53.2447
 20
62.931
 30
0.0
 11
53.2447
 21
76.9303
 31
0.0
  0
LINE
  8
0
 62
     0
 10
72.2947
 20
76.9303
 30
0.0
 11
86.294
 21
76.9303
 31
0.0
  0
LINE
  8
0
 62
     0
 10
86.294
 20
76.9303
 30
0.0
 11
86.294
 21
62.931
 31
0.0
  0
LINE
  8
0
 62
     0
 10
86.294
 20
62.931
 30
0.0
 11
72.2947
 21
62.931
 31
0.0
  0
LINE
  8
0
 62
     0
 10
72.2947
 20
62.931
 30
0.0
 11
72.2947
 21
76.9303
 31
0.0
  0
LINE
  8
0
 62
     0
 10
91.3447
 20
76.9303
 30
0.0
 11
105.344
 21
76.9303
 31
0.0
  0
LINE
  8
0
 62
     0
 10
105.344
 20
76.9303
 30
0.0
 11
105.344
 21
62.931
 31
0.0
  0
LINE
  8
0
 62
     0
 10
105.344
 20
62.931
 30
0.0
 11
91.3447
 21
62.931
 31
0.0
  0
LINE
  8
0
 62
     0
 10
91.3447
 20
62.931
 30
0.0
 11
91.3447
 21
76.9303
 31
0.0
  0
LINE
  8
0
 62
     0
 10
110.395
 20
76.9303
 30
0.0
 11
124.394
 21
76.9303
 31
0.0
  0
LINE
  8
0
 62
     0
 10
124.394
 20
76.9303
 30
0.0
 11
124.394
 21
62.931
 31
0.0
  0
LINE
  8
0
 62
     0
 10
124.394
 20
62.931
 30
0.0
 11
110.395
 21
62.931
 31
0.0
  0
LINE
  8
0
 62
     0
 10
110.395
 20
62.931
 30
0.0
 11
110.395
 21
76.9303
 31
0.0
  0
LINE
  8
0
 62
     0
 10
129.445
 20
76.9303
 30
0.0
 11
143.444
 21
76.9303
 31
0.0
  0
LINE
  8
0
 62
     0
 10
143.444
 20
76.9303
 30
0.0
 11
143.444
 21
62.931
 31
0.0
  0
LINE
  8
0
 62
     0
 10
143.444
 20
62.931
 30
0.0
 11
129.445
 21
62.931
 31
0.0
  0
LINE
  8
0
 62
     0
 10
129.445
 20
62.931
 30
0.0
 11
129.445
 21
76.9303
 31
0.0
  0
LINE
  8
0
 62
     0
 10
148.495
 20
76.9303
 30
0.0
 11
162.494
 21
76.9303
 31
0.0
  0
LINE
  8
0
 62
     0
 10
162.494
 20
76.9303
 30
0.0
 11
162.494
 21
62.931
 31
0.0
  0
LINE
  8
0
 62
     0
 10
162.494
 20
62.931
 30
0.0
 11
148.495
 21
62.931
 31
0.0
  0
LINE
  8
0
 62
     0
 10
148.495
 20
62.931
 30
0.0
 11
148.495
 21
76.9303
 31
0.0
  0
LINE
  8
0
 62
     0
 10
167.545
 20
76.9303
 30
0.0
 11
181.544
 21
76.9303
 31
0.0
  0
LINE
  8
0
 62
     0
 10
181.544
 20
76.9303
 30
0.0
 11
181.544
 21
62.931
 31
0.0
  0
LINE
  8
0
 62
     0
 10
181.544
 20
62.931
 30
0.0
 11
167.545
 21
62.931
 31
0.0
  0
LINE
  8
0
 62
     0
 10
167.545
 20
62.931
 30
0.0
 11
167.545
 21
76.9303
 31
0.0
  0
LINE
  8
0
 62
     0
 10
186.595
 20
76.9303
 30
0.0
 11
200.594
 21
76.9303
 31
0.0
  0
LINE
  8
0
 62
     0
 10
200.594
 20
76.9303
 30
0.0
 11
200.594
 21
62.931
 31
0.0
  0
LINE
  8
0
 62
     0
 10
200.594
 20
62.931
 30
0.0
 11
186.595
 21
62.931
 31
0.0
  0
LINE
  8
0
 62
     0
 10
186.595
 20
62.931
 30
0.0
 11
186.595
 21
76.9303
 31
0.0
  0
LINE
  8
0
 62
     0
 10
205.645
 20
76.9303
 30
0.0
 11
219.644
 21
76.9303
 31
0.0
  0
LINE
  8
0
 62
     0
 10
219.644
 20
76.9303
 30
0.0
 11
219.644
 21
62.931
 31
0.0
  0
LINE
  8
0
 62
     0
 10
219.644
 20
62.931
 30
0.0
 11
205.645
 21
62.931
 31
0.0
  0
LINE
  8
0
 62
     0
 10
205.645
 20
62.931
 30
0.0
 11
205.645
 21
76.9303
 31
0.0
  0
LINE
  8
0
 62
     0
 10
224.695
 20
76.9303
 30
0.0
 11
238.694
 21
76.9303
 31
0.0
  0
LINE
  8
0
 62
     0
 10
238.694
 20
76.9303
 30
0.0
 11
238.694
 21
62.931
 31
0.0
  0
LINE
  8
0
 62
     0
 10
238.694
 20
62.931
 30
0.0
 11
224.695
 21
62.931
 31
0.0
  0
LINE
  8
0
 62
     0
 10
224.695
 20
62.931
 30
0.0
 11
224.695
 21
76.9303
 31
0.0
  0
LINE
  8
0
 62
     0
 10
243.745
 20
76.9303
 30
0.0
 11
257.744
 21
76.9303
 31
0.0
  0
LINE
  8
0
 62
     0
 10
257.744
 20
76.9303
 30
0.0
 11
257.744
 21
62.931
 31
0.0
  0
LINE
  8
0
 62
     0
 10
257.744
 20
62.931
 30
0.0
 11
243.745
 21
62.931
 31
0.0
  0
LINE
  8
0
 62
     0
 10
243.745
 20
62.931
 30
0.0
 11
243.745
 21
76.9303
 31
0.0
  0
LINE
  8
0
 62
     0
 10
267.557
 20
76.9303
 30
0.0
 11
281.557
 21
76.9303
 31
0.0
  0
LINE
  8
0
 62
     0
 10
281.557
 20
76.9303
 30
0.0
 11
281.557
 21
62.931
 31
0.0
  0
LINE
  8
0
 62
     0
 10
281.557
 20
62.931
 30
0.0
 11
267.557
 21
62.931
 31
0.0
  0
LINE
  8
0
 62
     0
 10
267.557
 20
62.931
 30
0.0
 11
267.557
 21
76.9303
 31
0.0
  0
LINE
  8
0
 62
     0
 10
262.795
 20
95.9817
 30
0.0
 11
262.795
 21
91.2813
 31
0.0
  0
LINE
  8
0
 62
     0
 10
262.795
 20
91.2813
 30
0.0
 11
261.269
 21
91.2813
 31
0.0
  0
LINE
  8
0
 62
     0
 10
261.269
 20
91.2813
 30
0.0
 11
261.269
 21
94.5113
 31
0.0
  0
LINE
  8
0
 62
     0
 10
261.269
 20
94.5113
 30
0.0
 11
259.544
 21
94.5113
 31
0.0
  0
LINE
  8
0
 62
     0
 10
259.544
 20
94.5113
 30
0.0
 11
259.544
 21
95.4306
 31
0.0
  0
LINE
  8
0
 62
     0
 10
259.544
 20
95.4306
 30
0.0
 11
256.243
 21
95.4306
 31
0.0
  0
LINE
  8
0
 62
     0
 10
256.243
 20
95.4306
 30
0.0
 11
256.243
 21
94.5113
 31
0.0
  0
LINE
  8
0
 62
     0
 10
256.243
 20
94.5113
 30
0.0
 11
254.52
 21
94.5113
 31
0.0
  0
LINE
  8
0
 62
     0
 10
254.52
 20
94.5113
 30
0.0
 11
254.52
 21
91.2813
 31
0.0
  0
LINE
  8
0
 62
     0
 10
254.52
 20
91.2813
 30
0.0
 11
253.694
 21
91.2813
 31
0.0
  0
LINE
  8
0
 62
     0
 10
253.694
 20
91.2813
 30
0.0
 11
253.694
 21
88.4813
 31
0.0
  0
LINE
  8
0
 62
     0
 10
253.694
 20
88.4813
 30
0.0
 11
254.52
 21
88.4813
 31
0.0
  0
LINE
  8
0
 62
     0
 10
254.52
 20
88.4813
 30
0.0
 11
254.52
 21
82.211
 31
0.0
  0
LINE
  8
0
 62
     0
 10
254.52
 20
82.211
 30
0.0
 11
256.243
 21
82.211
 31
0.0
  0
LINE
  8
0
 62
     0
 10
256.243
 20
82.211
 30
0.0
 11
256.243
 21
81.2299
 31
0.0
  0
LINE
  8
0
 62
     0
 10
256.243
 20
81.2299
 30
0.0
 11
259.544
 21
81.2299
 31
0.0
  0
LINE
  8
0
 62
     0
 10
259.544
 20
81.2299
 30
0.0
 11
259.544
 21
82.211
 31
0.0
  0
LINE
  8
0
 62
     0
 10
259.544
 20
82.211
 30
0.0
 11
261.269
 21
82.211
 31
0.0
  0
LINE
  8
0
 62
     0
 10
261.269
 20
82.211
 30
0.0
 11
261.269
 21
86.68
 31
0.0
  0
LINE
  8
0
 62
     0
 10
261.269
 20
86.68
 30
0.0
 11
262.795
 21
86.68
 31
0.0
  0
LINE
  8
0
 62
     0
 10
262.795
 20
86.68
 30
0.0
 11
262.795
 21
81.981
 31
0.0
  0
LINE
  8
0
 62
     0
 10
262.795
 20
81.981
 30
0.0
 11
276.794
 21
81.981
 31
0.0
  0
LINE
  8
0
 62
     0
 10
276.794
 20
81.981
 30
0.0
 11
276.794
 21
86.68
 31
0.0
  0
LINE
  8
0
 62
     0
 10
276.794
 20
86.68
 30
0.0
 11
278.32
 21
86.68
 31
0.0
  0
LINE
  8
0
 62
     0
 10
278.32
 20
86.68
 30
0.0
 11
278.32
 21
82.211
 31
0.0
  0
LINE
  8
0
 62
     0
 10
278.32
 20
82.211
 30
0.0
 11
280.045
 21
82.211
 31
0.0
  0
LINE
  8
0
 62
     0
 10
280.045
 20
82.211
 30
0.0
 11
280.045
 21
81.2299
 31
0.0
  0
LINE
  8
0
 62
     0
 10
280.045
 20
81.2299
 30
0.0
 11
283.344
 21
81.2299
 31
0.0
  0
LINE
  8
0
 62
     0
 10
283.344
 20
81.2299
 30
0.0
 11
283.344
 21
82.211
 31
0.0
  0
LINE
  8
0
 62
     0
 10
283.344
 20
82.211
 30
0.0
 11
285.069
 21
82.211
 31
0.0
  0
LINE
  8
0
 62
     0
 10
285.069
 20
82.211
 30
0.0
 11
285.069
 21
88.4813
 31
0.0
  0
LINE
  8
0
 62
     0
 10
285.069
 20
88.4813
 30
0.0
 11
285.895
 21
88.4813
 31
0.0
  0
LINE
  8
0
 62
     0
 10
285.895
 20
88.4813
 30
0.0
 11
285.895
 21
91.2813
 31
0.0
  0
LINE
  8
0
 62
     0
 10
285.895
 20
91.2813
 30
0.0
 11
285.069
 21
91.2813
 31
0.0
  0
LINE
  8
0
 62
     0
 10
285.069
 20
91.2813
 30
0.0
 11
285.069
 21
94.5113
 31
0.0
  0
LINE
  8
0
 62
     0
 10
285.069
 20
94.5113
 30
0.0
 11
283.344
 21
94.5113
 31
0.0
  0
LINE
  8
0
 62
     0
 10
283.344
 20
94.5113
 30
0.0
 11
283.344
 21
95.4306
 31
0.0
  0
LINE
  8
0
 62
     0
 10
283.344
 20
95.4306
 30
0.0
 11
280.045
 21
95.4306
 31
0.0
  0
LINE
  8
0
 62
     0
 10
280.045
 20
95.4306
 30
0.0
 11
280.045
 21
94.5113
 31
0.0
  0
LINE
  8
0
 62
     0
 10
280.045
 20
94.5113
 30
0.0
 11
278.32
 21
94.5113
 31
0.0
  0
LINE
  8
0
 62
     0
 10
278.32
 20
94.5113
 30
0.0
 11
278.32
 21
91.2813
 31
0.0
  0
LINE
  8
0
 62
     0
 10
278.32
 20
91.2813
 30
0.0
 11
276.794
 21
91.2813
 31
0.0
  0
LINE
  8
0
 62
     0
 10
276.794
 20
91.2813
 30
0.0
 11
276.794
 21
95.9817
 31
0.0
  0
LINE
  8
0
 62
     0
 10
276.794
 20
95.9817
 30
0.0
 11
262.795
 21
95.9817
 31
0.0
  0
LINE
  8
0
 62
     0
 10
5.61827
 20
95.9817
 30
0.0
 11
19.6191
 21
95.9817
 31
0.0
  0
LINE
  8
0
 62
     0
 10
19.6191
 20
95.9817
 30
0.0
 11
19.6191
 21
81.981
 31
0.0
  0
LINE
  8
0
 62
     0
 10
19.6191
 20
81.981
 30
0.0
 11
5.61827
 21
81.981
 31
0.0
  0
LINE
  8
0
 62
     0
 10
5.61827
 20
81.981
 30
0.0
 11
5.61827
 21
95.9817
 31
0.0
  0
LINE
  8
0
 62
     0
 10
24.6696
 20
95.9817
 30
0.0
 11
38.669
 21
95.9817
 31
0.0
  0
LINE
  8
0
 62
     0
 10
38.669
 20
95.9817
 30
0.0
 11
38.669
 21
81.981
 31
0.0
  0
LINE
  8
0
 62
     0
 10
38.669
 20
81.981
 30
0.0
 11
24.6696
 21
81.981
 31
0.0
  0
LINE
  8
0
 62
     0
 10
24.6696
 20
81.981
 30
0.0
 11
24.6696
 21
95.9817
 31
0.0
  0
LINE
  8
0
 62
     0
 10
43.7198
 20
95.9817
 30
0.0
 11
57.719
 21
95.9817
 31
0.0
  0
LINE
  8
0
 62
     0
 10
57.719
 20
95.9817
 30
0.0
 11
57.719
 21
81.981
 31
0.0
  0
LINE
  8
0
 62
     0
 10
57.719
 20
81.981
 30
0.0
 11
43.7198
 21
81.981
 31
0.0
  0
LINE
  8
0
 62
     0
 10
43.7198
 20
81.981
 30
0.0
 11
43.7198
 21
95.9817
 31
0.0
  0
LINE
  8
0
 62
     0
 10
62.7697
 20
95.9817
 30
0.0
 11
76.769
 21
95.9817
 31
0.0
  0
LINE
  8
0
 62
     0
 10
76.769
 20
95.9817
 30
0.0
 11
76.769
 21
81.981
 31
0.0
  0
LINE
  8
0
 62
     0
 10
76.769
 20
81.981
 30
0.0
 11
62.7697
 21
81.981
 31
0.0
  0
LINE
  8
0
 62
     0
 10
62.7697
 20
81.981
 30
0.0
 11
62.7697
 21
95.9817
 31
0.0
  0
LINE
  8
0
 62
     0
 10
81.8197
 20
95.9817
 30
0.0
 11
95.819
 21
95.9817
 31
0.0
  0
LINE
  8
0
 62
     0
 10
95.819
 20
95.9817
 30
0.0
 11
95.819
 21
81.981
 31
0.0
  0
LINE
  8
0
 62
     0
 10
95.819
 20
81.981
 30
0.0
 11
81.8197
 21
81.981
 31
0.0
  0
LINE
  8
0
 62
     0
 10
81.8197
 20
81.981
 30
0.0
 11
81.8197
 21
95.9817
 31
0.0
  0
LINE
  8
0
 62
     0
 10
100.868
 20
95.9817
 30
0.0
 11
114.869
 21
95.9817
 31
0.0
  0
LINE
  8
0
 62
     0
 10
114.869
 20
95.9817
 30
0.0
 11
114.869
 21
81.981
 31
0.0
  0
LINE
  8
0
 62
     0
 10
114.869
 20
81.981
 30
0.0
 11
100.868
 21
81.981
 31
0.0
  0
LINE
  8
0
 62
     0
 10
100.868
 20
81.981
 30
0.0
 11
100.868
 21
95.9817
 31
0.0
  0
LINE
  8
0
 62
     0
 10
119.918
 20
95.9817
 30
0.0
 11
133.919
 21
95.9817
 31
0.0
  0
LINE
  8
0
 62
     0
 10
133.919
 20
95.9817
 30
0.0
 11
133.919
 21
81.981
 31
0.0
  0
LINE
  8
0
 62
     0
 10
133.919
 20
81.981
 30
0.0
 11
119.918
 21
81.981
 31
0.0
  0
LINE
  8
0
 62
     0
 10
119.918
 20
81.981
 30
0.0
 11
119.918
 21
95.9817
 31
0.0
  0
LINE
  8
0
 62
     0
 10
138.97
 20
95.9817
 30
0.0
 11
152.969
 21
95.9817
 31
0.0
  0
LINE
  8
0
 62
     0
 10
152.969
 20
95.9817
 30
0.0
 11
152.969
 21
81.981
 31
0.0
  0
LINE
  8
0
 62
     0
 10
152.969
 20
81.981
 30
0.0
 11
138.97
 21
81.981
 31
0.0
  0
LINE
  8
0
 62
     0
 10
138.97
 20
81.981
 30
0.0
 11
138.97
 21
95.9817
 31
0.0
  0
LINE
  8
0
 62
     0
 10
158.02
 20
95.9817
 30
0.0
 11
172.019
 21
95.9817
 31
0.0
  0
LINE
  8
0
 62
     0
 10
172.019
 20
95.9817
 30
0.0
 11
172.019
 21
81.981
 31
0.0
  0
LINE
  8
0
 62
     0
 10
172.019
 20
81.981
 30
0.0
 11
158.02
 21
81.981
 31
0.0
  0
LINE
  8
0
 62
     0
 10
158.02
 20
81.981
 30
0.0
 11
158.02
 21
95.9817
 31
0.0
  0
LINE
  8
0
 62
     0
 10
177.07
 20
95.9817
 30
0.0
 11
191.069
 21
95.9817
 31
0.0
  0
LINE
  8
0
 62
     0
 10
191.069
 20
95.9817
 30
0.0
 11
191.069
 21
81.981
 31
0.0
  0
LINE
  8
0
 62
     0
 10
191.069
 20
81.981
 30
0.0
 11
177.07
 21
81.981
 31
0.0
  0
LINE
  8
0
 62
     0
 10
177.07
 20
81.981
 30
0.0
 11
177.07
 21
95.9817
 31
0.0
  0
LINE
  8
0
 62
     0
 10
196.12
 20
95.9817
 30
0.0
 11
210.119
 21
95.9817
 31
0.0
  0
LINE
  8
0
 62
     0
 10
210.119
 20
95.9817
 30
0.0
 11
210.119
 21
81.981
 31
0.0
  0
LINE
  8
0
 62
     0
 10
210.119
 20
81.981
 30
0.0
 11
196.12
 21
81.981
 31
0.0
  0
LINE
  8
0
 62
     0
 10
196.12
 20
81.981
 30
0.0
 11
196.12
 21
95.9817
 31
0.0
  0
LINE
  8
0
 62
     0
 10
215.17
 20
95.9817
 30
0.0
 11
229.169
 21
95.9817
 31
0.0
  0
LINE
  8
0
 62
     0
 10
229.169
 20
95.9817
 30
0.0
 11
229.169
 21
81.981
 31
0.0
  0
LINE
  8
0
 62
     0
 10
229.169
 20
81.981
 30
0.0
 11
215.17
 21
81.981
 31
0.0
  0
LINE
  8
0
 62
     0
 10
215.17
 20
81.981
 30
0.0
 11
215.17
 21
95.9817
 31
0.0
  0
LINE
  8
0
 62
     0
 10
234.22
 20
95.9817
 30
0.0
 11
248.219
 21
95.9817
 31
0.0
  0
LINE
  8
0
 62
     0
 10
248.219
 20
95.9817
 30
0.0
 11
248.219
 21
81.981
 31
0.0
  0
LINE
  8
0
 62
     0
 10
248.219
 20
81.981
 30
0.0
 11
234.22
 21
81.981
 31
0.0
  0
LINE
  8
0
 62
     0
 10
234.22
 20
81.981
 30
0.0
 11
234.22
 21
95.9817
 31
0.0
  0
LINE
  8
0
 62
     0
 10
107.061
 20
100.958
 30
0.0
 11
106.782
 21
100.816
 31
0.0
  0
LINE
  8
0
 62
     0
 10
106.782
 20
100.816
 30
0.0
 11
106.561
 21
100.594
 31
0.0
  0
LINE
  8
0
 62
     0
 10
106.561
 20
100.594
 30
0.0
 11
106.419
 21
100.316
 31
0.0
  0
LINE
  8
0
 62
     0
 10
106.419
 20
100.316
 30
0.0
 11
106.37
 21
100.005
 31
0.0
  0
LINE
  8
0
 62
     0
 10
106.37
 20
100.005
 30
0.0
 11
106.419
 21
99.6968
 31
0.0
  0
LINE
  8
0
 62
     0
 10
106.419
 20
99.6968
 30
0.0
 11
106.561
 21
99.4184
 31
0.0
  0
LINE
  8
0
 62
     0
 10
106.561
 20
99.4184
 30
0.0
 11
106.782
 21
99.1969
 31
0.0
  0
LINE
  8
0
 62
     0
 10
106.782
 20
99.1969
 30
0.0
 11
107.061
 21
99.0547
 31
0.0
  0
LINE
  8
0
 62
     0
 10
107.061
 20
99.0547
 30
0.0
 11
107.37
 21
99.0053
 31
0.0
  0
LINE
  8
0
 62
     0
 10
107.37
 20
99.0053
 30
0.0
 11
107.678
 21
99.0547
 31
0.0
  0
LINE
  8
0
 62
     0
 10
107.678
 20
99.0547
 30
0.0
 11
107.957
 21
99.1969
 31
0.0
  0
LINE
  8
0
 62
     0
 10
107.957
 20
99.1969
 30
0.0
 11
108.179
 21
99.4184
 31
0.0
  0
LINE
  8
0
 62
     0
 10
108.179
 20
99.4184
 30
0.0
 11
108.321
 21
99.6968
 31
0.0
  0
LINE
  8
0
 62
     0
 10
108.321
 20
99.6968
 30
0.0
 11
108.369
 21
100.005
 31
0.0
  0
LINE
  8
0
 62
     0
 10
108.369
 20
100.005
 30
0.0
 11
108.321
 21
100.316
 31
0.0
  0
LINE
  8
0
 62
     0
 10
108.321
 20
100.316
 30
0.0
 11
108.179
 21
100.594
 31
0.0
  0
LINE
  8
0
 62
     0
 10
108.179
 20
100.594
 30
0.0
 11
107.957
 21
100.816
 31
0.0
  0
LINE
  8
0
 62
     0
 10
107.957
 20
100.816
 30
0.0
 11
107.678
 21
100.958
 31
0.0
  0
LINE
  8
0
 62
     0
 10
107.678
 20
100.958
 30
0.0
 11
107.37
 21
101.006
 31
0.0
  0
LINE
  8
0
 62
     0
 10
107.37
 20
101.006
 30
0.0
 11
107.061
 21
100.958
 31
0.0
  0
LINE
  8
0
 62
     0
 10
212.835
 20
100.958
 30
0.0
 11
212.557
 21
100.816
 31
0.0
  0
LINE
  8
0
 62
     0
 10
212.557
 20
100.816
 30
0.0
 11
212.335
 21
100.594
 31
0.0
  0
LINE
  8
0
 62
     0
 10
212.335
 20
100.594
 30
0.0
 11
212.193
 21
100.316
 31
0.0
  0
LINE
  8
0
 62
     0
 10
212.193
 20
100.316
 30
0.0
 11
212.145
 21
100.005
 31
0.0
  0
LINE
  8
0
 62
     0
 10
212.145
 20
100.005
 30
0.0
 11
212.193
 21
99.6968
 31
0.0
  0
LINE
  8
0
 62
     0
 10
212.193
 20
99.6968
 30
0.0
 11
212.335
 21
99.4184
 31
0.0
  0
LINE
  8
0
 62
     0
 10
212.335
 20
99.4184
 30
0.0
 11
212.557
 21
99.1969
 31
0.0
  0
LINE
  8
0
 62
     0
 10
212.557
 20
99.1969
 30
0.0
 11
212.835
 21
99.0547
 31
0.0
  0
LINE
  8
0
 62
     0
 10
212.835
 20
99.0547
 30
0.0
 11
213.144
 21
99.0053
 31
0.0
  0
LINE
  8
0
 62
     0
 10
213.144
 20
99.0053
 30
0.0
 11
213.454
 21
99.0547
 31
0.0
  0
LINE
  8
0
 62
     0
 10
213.454
 20
99.0547
 30
0.0
 11
213.732
 21
99.1969
 31
0.0
  0
LINE
  8
0
 62
     0
 10
213.732
 20
99.1969
 30
0.0
 11
213.953
 21
99.4184
 31
0.0
  0
LINE
  8
0
 62
     0
 10
213.953
 20
99.4184
 30
0.0
 11
214.096
 21
99.6968
 31
0.0
  0
LINE
  8
0
 62
     0
 10
214.096
 20
99.6968
 30
0.0
 11
214.144
 21
100.005
 31
0.0
  0
LINE
  8
0
 62
     0
 10
214.144
 20
100.005
 30
0.0
 11
214.096
 21
100.316
 31
0.0
  0
LINE
  8
0
 62
     0
 10
214.096
 20
100.316
 30
0.0
 11
213.953
 21
100.594
 31
0.0
  0
LINE
  8
0
 62
     0
 10
213.953
 20
100.594
 30
0.0
 11
213.732
 21
100.816
 31
0.0
  0
LINE
  8
0
 62
     0
 10
213.732
 20
100.816
 30
0.0
 11
213.454
 21
100.958
 31
0.0
  0
LINE
  8
0
 62
     0
 10
213.454
 20
100.958
 30
0.0
 11
213.144
 21
101.006
 31
0.0
  0
LINE
  8
0
 62
     0
 10
213.144
 20
101.006
 30
0.0
 11
212.835
 21
100.958
 31
0.0
  0
LINE
  8
0
 62
     0
 10
318.611
 20
100.958
 30
0.0
 11
318.332
 21
100.816
 31
0.0
  0
LINE
  8
0
 62
     0
 10
318.332
 20
100.816
 30
0.0
 11
318.11
 21
100.594
 31
0.0
  0
LINE
  8
0
 62
     0
 10
318.11
 20
100.594
 30
0.0
 11
317.968
 21
100.316
 31
0.0
  0
LINE
  8
0
 62
     0
 10
317.968
 20
100.316
 30
0.0
 11
317.92
 21
100.005
 31
0.0
  0
LINE
  8
0
 62
     0
 10
317.92
 20
100.005
 30
0.0
 11
317.968
 21
99.6968
 31
0.0
  0
LINE
  8
0
 62
     0
 10
317.968
 20
99.6968
 30
0.0
 11
318.11
 21
99.4184
 31
0.0
  0
LINE
  8
0
 62
     0
 10
318.11
 20
99.4184
 30
0.0
 11
318.332
 21
99.1969
 31
0.0
  0
LINE
  8
0
 62
     0
 10
318.332
 20
99.1969
 30
0.0
 11
318.611
 21
99.0547
 31
0.0
  0
LINE
  8
0
 62
     0
 10
318.611
 20
99.0547
 30
0.0
 11
318.921
 21
99.0053
 31
0.0
  0
LINE
  8
0
 62
     0
 10
318.921
 20
99.0053
 30
0.0
 11
319.229
 21
99.0547
 31
0.0
  0
LINE
  8
0
 62
     0
 10
319.229
 20
99.0547
 30
0.0
 11
319.508
 21
99.1969
 31
0.0
  0
LINE
  8
0
 62
     0
 10
319.508
 20
99.1969
 30
0.0
 11
319.73
 21
99.4184
 31
0.0
  0
LINE
  8
0
 62
     0
 10
319.73
 20
99.4184
 30
0.0
 11
319.872
 21
99.6968
 31
0.0
  0
LINE
  8
0
 62
     0
 10
319.872
 20
99.6968
 30
0.0
 11
319.92
 21
100.005
 31
0.0
  0
LINE
  8
0
 62
     0
 10
319.92
 20
100.005
 30
0.0
 11
319.872
 21
100.316
 31
0.0
  0
LINE
  8
0
 62
     0
 10
319.872
 20
100.316
 30
0.0
 11
319.73
 21
100.594
 31
0.0
  0
LINE
  8
0
 62
     0
 10
319.73
 20
100.594
 30
0.0
 11
319.508
 21
100.816
 31
0.0
  0
LINE
  8
0
 62
     0
 10
319.508
 20
100.816
 30
0.0
 11
319.229
 21
100.958
 31
0.0
  0
LINE
  8
0
 62
     0
 10
319.229
 20
100.958
 30
0.0
 11
318.921
 21
101.006
 31
0.0
  0
LINE
  8
0
 62
     0
 10
318.921
 20
101.006
 30
0.0
 11
318.611
 21
100.958
 31
0.0
  0
LINE
  8
0
 62
     0
 10
1.28433
 20
100.958
 30
0.0
 11
1.00597
 21
100.816
 31
0.0
  0
LINE
  8
0
 62
     0
 10
1.00597
 20
100.816
 30
0.0
 11
0.784105
 21
100.594
 31
0.0
  0
LINE
  8
0
 62
     0
 10
0.784105
 20
100.594
 30
0.0
 11
0.642165
 21
100.316
 31
0.0
  0
LINE
  8
0
 62
     0
 10
0.642165
 20
100.316
 30
0.0
 11
0.593933
 21
100.005
 31
0.0
  0
LINE
  8
0
 62
     0
 10
0.593933
 20
100.005
 30
0.0
 11
0.642165
 21
99.6968
 31
0.0
  0
LINE
  8
0
 62
     0
 10
0.642165
 20
99.6968
 30
0.0
 11
0.784105
 21
99.4184
 31
0.0
  0
LINE
  8
0
 62
     0
 10
0.784105
 20
99.4184
 30
0.0
 11
1.00597
 21
99.1969
 31
0.0
  0
LINE
  8
0
 62
     0
 10
1.00597
 20
99.1969
 30
0.0
 11
1.28433
 21
99.0547
 31
0.0
  0
LINE
  8
0
 62
     0
 10
1.28433
 20
99.0547
 30
0.0
 11
1.59439
 21
99.0053
 31
0.0
  0
LINE
  8
0
 62
     0
 10
1.59439
 20
99.0053
 30
0.0
 11
1.90307
 21
99.0547
 31
0.0
  0
LINE
  8
0
 62
     0
 10
1.90307
 20
99.0547
 30
0.0
 11
2.18143
 21
99.1969
 31
0.0
  0
LINE
  8
0
 62
     0
 10
2.18143
 20
99.1969
 30
0.0
 11
2.4033
 21
99.4184
 31
0.0
  0
LINE
  8
0
 62
     0
 10
2.4033
 20
99.4184
 30
0.0
 11
2.54524
 21
99.6968
 31
0.0
  0
LINE
  8
0
 62
     0
 10
2.54524
 20
99.6968
 30
0.0
 11
2.59485
 21
100.005
 31
0.0
  0
LINE
  8
0
 62
     0
 10
2.59485
 20
100.005
 30
0.0
 11
2.54524
 21
100.316
 31
0.0
  0
LINE
  8
0
 62
     0
 10
2.54524
 20
100.316
 30
0.0
 11
2.4033
 21
100.594
 31
0.0
  0
LINE
  8
0
 62
     0
 10
2.4033
 20
100.594
 30
0.0
 11
2.18143
 21
100.816
 31
0.0
  0
LINE
  8
0
 62
     0
 10
2.18143
 20
100.816
 30
0.0
 11
1.90307
 21
100.958
 31
0.0
  0
LINE
  8
0
 62
     0
 10
1.90307
 20
100.958
 30
0.0
 11
1.59439
 21
101.006
 31
0.0
  0
LINE
  8
0
 62
     0
 10
1.59439
 20
101.006
 30
0.0
 11
1.28433
 21
100.958
 31
0.0
  0
ENDSEC
  0
EOF
