  0
SECTION
  2
HEADER
  9
$ACADVER
  1
AC1009
  9
$FILLMODE
 70
 0
  9
$SPLFRAME
 70
 1
  9
$EXTMIN
 10
0
 20
0
 30
0.0
  9
$EXTMAX
 10
1058.33
 20
1058.33
 30
0.0
  0
ENDSEC
  0
SECTION
  2
TABLES
  0
TABLE
  2
LAYER
 70
1
  0
LAYER
  2
0
 70
     0
 62
     7
  6
CONTINUOUS
  0
ENDTAB
  0
ENDSEC
  0
SECTION
  2
ENTITIES
  0
LINE
  8
0
 62
     0
 10
0.0950846
 20
101.505
 30
0.0
 11
320.42
 21
101.505
 31
0.0
  0
LINE
  8
0
 62
     0
 10
320.42
 20
101.505
 30
0.0
 11
320.42
 21
0.254937
 31
0.0
  0
LINE
  8
0
 62
     0
 10
320.42
 20
0.254937
 30
0.0
 11
0.0950846
 21
0.254937
 31
0.0
  0
LINE
  8
0
 62
     0
 10
0.0950846
 20
0.254937
 30
0.0
 11
0.0950846
 21
101.505
 31
0.0
  0
LINE
  8
0
 62
     0
 10
318.611
 20
2.70647
 30
0.0
 11
318.332
 21
2.56453
 31
0.0
  0
LINE
  8
0
 62
     0
 10
318.332
 20
2.56453
 30
0.0
 11
318.11
 21
2.34267
 31
0.0
  0
LINE
  8
0
 62
     0
 10
318.11
 20
2.34267
 30
0.0
 11
317.968
 21
2.0643
 31
0.0
  0
LINE
  8
0
 62
     0
 10
317.968
 20
2.0643
 30
0.0
 11
317.92
 21
1.75562
 31
0.0
  0
LINE
  8
0
 62
     0
 10
317.92
 20
1.75562
 30
0.0
 11
317.968
 21
1.44556
 31
0.0
  0
LINE
  8
0
 62
     0
 10
317.968
 20
1.44556
 30
0.0
 11
318.11
 21
1.1672
 31
0.0
  0
LINE
  8
0
 62
     0
 10
318.11
 20
1.1672
 30
0.0
 11
318.332
 21
0.945335
 31
0.0
  0
LINE
  8
0
 62
     0
 10
318.332
 20
0.945335
 30
0.0
 11
318.611
 21
0.803395
 31
0.0
  0
LINE
  8
0
 62
     0
 10
318.611
 20
0.803395
 30
0.0
 11
318.921
 21
0.755167
 31
0.0
  0
LINE
  8
0
 62
     0
 10
318.921
 20
0.755167
 30
0.0
 11
319.229
 21
0.803395
 31
0.0
  0
LINE
  8
0
 62
     0
 10
319.229
 20
0.803395
 30
0.0
 11
319.508
 21
0.945335
 31
0.0
  0
LINE
  8
0
 62
     0
 10
319.508
 20
0.945335
 30
0.0
 11
319.73
 21
1.1672
 31
0.0
  0
LINE
  8
0
 62
     0
 10
319.73
 20
1.1672
 30
0.0
 11
319.872
 21
1.44556
 31
0.0
  0
LINE
  8
0
 62
     0
 10
319.872
 20
1.44556
 30
0.0
 11
319.92
 21
1.75562
 31
0.0
  0
LINE
  8
0
 62
     0
 10
319.92
 20
1.75562
 30
0.0
 11
319.872
 21
2.0643
 31
0.0
  0
LINE
  8
0
 62
     0
 10
319.872
 20
2.0643
 30
0.0
 11
319.73
 21
2.34267
 31
0.0
  0
LINE
  8
0
 62
     0
 10
319.73
 20
2.34267
 30
0.0
 11
319.508
 21
2.56453
 31
0.0
  0
LINE
  8
0
 62
     0
 10
319.508
 20
2.56453
 30
0.0
 11
319.229
 21
2.70647
 31
0.0
  0
LINE
  8
0
 62
     0
 10
319.229
 20
2.70647
 30
0.0
 11
318.921
 21
2.75608
 31
0.0
  0
LINE
  8
0
 62
     0
 10
318.921
 20
2.75608
 30
0.0
 11
318.611
 21
2.70647
 31
0.0
  0
LINE
  8
0
 62
     0
 10
212.835
 20
2.70647
 30
0.0
 11
212.557
 21
2.56453
 31
0.0
  0
LINE
  8
0
 62
     0
 10
212.557
 20
2.56453
 30
0.0
 11
212.335
 21
2.34267
 31
0.0
  0
LINE
  8
0
 62
     0
 10
212.335
 20
2.34267
 30
0.0
 11
212.193
 21
2.0643
 31
0.0
  0
LINE
  8
0
 62
     0
 10
212.193
 20
2.0643
 30
0.0
 11
212.145
 21
1.75562
 31
0.0
  0
LINE
  8
0
 62
     0
 10
212.145
 20
1.75562
 30
0.0
 11
212.193
 21
1.44556
 31
0.0
  0
LINE
  8
0
 62
     0
 10
212.193
 20
1.44556
 30
0.0
 11
212.335
 21
1.1672
 31
0.0
  0
LINE
  8
0
 62
     0
 10
212.335
 20
1.1672
 30
0.0
 11
212.557
 21
0.945335
 31
0.0
  0
LINE
  8
0
 62
     0
 10
212.557
 20
0.945335
 30
0.0
 11
212.835
 21
0.803395
 31
0.0
  0
LINE
  8
0
 62
     0
 10
212.835
 20
0.803395
 30
0.0
 11
213.144
 21
0.755167
 31
0.0
  0
LINE
  8
0
 62
     0
 10
213.144
 20
0.755167
 30
0.0
 11
213.454
 21
0.803395
 31
0.0
  0
LINE
  8
0
 62
     0
 10
213.454
 20
0.803395
 30
0.0
 11
213.732
 21
0.945335
 31
0.0
  0
LINE
  8
0
 62
     0
 10
213.732
 20
0.945335
 30
0.0
 11
213.953
 21
1.1672
 31
0.0
  0
LINE
  8
0
 62
     0
 10
213.953
 20
1.1672
 30
0.0
 11
214.096
 21
1.44556
 31
0.0
  0
LINE
  8
0
 62
     0
 10
214.096
 20
1.44556
 30
0.0
 11
214.144
 21
1.75562
 31
0.0
  0
LINE
  8
0
 62
     0
 10
214.144
 20
1.75562
 30
0.0
 11
214.096
 21
2.0643
 31
0.0
  0
LINE
  8
0
 62
     0
 10
214.096
 20
2.0643
 30
0.0
 11
213.953
 21
2.34267
 31
0.0
  0
LINE
  8
0
 62
     0
 10
213.953
 20
2.34267
 30
0.0
 11
213.732
 21
2.56453
 31
0.0
  0
LINE
  8
0
 62
     0
 10
213.732
 20
2.56453
 30
0.0
 11
213.454
 21
2.70647
 31
0.0
  0
LINE
  8
0
 62
     0
 10
213.454
 20
2.70647
 30
0.0
 11
213.144
 21
2.75608
 31
0.0
  0
LINE
  8
0
 62
     0
 10
213.144
 20
2.75608
 30
0.0
 11
212.835
 21
2.70647
 31
0.0
  0
LINE
  8
0
 62
     0
 10
107.061
 20
2.70647
 30
0.0
 11
106.782
 21
2.56453
 31
0.0
  0
LINE
  8
0
 62
     0
 10
106.782
 20
2.56453
 30
0.0
 11
106.561
 21
2.34267
 31
0.0
  0
LINE
  8
0
 62
     0
 10
106.561
 20
2.34267
 30
0.0
 11
106.419
 21
2.0643
 31
0.0
  0
LINE
  8
0
 62
     0
 10
106.419
 20
2.0643
 30
0.0
 11
106.37
 21
1.75562
 31
0.0
  0
LINE
  8
0
 62
     0
 10
106.37
 20
1.75562
 30
0.0
 11
106.419
 21
1.44556
 31
0.0
  0
LINE
  8
0
 62
     0
 10
106.419
 20
1.44556
 30
0.0
 11
106.561
 21
1.1672
 31
0.0
  0
LINE
  8
0
 62
     0
 10
106.561
 20
1.1672
 30
0.0
 11
106.782
 21
0.945335
 31
0.0
  0
LINE
  8
0
 62
     0
 10
106.782
 20
0.945335
 30
0.0
 11
107.061
 21
0.803395
 31
0.0
  0
LINE
  8
0
 62
     0
 10
107.061
 20
0.803395
 30
0.0
 11
107.37
 21
0.755167
 31
0.0
  0
LINE
  8
0
 62
     0
 10
107.37
 20
0.755167
 30
0.0
 11
107.678
 21
0.803395
 31
0.0
  0
LINE
  8
0
 62
     0
 10
107.678
 20
0.803395
 30
0.0
 11
107.957
 21
0.945335
 31
0.0
  0
LINE
  8
0
 62
     0
 10
107.957
 20
0.945335
 30
0.0
 11
108.179
 21
1.1672
 31
0.0
  0
LINE
  8
0
 62
     0
 10
108.179
 20
1.1672
 30
0.0
 11
108.321
 21
1.44556
 31
0.0
  0
LINE
  8
0
 62
     0
 10
108.321
 20
1.44556
 30
0.0
 11
108.369
 21
1.75562
 31
0.0
  0
LINE
  8
0
 62
     0
 10
108.369
 20
1.75562
 30
0.0
 11
108.321
 21
2.0643
 31
0.0
  0
LINE
  8
0
 62
     0
 10
108.321
 20
2.0643
 30
0.0
 11
108.179
 21
2.34267
 31
0.0
  0
LINE
  8
0
 62
     0
 10
108.179
 20
2.34267
 30
0.0
 11
107.957
 21
2.56453
 31
0.0
  0
LINE
  8
0
 62
     0
 10
107.957
 20
2.56453
 30
0.0
 11
107.678
 21
2.70647
 31
0.0
  0
LINE
  8
0
 62
     0
 10
107.678
 20
2.70647
 30
0.0
 11
107.37
 21
2.75608
 31
0.0
  0
LINE
  8
0
 62
     0
 10
107.37
 20
2.75608
 30
0.0
 11
107.061
 21
2.70647
 31
0.0
  0
LINE
  8
0
 62
     0
 10
1.28433
 20
2.70647
 30
0.0
 11
1.00597
 21
2.56453
 31
0.0
  0
LINE
  8
0
 62
     0
 10
1.00597
 20
2.56453
 30
0.0
 11
0.784105
 21
2.34267
 31
0.0
  0
LINE
  8
0
 62
     0
 10
0.784105
 20
2.34267
 30
0.0
 11
0.642165
 21
2.0643
 31
0.0
  0
LINE
  8
0
 62
     0
 10
0.642165
 20
2.0643
 30
0.0
 11
0.593933
 21
1.75562
 31
0.0
  0
LINE
  8
0
 62
     0
 10
0.593933
 20
1.75562
 30
0.0
 11
0.642165
 21
1.44556
 31
0.0
  0
LINE
  8
0
 62
     0
 10
0.642165
 20
1.44556
 30
0.0
 11
0.784105
 21
1.1672
 31
0.0
  0
LINE
  8
0
 62
     0
 10
0.784105
 20
1.1672
 30
0.0
 11
1.00597
 21
0.945335
 31
0.0
  0
LINE
  8
0
 62
     0
 10
1.00597
 20
0.945335
 30
0.0
 11
1.28433
 21
0.803395
 31
0.0
  0
LINE
  8
0
 62
     0
 10
1.28433
 20
0.803395
 30
0.0
 11
1.59439
 21
0.755167
 31
0.0
  0
LINE
  8
0
 62
     0
 10
1.59439
 20
0.755167
 30
0.0
 11
1.90307
 21
0.803395
 31
0.0
  0
LINE
  8
0
 62
     0
 10
1.90307
 20
0.803395
 30
0.0
 11
2.18143
 21
0.945335
 31
0.0
  0
LINE
  8
0
 62
     0
 10
2.18143
 20
0.945335
 30
0.0
 11
2.4033
 21
1.1672
 31
0.0
  0
LINE
  8
0
 62
     0
 10
2.4033
 20
1.1672
 30
0.0
 11
2.54524
 21
1.44556
 31
0.0
  0
LINE
  8
0
 62
     0
 10
2.54524
 20
1.44556
 30
0.0
 11
2.59485
 21
1.75562
 31
0.0
  0
LINE
  8
0
 62
     0
 10
2.59485
 20
1.75562
 30
0.0
 11
2.54524
 21
2.0643
 31
0.0
  0
LINE
  8
0
 62
     0
 10
2.54524
 20
2.0643
 30
0.0
 11
2.4033
 21
2.34267
 31
0.0
  0
LINE
  8
0
 62
     0
 10
2.4033
 20
2.34267
 30
0.0
 11
2.18143
 21
2.56453
 31
0.0
  0
LINE
  8
0
 62
     0
 10
2.18143
 20
2.56453
 30
0.0
 11
1.90307
 21
2.70647
 31
0.0
  0
LINE
  8
0
 62
     0
 10
1.90307
 20
2.70647
 30
0.0
 11
1.59439
 21
2.75608
 31
0.0
  0
LINE
  8
0
 62
     0
 10
1.59439
 20
2.75608
 30
0.0
 11
1.28433
 21
2.70647
 31
0.0
  0
LINE
  8
0
 62
     0
 10
3.09232
 20
98.5076
 30
0.0
 11
3.09232
 21
79.4551
 31
0.0
  0
LINE
  8
0
 62
     0
 10
3.09232
 20
79.4551
 30
0.0
 11
3.0937
 21
79.4551
 31
0.0
  0
LINE
  8
0
 62
     0
 10
3.0937
 20
79.4551
 30
0.0
 11
3.0937
 21
60.4061
 31
0.0
  0
LINE
  8
0
 62
     0
 10
3.0937
 20
60.4061
 30
0.0
 11
3.09232
 21
60.4061
 31
0.0
  0
LINE
  8
0
 62
     0
 10
3.09232
 20
60.4061
 30
0.0
 11
3.09232
 21
22.3049
 31
0.0
  0
LINE
  8
0
 62
     0
 10
3.09232
 20
22.3049
 30
0.0
 11
3.0937
 21
22.3049
 31
0.0
  0
LINE
  8
0
 62
     0
 10
3.0937
 20
22.3049
 30
0.0
 11
3.0937
 21
3.25493
 31
0.0
  0
LINE
  8
0
 62
     0
 10
3.0937
 20
3.25493
 30
0.0
 11
317.42
 21
3.25493
 31
0.0
  0
LINE
  8
0
 62
     0
 10
317.42
 20
3.25493
 30
0.0
 11
317.42
 21
22.3063
 31
0.0
  0
LINE
  8
0
 62
     0
 10
317.42
 20
22.3063
 30
0.0
 11
298.37
 21
22.3063
 31
0.0
  0
LINE
  8
0
 62
     0
 10
298.37
 20
22.3063
 30
0.0
 11
298.37
 21
41.3561
 31
0.0
  0
LINE
  8
0
 62
     0
 10
298.37
 20
41.3561
 30
0.0
 11
288.845
 21
41.3561
 31
0.0
  0
LINE
  8
0
 62
     0
 10
288.845
 20
41.3561
 30
0.0
 11
288.845
 21
98.5076
 31
0.0
  0
LINE
  8
0
 62
     0
 10
288.845
 20
98.5076
 30
0.0
 11
3.09232
 21
98.5076
 31
0.0
  0
LINE
  8
0
 62
     0
 10
107.061
 20
100.958
 30
0.0
 11
106.782
 21
100.816
 31
0.0
  0
LINE
  8
0
 62
     0
 10
106.782
 20
100.816
 30
0.0
 11
106.561
 21
100.594
 31
0.0
  0
LINE
  8
0
 62
     0
 10
106.561
 20
100.594
 30
0.0
 11
106.419
 21
100.316
 31
0.0
  0
LINE
  8
0
 62
     0
 10
106.419
 20
100.316
 30
0.0
 11
106.37
 21
100.005
 31
0.0
  0
LINE
  8
0
 62
     0
 10
106.37
 20
100.005
 30
0.0
 11
106.419
 21
99.6968
 31
0.0
  0
LINE
  8
0
 62
     0
 10
106.419
 20
99.6968
 30
0.0
 11
106.561
 21
99.4184
 31
0.0
  0
LINE
  8
0
 62
     0
 10
106.561
 20
99.4184
 30
0.0
 11
106.782
 21
99.1969
 31
0.0
  0
LINE
  8
0
 62
     0
 10
106.782
 20
99.1969
 30
0.0
 11
107.061
 21
99.0547
 31
0.0
  0
LINE
  8
0
 62
     0
 10
107.061
 20
99.0547
 30
0.0
 11
107.37
 21
99.0053
 31
0.0
  0
LINE
  8
0
 62
     0
 10
107.37
 20
99.0053
 30
0.0
 11
107.678
 21
99.0547
 31
0.0
  0
LINE
  8
0
 62
     0
 10
107.678
 20
99.0547
 30
0.0
 11
107.957
 21
99.1969
 31
0.0
  0
LINE
  8
0
 62
     0
 10
107.957
 20
99.1969
 30
0.0
 11
108.179
 21
99.4184
 31
0.0
  0
LINE
  8
0
 62
     0
 10
108.179
 20
99.4184
 30
0.0
 11
108.321
 21
99.6968
 31
0.0
  0
LINE
  8
0
 62
     0
 10
108.321
 20
99.6968
 30
0.0
 11
108.369
 21
100.005
 31
0.0
  0
LINE
  8
0
 62
     0
 10
108.369
 20
100.005
 30
0.0
 11
108.321
 21
100.316
 31
0.0
  0
LINE
  8
0
 62
     0
 10
108.321
 20
100.316
 30
0.0
 11
108.179
 21
100.594
 31
0.0
  0
LINE
  8
0
 62
     0
 10
108.179
 20
100.594
 30
0.0
 11
107.957
 21
100.816
 31
0.0
  0
LINE
  8
0
 62
     0
 10
107.957
 20
100.816
 30
0.0
 11
107.678
 21
100.958
 31
0.0
  0
LINE
  8
0
 62
     0
 10
107.678
 20
100.958
 30
0.0
 11
107.37
 21
101.006
 31
0.0
  0
LINE
  8
0
 62
     0
 10
107.37
 20
101.006
 30
0.0
 11
107.061
 21
100.958
 31
0.0
  0
LINE
  8
0
 62
     0
 10
212.835
 20
100.958
 30
0.0
 11
212.557
 21
100.816
 31
0.0
  0
LINE
  8
0
 62
     0
 10
212.557
 20
100.816
 30
0.0
 11
212.335
 21
100.594
 31
0.0
  0
LINE
  8
0
 62
     0
 10
212.335
 20
100.594
 30
0.0
 11
212.193
 21
100.316
 31
0.0
  0
LINE
  8
0
 62
     0
 10
212.193
 20
100.316
 30
0.0
 11
212.145
 21
100.005
 31
0.0
  0
LINE
  8
0
 62
     0
 10
212.145
 20
100.005
 30
0.0
 11
212.193
 21
99.6968
 31
0.0
  0
LINE
  8
0
 62
     0
 10
212.193
 20
99.6968
 30
0.0
 11
212.335
 21
99.4184
 31
0.0
  0
LINE
  8
0
 62
     0
 10
212.335
 20
99.4184
 30
0.0
 11
212.557
 21
99.1969
 31
0.0
  0
LINE
  8
0
 62
     0
 10
212.557
 20
99.1969
 30
0.0
 11
212.835
 21
99.0547
 31
0.0
  0
LINE
  8
0
 62
     0
 10
212.835
 20
99.0547
 30
0.0
 11
213.144
 21
99.0053
 31
0.0
  0
LINE
  8
0
 62
     0
 10
213.144
 20
99.0053
 30
0.0
 11
213.454
 21
99.0547
 31
0.0
  0
LINE
  8
0
 62
     0
 10
213.454
 20
99.0547
 30
0.0
 11
213.732
 21
99.1969
 31
0.0
  0
LINE
  8
0
 62
     0
 10
213.732
 20
99.1969
 30
0.0
 11
213.953
 21
99.4184
 31
0.0
  0
LINE
  8
0
 62
     0
 10
213.953
 20
99.4184
 30
0.0
 11
214.096
 21
99.6968
 31
0.0
  0
LINE
  8
0
 62
     0
 10
214.096
 20
99.6968
 30
0.0
 11
214.144
 21
100.005
 31
0.0
  0
LINE
  8
0
 62
     0
 10
214.144
 20
100.005
 30
0.0
 11
214.096
 21
100.316
 31
0.0
  0
LINE
  8
0
 62
     0
 10
214.096
 20
100.316
 30
0.0
 11
213.953
 21
100.594
 31
0.0
  0
LINE
  8
0
 62
     0
 10
213.953
 20
100.594
 30
0.0
 11
213.732
 21
100.816
 31
0.0
  0
LINE
  8
0
 62
     0
 10
213.732
 20
100.816
 30
0.0
 11
213.454
 21
100.958
 31
0.0
  0
LINE
  8
0
 62
     0
 10
213.454
 20
100.958
 30
0.0
 11
213.144
 21
101.006
 31
0.0
  0
LINE
  8
0
 62
     0
 10
213.144
 20
101.006
 30
0.0
 11
212.835
 21
100.958
 31
0.0
  0
LINE
  8
0
 62
     0
 10
318.611
 20
100.958
 30
0.0
 11
318.332
 21
100.816
 31
0.0
  0
LINE
  8
0
 62
     0
 10
318.332
 20
100.816
 30
0.0
 11
318.11
 21
100.594
 31
0.0
  0
LINE
  8
0
 62
     0
 10
318.11
 20
100.594
 30
0.0
 11
317.968
 21
100.316
 31
0.0
  0
LINE
  8
0
 62
     0
 10
317.968
 20
100.316
 30
0.0
 11
317.92
 21
100.005
 31
0.0
  0
LINE
  8
0
 62
     0
 10
317.92
 20
100.005
 30
0.0
 11
317.968
 21
99.6968
 31
0.0
  0
LINE
  8
0
 62
     0
 10
317.968
 20
99.6968
 30
0.0
 11
318.11
 21
99.4184
 31
0.0
  0
LINE
  8
0
 62
     0
 10
318.11
 20
99.4184
 30
0.0
 11
318.332
 21
99.1969
 31
0.0
  0
LINE
  8
0
 62
     0
 10
318.332
 20
99.1969
 30
0.0
 11
318.611
 21
99.0547
 31
0.0
  0
LINE
  8
0
 62
     0
 10
318.611
 20
99.0547
 30
0.0
 11
318.921
 21
99.0053
 31
0.0
  0
LINE
  8
0
 62
     0
 10
318.921
 20
99.0053
 30
0.0
 11
319.229
 21
99.0547
 31
0.0
  0
LINE
  8
0
 62
     0
 10
319.229
 20
99.0547
 30
0.0
 11
319.508
 21
99.1969
 31
0.0
  0
LINE
  8
0
 62
     0
 10
319.508
 20
99.1969
 30
0.0
 11
319.73
 21
99.4184
 31
0.0
  0
LINE
  8
0
 62
     0
 10
319.73
 20
99.4184
 30
0.0
 11
319.872
 21
99.6968
 31
0.0
  0
LINE
  8
0
 62
     0
 10
319.872
 20
99.6968
 30
0.0
 11
319.92
 21
100.005
 31
0.0
  0
LINE
  8
0
 62
     0
 10
319.92
 20
100.005
 30
0.0
 11
319.872
 21
100.316
 31
0.0
  0
LINE
  8
0
 62
     0
 10
319.872
 20
100.316
 30
0.0
 11
319.73
 21
100.594
 31
0.0
  0
LINE
  8
0
 62
     0
 10
319.73
 20
100.594
 30
0.0
 11
319.508
 21
100.816
 31
0.0
  0
LINE
  8
0
 62
     0
 10
319.508
 20
100.816
 30
0.0
 11
319.229
 21
100.958
 31
0.0
  0
LINE
  8
0
 62
     0
 10
319.229
 20
100.958
 30
0.0
 11
318.921
 21
101.006
 31
0.0
  0
LINE
  8
0
 62
     0
 10
318.921
 20
101.006
 30
0.0
 11
318.611
 21
100.958
 31
0.0
  0
LINE
  8
0
 62
     0
 10
1.28433
 20
100.958
 30
0.0
 11
1.00597
 21
100.816
 31
0.0
  0
LINE
  8
0
 62
     0
 10
1.00597
 20
100.816
 30
0.0
 11
0.784105
 21
100.594
 31
0.0
  0
LINE
  8
0
 62
     0
 10
0.784105
 20
100.594
 30
0.0
 11
0.642165
 21
100.316
 31
0.0
  0
LINE
  8
0
 62
     0
 10
0.642165
 20
100.316
 30
0.0
 11
0.593933
 21
100.005
 31
0.0
  0
LINE
  8
0
 62
     0
 10
0.593933
 20
100.005
 30
0.0
 11
0.642165
 21
99.6968
 31
0.0
  0
LINE
  8
0
 62
     0
 10
0.642165
 20
99.6968
 30
0.0
 11
0.784105
 21
99.4184
 31
0.0
  0
LINE
  8
0
 62
     0
 10
0.784105
 20
99.4184
 30
0.0
 11
1.00597
 21
99.1969
 31
0.0
  0
LINE
  8
0
 62
     0
 10
1.00597
 20
99.1969
 30
0.0
 11
1.28433
 21
99.0547
 31
0.0
  0
LINE
  8
0
 62
     0
 10
1.28433
 20
99.0547
 30
0.0
 11
1.59439
 21
99.0053
 31
0.0
  0
LINE
  8
0
 62
     0
 10
1.59439
 20
99.0053
 30
0.0
 11
1.90307
 21
99.0547
 31
0.0
  0
LINE
  8
0
 62
     0
 10
1.90307
 20
99.0547
 30
0.0
 11
2.18143
 21
99.1969
 31
0.0
  0
LINE
  8
0
 62
     0
 10
2.18143
 20
99.1969
 30
0.0
 11
2.4033
 21
99.4184
 31
0.0
  0
LINE
  8
0
 62
     0
 10
2.4033
 20
99.4184
 30
0.0
 11
2.54524
 21
99.6968
 31
0.0
  0
LINE
  8
0
 62
     0
 10
2.54524
 20
99.6968
 30
0.0
 11
2.59485
 21
100.005
 31
0.0
  0
LINE
  8
0
 62
     0
 10
2.59485
 20
100.005
 30
0.0
 11
2.54524
 21
100.316
 31
0.0
  0
LINE
  8
0
 62
     0
 10
2.54524
 20
100.316
 30
0.0
 11
2.4033
 21
100.594
 31
0.0
  0
LINE
  8
0
 62
     0
 10
2.4033
 20
100.594
 30
0.0
 11
2.18143
 21
100.816
 31
0.0
  0
LINE
  8
0
 62
     0
 10
2.18143
 20
100.816
 30
0.0
 11
1.90307
 21
100.958
 31
0.0
  0
LINE
  8
0
 62
     0
 10
1.90307
 20
100.958
 30
0.0
 11
1.59439
 21
101.006
 31
0.0
  0
LINE
  8
0
 62
     0
 10
1.59439
 20
101.006
 30
0.0
 11
1.28433
 21
100.958
 31
0.0
  0
ENDSEC
  0
EOF
