M48
; DRILL file {KiCad 7.0.8} date Sun Dec  3 22:46:49 2023
; FORMAT={-:-/ absolute / inch / decimal}
; #@! TF.CreationDate,2023-12-03T22:46:49+07:00
; #@! TF.GenerationSoftware,Kicad,Pcbnew,7.0.8
; #@! TF.FileFunction,NonPlated,1,2,NPTH
FMAT,2
INCH
; #@! TA.AperFunction,NonPlated,NPTH,ComponentDrill
T1C0.0689
; #@! TA.AperFunction,NonPlated,NPTH,ComponentDrill
T2C0.1570
%
G90
G05
T1
X2.4064Y-4.2398
X2.5001Y-7.2398
X2.5939Y-4.9898
X2.6876Y-5.7398
X2.8064Y-4.2398
X2.8751Y-6.4898
X2.9001Y-7.2398
X2.9939Y-4.9898
X3.0876Y-5.7398
X3.1564Y-4.2398
X3.2751Y-6.4898
X3.4376Y-7.2398
X3.5314Y-4.9898
X3.5564Y-4.2398
X3.7189Y-5.7398
X3.8376Y-7.2398
X3.9064Y-4.2398
X3.9314Y-4.9898
X4.0939Y-6.4898
X4.1189Y-5.7398
X4.2814Y-4.9898
X4.3064Y-4.2398
X4.3751Y-7.2398
X4.4689Y-5.7398
X4.4939Y-6.4898
X4.6564Y-4.2398
X4.6814Y-4.9898
X4.7751Y-7.2398
X4.8439Y-6.4898
X4.8689Y-5.7398
X5.0314Y-4.9898
X5.0564Y-4.2398
X5.2189Y-5.7398
X5.2439Y-6.4898
X5.4064Y-4.2398
X5.4314Y-4.9898
X5.5939Y-6.4898
X5.6189Y-5.7398
X5.7814Y-4.9898
X5.8064Y-4.2398
X5.9689Y-5.7398
X5.9939Y-6.4898
X6.1564Y-4.2398
X6.1814Y-4.9898
X6.3439Y-6.4898
X6.3689Y-5.7398
X6.5314Y-4.9898
X6.5564Y-4.2398
X6.7189Y-5.7398
X6.7439Y-6.4898
X6.9064Y-4.2398
X6.9314Y-4.9898
X7.0939Y-6.4898
X7.1189Y-5.7398
X7.1876Y-7.2398
X7.2814Y-4.9898
X7.3064Y-4.2398
X7.4689Y-5.7398
X7.4939Y-6.4898
X7.5876Y-7.2398
X7.6564Y-4.2398
X7.6814Y-4.9898
X7.8439Y-6.4898
X7.8689Y-5.7398
X8.0314Y-4.9898
X8.0564Y-4.2398
X8.2189Y-5.7398
X8.2439Y-6.4898
X8.4064Y-4.2398
X8.4314Y-4.9898
X8.5939Y-6.4898
X8.6189Y-5.7398
X8.7814Y-4.9898
X8.8064Y-4.2398
X8.9689Y-5.7398
X8.9939Y-6.4898
X9.1564Y-4.2398
X9.1814Y-4.9898
X9.3439Y-6.4898
X9.3689Y-5.7398
X9.5314Y-4.9898
X9.5564Y-4.2398
X9.7189Y-5.7398
X9.7439Y-6.4898
X9.9064Y-4.2398
X9.9064Y-7.2398
X9.9314Y-4.9898
X10.0939Y-6.4898
X10.1189Y-5.7398
X10.2814Y-4.9898
X10.3064Y-4.2398
X10.3064Y-7.2398
X10.4689Y-5.7398
X10.4939Y-6.4898
X10.6564Y-4.2398
X10.6814Y-4.9898
X10.7501Y-7.2398
X10.8439Y-6.4898
X10.8689Y-5.7398
X11.0314Y-4.9898
X11.0564Y-4.2398
X11.1501Y-7.2398
X11.2189Y-5.7398
X11.2439Y-6.4898
X11.4064Y-4.2398
X11.4314Y-4.9898
X11.6189Y-5.7398
X11.6876Y-7.2398
X11.7814Y-4.9898
X11.8064Y-4.2398
X12.0626Y-6.4898
X12.0876Y-7.2398
X12.1814Y-4.9898
X12.4376Y-5.7398
X12.4626Y-6.4898
X12.5314Y-4.2398
X12.5314Y-7.2398
X12.7189Y-4.9898
X12.8376Y-5.7398
X12.9314Y-4.2398
X12.9314Y-7.2398
X13.1189Y-4.9898
X13.2814Y-6.4898
X13.2814Y-7.2398
X13.6814Y-6.4898
X13.6814Y-7.2398
X14.0314Y-7.2398
X14.4314Y-7.2398
T2
X2.6063Y-6.164
X2.6064Y-4.2398
X2.7001Y-7.2398
X2.7939Y-4.9898
X2.8876Y-5.7398
X3.0751Y-6.4898
X3.3564Y-4.2398
X3.5438Y-6.164
X3.6376Y-7.2398
X3.7314Y-4.9898
X3.9189Y-5.7398
X4.1064Y-4.2398
X4.2939Y-6.4898
X4.4814Y-4.9898
X4.5751Y-7.2398
X4.6689Y-5.7398
X4.8564Y-4.2398
X5.0439Y-6.4898
X5.2314Y-4.9898
X5.4167Y-6.9158
X5.4189Y-5.7398
X5.6064Y-4.2398
X5.7939Y-6.4898
X5.9814Y-4.9898
X6.1689Y-5.7398
X6.3564Y-4.2398
X6.5439Y-6.4898
X6.7314Y-4.9898
X6.9189Y-5.7398
X7.1064Y-4.2398
X7.2939Y-6.4898
X7.3876Y-7.2398
X7.4814Y-4.9898
X7.6689Y-5.7398
X7.8564Y-4.2398
X8.0439Y-6.4898
X8.2314Y-4.9898
X8.4189Y-5.7398
X8.6064Y-4.2398
X8.7939Y-6.4898
X8.9814Y-4.9898
X9.1689Y-5.7398
X9.3542Y-6.9158
X9.3564Y-4.2398
X9.5439Y-6.4898
X9.7314Y-4.9898
X9.9189Y-5.7398
X10.1064Y-4.2398
X10.1064Y-7.2398
X10.2939Y-6.4898
X10.4814Y-4.9898
X10.6689Y-5.7398
X10.8564Y-4.2398
X10.9501Y-7.2398
X11.0439Y-6.4898
X11.2314Y-4.9898
X11.4189Y-5.7398
X11.6064Y-4.2398
X11.7938Y-6.164
X11.8876Y-7.2398
X11.9814Y-4.9898
X12.1688Y-5.415
X12.2623Y-4.564
X12.2626Y-6.4898
X12.6376Y-5.7398
X12.7313Y-6.164
X12.7314Y-4.2398
X12.7314Y-7.2398
X12.9189Y-4.9898
X13.1063Y-5.415
X13.1998Y-4.564
X13.4814Y-6.4898
X13.4814Y-7.2398
X14.2314Y-7.2398
T0
M30
