%TF.GenerationSoftware,KiCad,Pcbnew,7.0.8*%
%TF.CreationDate,2023-12-03T22:46:55+07:00*%
%TF.ProjectId,pcb,7063622e-6b69-4636-9164-5f7063625858,rev?*%
%TF.SameCoordinates,Original*%
%TF.FileFunction,Soldermask,Top*%
%TF.FilePolarity,Negative*%
%FSLAX46Y46*%
G04 Gerber Fmt 4.6, Leading zero omitted, Abs format (unit mm)*
G04 Created by KiCad (PCBNEW 7.0.8) date 2023-12-03 22:46:55*
%MOMM*%
%LPD*%
G01*
G04 APERTURE LIST*
%ADD10R,1.700000X3.500000*%
%ADD11O,1.700000X1.700000*%
%ADD12R,1.700000X1.700000*%
%ADD13R,3.500000X1.700000*%
%ADD14C,3.987800*%
%ADD15C,3.300000*%
%ADD16C,1.750000*%
%ADD17O,1.600000X1.600000*%
%ADD18R,1.600000X1.600000*%
G04 APERTURE END LIST*
D10*
%TO.C,U1*%
X357980000Y-148495000D03*
D11*
X357980000Y-147595000D03*
D10*
X355440000Y-148495000D03*
D12*
X355440000Y-147595000D03*
D10*
X352900000Y-148495000D03*
D11*
X352900000Y-147595000D03*
D13*
X365230000Y-99565000D03*
D11*
X364330000Y-99565000D03*
D13*
X365230000Y-102105000D03*
D11*
X364330000Y-102105000D03*
D13*
X365230000Y-104645000D03*
D12*
X364330000Y-104645000D03*
D13*
X365230000Y-107185000D03*
D11*
X364330000Y-107185000D03*
D13*
X365230000Y-109725000D03*
D11*
X364330000Y-109725000D03*
D13*
X365230000Y-112265000D03*
D11*
X364330000Y-112265000D03*
D13*
X365230000Y-114805000D03*
D11*
X364330000Y-114805000D03*
D13*
X365230000Y-117345000D03*
D12*
X364330000Y-117345000D03*
D13*
X365230000Y-119885000D03*
D11*
X364330000Y-119885000D03*
D13*
X365230000Y-122425000D03*
D11*
X364330000Y-122425000D03*
D13*
X365230000Y-124965000D03*
D11*
X364330000Y-124965000D03*
D13*
X365230000Y-127505000D03*
D11*
X364330000Y-127505000D03*
D13*
X365230000Y-130045000D03*
D12*
X364330000Y-130045000D03*
D13*
X365230000Y-132585000D03*
D11*
X364330000Y-132585000D03*
D13*
X365230000Y-135125000D03*
D11*
X364330000Y-135125000D03*
D13*
X365230000Y-137665000D03*
D11*
X364330000Y-137665000D03*
D13*
X365230000Y-140205000D03*
D11*
X364330000Y-140205000D03*
D13*
X365230000Y-142745000D03*
D12*
X364330000Y-142745000D03*
D13*
X365230000Y-145285000D03*
D11*
X364330000Y-145285000D03*
D13*
X365230000Y-147825000D03*
D11*
X364330000Y-147825000D03*
D13*
X345650000Y-147825000D03*
D11*
X346550000Y-147825000D03*
D13*
X345650000Y-145285000D03*
D11*
X346550000Y-145285000D03*
D13*
X345650000Y-142745000D03*
D12*
X346550000Y-142745000D03*
D13*
X345650000Y-140205000D03*
D11*
X346550000Y-140205000D03*
D13*
X345650000Y-137665000D03*
D11*
X346550000Y-137665000D03*
D13*
X345650000Y-135125000D03*
D11*
X346550000Y-135125000D03*
D13*
X345650000Y-132585000D03*
D11*
X346550000Y-132585000D03*
D13*
X345650000Y-130045000D03*
D12*
X346550000Y-130045000D03*
D13*
X345650000Y-127505000D03*
D11*
X346550000Y-127505000D03*
D13*
X345650000Y-124965000D03*
D11*
X346550000Y-124965000D03*
D13*
X345650000Y-122425000D03*
D11*
X346550000Y-122425000D03*
D13*
X345650000Y-119885000D03*
D11*
X346550000Y-119885000D03*
D13*
X345650000Y-117345000D03*
D12*
X346550000Y-117345000D03*
D13*
X345650000Y-114805000D03*
D11*
X346550000Y-114805000D03*
D13*
X345650000Y-112265000D03*
D11*
X346550000Y-112265000D03*
D13*
X345650000Y-109725000D03*
D11*
X346550000Y-109725000D03*
D13*
X345650000Y-107185000D03*
D11*
X346550000Y-107185000D03*
D13*
X345650000Y-104645000D03*
D12*
X346550000Y-104645000D03*
D13*
X345650000Y-102105000D03*
D11*
X346550000Y-102105000D03*
D13*
X345650000Y-99565000D03*
D11*
X346550000Y-99565000D03*
%TD*%
D14*
%TO.C,S2*%
X90012500Y-156565000D03*
X66200000Y-156565000D03*
%TD*%
%TO.C,S1*%
X137583750Y-175661950D03*
X237596250Y-175661950D03*
%TD*%
%TO.C,S4*%
X309087500Y-137540000D03*
X332900000Y-137540000D03*
%TD*%
D11*
%TO.C,J1*%
X369525000Y-131510000D03*
X369525000Y-128970000D03*
X369525000Y-126430000D03*
D12*
X369525000Y-123890000D03*
%TD*%
D14*
%TO.C,S5*%
X335275000Y-115925000D03*
X311462500Y-115925000D03*
%TD*%
%TO.C,S3*%
X299562500Y-156565000D03*
X323375000Y-156565000D03*
%TD*%
D15*
%TO.C,MX39*%
X268450000Y-150870000D03*
X274800000Y-148330000D03*
D16*
X276070000Y-145790000D03*
D14*
X270990000Y-145790000D03*
D16*
X265910000Y-145790000D03*
%TD*%
D17*
%TO.C,D59*%
X247972500Y-188960000D03*
D18*
X247972500Y-181340000D03*
%TD*%
D15*
%TO.C,MX56*%
X89856250Y-188970000D03*
X96206250Y-186430000D03*
D16*
X97476250Y-183890000D03*
D14*
X92396250Y-183890000D03*
D16*
X87316250Y-183890000D03*
%TD*%
D17*
%TO.C,D32*%
X128910000Y-150860000D03*
D18*
X128910000Y-143240000D03*
%TD*%
D17*
%TO.C,D36*%
X205110000Y-150860000D03*
D18*
X205110000Y-143240000D03*
%TD*%
D15*
%TO.C,MX46*%
X163675000Y-169920000D03*
X170025000Y-167380000D03*
D16*
X171295000Y-164840000D03*
D14*
X166215000Y-164840000D03*
D16*
X161135000Y-164840000D03*
%TD*%
D15*
%TO.C,MX24*%
X244637500Y-131820000D03*
X250987500Y-129280000D03*
D16*
X252257500Y-126740000D03*
D14*
X247177500Y-126740000D03*
D16*
X242097500Y-126740000D03*
%TD*%
D17*
%TO.C,D14*%
X314647500Y-112760000D03*
D18*
X314647500Y-105140000D03*
%TD*%
D15*
%TO.C,MX17*%
X111287500Y-131820000D03*
X117637500Y-129280000D03*
D16*
X118907500Y-126740000D03*
D14*
X113827500Y-126740000D03*
D16*
X108747500Y-126740000D03*
%TD*%
D17*
%TO.C,D13*%
X286072500Y-112760000D03*
D18*
X286072500Y-105140000D03*
%TD*%
D15*
%TO.C,MX11*%
X254162500Y-112770000D03*
X260512500Y-110230000D03*
D16*
X261782500Y-107690000D03*
D14*
X256702500Y-107690000D03*
D16*
X251622500Y-107690000D03*
%TD*%
D17*
%TO.C,D23*%
X219397500Y-131810000D03*
D18*
X219397500Y-124190000D03*
%TD*%
D17*
%TO.C,D8*%
X190822500Y-112760000D03*
D18*
X190822500Y-105140000D03*
%TD*%
D17*
%TO.C,D22*%
X200347500Y-131810000D03*
D18*
X200347500Y-124190000D03*
%TD*%
D17*
%TO.C,D34*%
X167010000Y-150860000D03*
D18*
X167010000Y-143240000D03*
%TD*%
D17*
%TO.C,D17*%
X105097500Y-131810000D03*
D18*
X105097500Y-124190000D03*
%TD*%
D17*
%TO.C,D42*%
X69378750Y-169910000D03*
D18*
X69378750Y-162290000D03*
%TD*%
D17*
%TO.C,D50*%
X233685000Y-169910000D03*
D18*
X233685000Y-162290000D03*
%TD*%
D15*
%TO.C,MX12*%
X273212500Y-112770000D03*
X279562500Y-110230000D03*
D16*
X280832500Y-107690000D03*
D14*
X275752500Y-107690000D03*
D16*
X270672500Y-107690000D03*
%TD*%
D17*
%TO.C,D56*%
X83666250Y-188960000D03*
D18*
X83666250Y-181340000D03*
%TD*%
D15*
%TO.C,MX64*%
X358937500Y-188970000D03*
X365287500Y-186430000D03*
D16*
X366557500Y-183890000D03*
D14*
X361477500Y-183890000D03*
D16*
X356397500Y-183890000D03*
%TD*%
D17*
%TO.C,D24*%
X238447500Y-131810000D03*
D18*
X238447500Y-124190000D03*
%TD*%
D15*
%TO.C,MX15*%
X68425000Y-131820000D03*
X74775000Y-129280000D03*
D16*
X76045000Y-126740000D03*
D14*
X70965000Y-126740000D03*
D16*
X65885000Y-126740000D03*
%TD*%
D17*
%TO.C,D41*%
X312266250Y-150860000D03*
D18*
X312266250Y-143240000D03*
%TD*%
D15*
%TO.C,MX45*%
X144625000Y-169920000D03*
X150975000Y-167380000D03*
D16*
X152245000Y-164840000D03*
D14*
X147165000Y-164840000D03*
D16*
X142085000Y-164840000D03*
%TD*%
D15*
%TO.C,MX26*%
X282737500Y-131820000D03*
X289087500Y-129280000D03*
D16*
X290357500Y-126740000D03*
D14*
X285277500Y-126740000D03*
D16*
X280197500Y-126740000D03*
%TD*%
D15*
%TO.C,MX14*%
X320837500Y-112770000D03*
X327187500Y-110230000D03*
D16*
X328457500Y-107690000D03*
D14*
X323377500Y-107690000D03*
D16*
X318297500Y-107690000D03*
%TD*%
D15*
%TO.C,MX29*%
X70806250Y-150870000D03*
X77156250Y-148330000D03*
D16*
X78426250Y-145790000D03*
D14*
X73346250Y-145790000D03*
D16*
X68266250Y-145790000D03*
%TD*%
D17*
%TO.C,D44*%
X119385000Y-169910000D03*
D18*
X119385000Y-162290000D03*
%TD*%
D17*
%TO.C,D20*%
X162247500Y-131810000D03*
D18*
X162247500Y-124190000D03*
%TD*%
D17*
%TO.C,D31*%
X109860000Y-150860000D03*
D18*
X109860000Y-143240000D03*
%TD*%
D15*
%TO.C,MX34*%
X173200000Y-150870000D03*
X179550000Y-148330000D03*
D16*
X180820000Y-145790000D03*
D14*
X175740000Y-145790000D03*
D16*
X170660000Y-145790000D03*
%TD*%
D15*
%TO.C,MX49*%
X220825000Y-169920000D03*
X227175000Y-167380000D03*
D16*
X228445000Y-164840000D03*
D14*
X223365000Y-164840000D03*
D16*
X218285000Y-164840000D03*
%TD*%
D15*
%TO.C,MX28*%
X325600000Y-131820000D03*
X331950000Y-129280000D03*
D16*
X333220000Y-126740000D03*
D14*
X328140000Y-126740000D03*
D16*
X323060000Y-126740000D03*
%TD*%
D15*
%TO.C,MX23*%
X225587500Y-131820000D03*
X231937500Y-129280000D03*
D16*
X233207500Y-126740000D03*
D14*
X228127500Y-126740000D03*
D16*
X223047500Y-126740000D03*
%TD*%
D17*
%TO.C,D37*%
X224160000Y-150860000D03*
D18*
X224160000Y-143240000D03*
%TD*%
D17*
%TO.C,D1*%
X58285000Y-117430000D03*
D18*
X65905000Y-117430000D03*
%TD*%
D15*
%TO.C,MX37*%
X230350000Y-150870000D03*
X236700000Y-148330000D03*
D16*
X237970000Y-145790000D03*
D14*
X232890000Y-145790000D03*
D16*
X227810000Y-145790000D03*
%TD*%
D17*
%TO.C,D54*%
X333697500Y-169910000D03*
D18*
X333697500Y-162290000D03*
%TD*%
D15*
%TO.C,MX16*%
X92237500Y-131820000D03*
X98587500Y-129280000D03*
D16*
X99857500Y-126740000D03*
D14*
X94777500Y-126740000D03*
D16*
X89697500Y-126740000D03*
%TD*%
D17*
%TO.C,D25*%
X257497500Y-131810000D03*
D18*
X257497500Y-124190000D03*
%TD*%
D17*
%TO.C,D29*%
X64616250Y-150860000D03*
D18*
X64616250Y-143240000D03*
%TD*%
D17*
%TO.C,D45*%
X138435000Y-169910000D03*
D18*
X138435000Y-162290000D03*
%TD*%
D15*
%TO.C,MX42*%
X75568750Y-169920000D03*
X81918750Y-167380000D03*
D16*
X83188750Y-164840000D03*
D14*
X78108750Y-164840000D03*
D16*
X73028750Y-164840000D03*
%TD*%
D15*
%TO.C,MX5*%
X139862500Y-112770000D03*
X146212500Y-110230000D03*
D16*
X147482500Y-107690000D03*
D14*
X142402500Y-107690000D03*
D16*
X137322500Y-107690000D03*
%TD*%
D17*
%TO.C,D49*%
X214635000Y-169910000D03*
D18*
X214635000Y-162290000D03*
%TD*%
D17*
%TO.C,D4*%
X114622500Y-112760000D03*
D18*
X114622500Y-105140000D03*
%TD*%
D15*
%TO.C,MX60*%
X275593750Y-188970000D03*
X281943750Y-186430000D03*
D16*
X283213750Y-183890000D03*
D14*
X278133750Y-183890000D03*
D16*
X273053750Y-183890000D03*
%TD*%
D15*
%TO.C,MX13*%
X292262500Y-112770000D03*
X298612500Y-110230000D03*
D16*
X299882500Y-107690000D03*
D14*
X294802500Y-107690000D03*
D16*
X289722500Y-107690000D03*
%TD*%
D17*
%TO.C,D15*%
X62235000Y-131810000D03*
D18*
X62235000Y-124190000D03*
%TD*%
D15*
%TO.C,MX21*%
X187487500Y-131820000D03*
X193837500Y-129280000D03*
D16*
X195107500Y-126740000D03*
D14*
X190027500Y-126740000D03*
D16*
X184947500Y-126740000D03*
%TD*%
D17*
%TO.C,D39*%
X262260000Y-150860000D03*
D18*
X262260000Y-143240000D03*
%TD*%
D17*
%TO.C,D64*%
X352747500Y-188960000D03*
D18*
X352747500Y-181340000D03*
%TD*%
D15*
%TO.C,MX22*%
X206537500Y-131820000D03*
X212887500Y-129280000D03*
D16*
X214157500Y-126740000D03*
D14*
X209077500Y-126740000D03*
D16*
X203997500Y-126740000D03*
%TD*%
D15*
%TO.C,MX38*%
X249400000Y-150870000D03*
X255750000Y-148330000D03*
D16*
X257020000Y-145790000D03*
D14*
X251940000Y-145790000D03*
D16*
X246860000Y-145790000D03*
%TD*%
D15*
%TO.C,MX63*%
X339887500Y-188970000D03*
X346237500Y-186430000D03*
D16*
X347507500Y-183890000D03*
D14*
X342427500Y-183890000D03*
D16*
X337347500Y-183890000D03*
%TD*%
D17*
%TO.C,D27*%
X295597500Y-131810000D03*
D18*
X295597500Y-124190000D03*
%TD*%
D17*
%TO.C,D40*%
X281310000Y-150860000D03*
D18*
X281310000Y-143240000D03*
%TD*%
D17*
%TO.C,D9*%
X209872500Y-112760000D03*
D18*
X209872500Y-105140000D03*
%TD*%
D15*
%TO.C,MX27*%
X301787500Y-131820000D03*
X308137500Y-129280000D03*
D16*
X309407500Y-126740000D03*
D14*
X304327500Y-126740000D03*
D16*
X299247500Y-126740000D03*
%TD*%
D17*
%TO.C,D58*%
X178916250Y-188960000D03*
D18*
X178916250Y-181340000D03*
%TD*%
D15*
%TO.C,MX57*%
X113668750Y-188970000D03*
X120018750Y-186430000D03*
D16*
X121288750Y-183890000D03*
D14*
X116208750Y-183890000D03*
D16*
X111128750Y-183890000D03*
%TD*%
D17*
%TO.C,D57*%
X107478750Y-188960000D03*
D18*
X107478750Y-181340000D03*
%TD*%
D15*
%TO.C,MX3*%
X101762500Y-112770000D03*
X108112500Y-110230000D03*
D16*
X109382500Y-107690000D03*
D14*
X104302500Y-107690000D03*
D16*
X99222500Y-107690000D03*
%TD*%
D15*
%TO.C,MX18*%
X130337500Y-131820000D03*
X136687500Y-129280000D03*
D16*
X137957500Y-126740000D03*
D14*
X132877500Y-126740000D03*
D16*
X127797500Y-126740000D03*
%TD*%
D17*
%TO.C,D12*%
X267022500Y-112760000D03*
D18*
X267022500Y-105140000D03*
%TD*%
D17*
%TO.C,D21*%
X181297500Y-131810000D03*
D18*
X181297500Y-124190000D03*
%TD*%
D17*
%TO.C,D48*%
X195585000Y-169910000D03*
D18*
X195585000Y-162290000D03*
%TD*%
D17*
%TO.C,D60*%
X269403750Y-188960000D03*
D18*
X269403750Y-181340000D03*
%TD*%
D15*
%TO.C,MX6*%
X158912500Y-112770000D03*
X165262500Y-110230000D03*
D16*
X166532500Y-107690000D03*
D14*
X161452500Y-107690000D03*
D16*
X156372500Y-107690000D03*
%TD*%
D15*
%TO.C,MX44*%
X125575000Y-169920000D03*
X131925000Y-167380000D03*
D16*
X133195000Y-164840000D03*
D14*
X128115000Y-164840000D03*
D16*
X123035000Y-164840000D03*
%TD*%
D17*
%TO.C,D35*%
X186060000Y-150860000D03*
D18*
X186060000Y-143240000D03*
%TD*%
D15*
%TO.C,MX10*%
X235112500Y-112770000D03*
X241462500Y-110230000D03*
D16*
X242732500Y-107690000D03*
D14*
X237652500Y-107690000D03*
D16*
X232572500Y-107690000D03*
%TD*%
D15*
%TO.C,MX40*%
X287500000Y-150870000D03*
X293850000Y-148330000D03*
D16*
X295120000Y-145790000D03*
D14*
X290040000Y-145790000D03*
D16*
X284960000Y-145790000D03*
%TD*%
D15*
%TO.C,MX41*%
X318456250Y-150870000D03*
X324806250Y-148330000D03*
D16*
X326076250Y-145790000D03*
D14*
X320996250Y-145790000D03*
D16*
X315916250Y-145790000D03*
%TD*%
D15*
%TO.C,MX54*%
X339887500Y-169920000D03*
X346237500Y-167380000D03*
D16*
X347507500Y-164840000D03*
D14*
X342427500Y-164840000D03*
D16*
X337347500Y-164840000D03*
%TD*%
D15*
%TO.C,MX2*%
X82712500Y-112770000D03*
X89062500Y-110230000D03*
D16*
X90332500Y-107690000D03*
D14*
X85252500Y-107690000D03*
D16*
X80172500Y-107690000D03*
%TD*%
D17*
%TO.C,D55*%
X59853750Y-188960000D03*
D18*
X59853750Y-181340000D03*
%TD*%
D15*
%TO.C,MX7*%
X177962500Y-112770000D03*
X184312500Y-110230000D03*
D16*
X185582500Y-107690000D03*
D14*
X180502500Y-107690000D03*
D16*
X175422500Y-107690000D03*
%TD*%
D17*
%TO.C,D6*%
X152722500Y-112760000D03*
D18*
X152722500Y-105140000D03*
%TD*%
D15*
%TO.C,MX9*%
X216062500Y-112770000D03*
X222412500Y-110230000D03*
D16*
X223682500Y-107690000D03*
D14*
X218602500Y-107690000D03*
D16*
X213522500Y-107690000D03*
%TD*%
D17*
%TO.C,D33*%
X147960000Y-150860000D03*
D18*
X147960000Y-143240000D03*
%TD*%
D17*
%TO.C,D30*%
X90810000Y-150860000D03*
D18*
X90810000Y-143240000D03*
%TD*%
D15*
%TO.C,MX35*%
X192250000Y-150870000D03*
X198600000Y-148330000D03*
D16*
X199870000Y-145790000D03*
D14*
X194790000Y-145790000D03*
D16*
X189710000Y-145790000D03*
%TD*%
D15*
%TO.C,MX31*%
X116050000Y-150870000D03*
X122400000Y-148330000D03*
D16*
X123670000Y-145790000D03*
D14*
X118590000Y-145790000D03*
D16*
X113510000Y-145790000D03*
%TD*%
D17*
%TO.C,D7*%
X171772500Y-112760000D03*
D18*
X171772500Y-105140000D03*
%TD*%
D17*
%TO.C,D43*%
X100335000Y-169910000D03*
D18*
X100335000Y-162290000D03*
%TD*%
D17*
%TO.C,D51*%
X252735000Y-169910000D03*
D18*
X252735000Y-162290000D03*
%TD*%
D17*
%TO.C,D19*%
X143197500Y-131810000D03*
D18*
X143197500Y-124190000D03*
%TD*%
D17*
%TO.C,D47*%
X176535000Y-169910000D03*
D18*
X176535000Y-162290000D03*
%TD*%
D15*
%TO.C,MX58*%
X185106250Y-188970000D03*
X191456250Y-186430000D03*
D16*
X192726250Y-183890000D03*
D14*
X187646250Y-183890000D03*
D16*
X182566250Y-183890000D03*
%TD*%
D15*
%TO.C,MX53*%
X308931250Y-169920000D03*
X315281250Y-167380000D03*
D16*
X316551250Y-164840000D03*
D14*
X311471250Y-164840000D03*
D16*
X306391250Y-164840000D03*
%TD*%
D15*
%TO.C,MX20*%
X168437500Y-131820000D03*
X174787500Y-129280000D03*
D16*
X176057500Y-126740000D03*
D14*
X170977500Y-126740000D03*
D16*
X165897500Y-126740000D03*
%TD*%
D15*
%TO.C,MX32*%
X135100000Y-150870000D03*
X141450000Y-148330000D03*
D16*
X142720000Y-145790000D03*
D14*
X137640000Y-145790000D03*
D16*
X132560000Y-145790000D03*
%TD*%
D17*
%TO.C,D38*%
X243210000Y-150860000D03*
D18*
X243210000Y-143240000D03*
%TD*%
D15*
%TO.C,MX19*%
X149387500Y-131820000D03*
X155737500Y-129280000D03*
D16*
X157007500Y-126740000D03*
D14*
X151927500Y-126740000D03*
D16*
X146847500Y-126740000D03*
%TD*%
D17*
%TO.C,D53*%
X302741250Y-169910000D03*
D18*
X302741250Y-162290000D03*
%TD*%
D15*
%TO.C,MX50*%
X239875000Y-169920000D03*
X246225000Y-167380000D03*
D16*
X247495000Y-164840000D03*
D14*
X242415000Y-164840000D03*
D16*
X237335000Y-164840000D03*
%TD*%
D15*
%TO.C,MX1*%
X63662500Y-112770000D03*
X70012500Y-110230000D03*
D16*
X71282500Y-107690000D03*
D14*
X66202500Y-107690000D03*
D16*
X61122500Y-107690000D03*
%TD*%
D15*
%TO.C,MX55*%
X66043750Y-188970000D03*
X72393750Y-186430000D03*
D16*
X73663750Y-183890000D03*
D14*
X68583750Y-183890000D03*
D16*
X63503750Y-183890000D03*
%TD*%
D15*
%TO.C,MX62*%
X320837500Y-188970000D03*
X327187500Y-186430000D03*
D16*
X328457500Y-183890000D03*
D14*
X323377500Y-183890000D03*
D16*
X318297500Y-183890000D03*
%TD*%
D17*
%TO.C,D63*%
X333697500Y-188960000D03*
D18*
X333697500Y-181340000D03*
%TD*%
D15*
%TO.C,MX25*%
X263687500Y-131820000D03*
X270037500Y-129280000D03*
D16*
X271307500Y-126740000D03*
D14*
X266227500Y-126740000D03*
D16*
X261147500Y-126740000D03*
%TD*%
D17*
%TO.C,D28*%
X319410000Y-131810000D03*
D18*
X319410000Y-124190000D03*
%TD*%
D15*
%TO.C,MX51*%
X258925000Y-169920000D03*
X265275000Y-167380000D03*
D16*
X266545000Y-164840000D03*
D14*
X261465000Y-164840000D03*
D16*
X256385000Y-164840000D03*
%TD*%
D15*
%TO.C,MX8*%
X197012500Y-112770000D03*
X203362500Y-110230000D03*
D16*
X204632500Y-107690000D03*
D14*
X199552500Y-107690000D03*
D16*
X194472500Y-107690000D03*
%TD*%
D17*
%TO.C,D2*%
X76522500Y-112760000D03*
D18*
X76522500Y-105140000D03*
%TD*%
D15*
%TO.C,MX52*%
X277975000Y-169920000D03*
X284325000Y-167380000D03*
D16*
X285595000Y-164840000D03*
D14*
X280515000Y-164840000D03*
D16*
X275435000Y-164840000D03*
%TD*%
D15*
%TO.C,MX33*%
X154150000Y-150870000D03*
X160500000Y-148330000D03*
D16*
X161770000Y-145790000D03*
D14*
X156690000Y-145790000D03*
D16*
X151610000Y-145790000D03*
%TD*%
D17*
%TO.C,D62*%
X314647500Y-188960000D03*
D18*
X314647500Y-181340000D03*
%TD*%
D17*
%TO.C,D16*%
X86047500Y-131810000D03*
D18*
X86047500Y-124190000D03*
%TD*%
D15*
%TO.C,MX47*%
X182725000Y-169920000D03*
X189075000Y-167380000D03*
D16*
X190345000Y-164840000D03*
D14*
X185265000Y-164840000D03*
D16*
X180185000Y-164840000D03*
%TD*%
D15*
%TO.C,MX43*%
X106525000Y-169920000D03*
X112875000Y-167380000D03*
D16*
X114145000Y-164840000D03*
D14*
X109065000Y-164840000D03*
D16*
X103985000Y-164840000D03*
%TD*%
D17*
%TO.C,D26*%
X276547500Y-131810000D03*
D18*
X276547500Y-124190000D03*
%TD*%
D15*
%TO.C,MX59*%
X254162500Y-188970000D03*
X260512500Y-186430000D03*
D16*
X261782500Y-183890000D03*
D14*
X256702500Y-183890000D03*
D16*
X251622500Y-183890000D03*
%TD*%
D17*
%TO.C,D11*%
X247972500Y-112760000D03*
D18*
X247972500Y-105140000D03*
%TD*%
D17*
%TO.C,D46*%
X157485000Y-169910000D03*
D18*
X157485000Y-162290000D03*
%TD*%
D17*
%TO.C,D10*%
X228922500Y-112760000D03*
D18*
X228922500Y-105140000D03*
%TD*%
D15*
%TO.C,MX48*%
X201775000Y-169920000D03*
X208125000Y-167380000D03*
D16*
X209395000Y-164840000D03*
D14*
X204315000Y-164840000D03*
D16*
X199235000Y-164840000D03*
%TD*%
D15*
%TO.C,MX36*%
X211300000Y-150870000D03*
X217650000Y-148330000D03*
D16*
X218920000Y-145790000D03*
D14*
X213840000Y-145790000D03*
D16*
X208760000Y-145790000D03*
%TD*%
D15*
%TO.C,MX4*%
X120812500Y-112770000D03*
X127162500Y-110230000D03*
D16*
X128432500Y-107690000D03*
D14*
X123352500Y-107690000D03*
D16*
X118272500Y-107690000D03*
%TD*%
D15*
%TO.C,MX30*%
X97000000Y-150870000D03*
X103350000Y-148330000D03*
D16*
X104620000Y-145790000D03*
D14*
X99540000Y-145790000D03*
D16*
X94460000Y-145790000D03*
%TD*%
D17*
%TO.C,D61*%
X293216250Y-188960000D03*
D18*
X293216250Y-181340000D03*
%TD*%
D15*
%TO.C,MX61*%
X299406250Y-188970000D03*
X305756250Y-186430000D03*
D16*
X307026250Y-183890000D03*
D14*
X301946250Y-183890000D03*
D16*
X296866250Y-183890000D03*
%TD*%
D17*
%TO.C,D52*%
X271785000Y-169910000D03*
D18*
X271785000Y-162290000D03*
%TD*%
D17*
%TO.C,D5*%
X133672500Y-112760000D03*
D18*
X133672500Y-105140000D03*
%TD*%
D17*
%TO.C,D3*%
X95572500Y-112760000D03*
D18*
X95572500Y-105140000D03*
%TD*%
D17*
%TO.C,D18*%
X124147500Y-131810000D03*
D18*
X124147500Y-124190000D03*
%TD*%
M02*
