%TF.GenerationSoftware,KiCad,Pcbnew,7.0.8*%
%TF.CreationDate,2024-01-28T12:44:37+07:00*%
%TF.ProjectId,pcb,7063622e-6b69-4636-9164-5f7063625858,rev?*%
%TF.SameCoordinates,Original*%
%TF.FileFunction,Paste,Bot*%
%TF.FilePolarity,Positive*%
%FSLAX46Y46*%
G04 Gerber Fmt 4.6, Leading zero omitted, Abs format (unit mm)*
G04 Created by KiCad (PCBNEW 7.0.8) date 2024-01-28 12:44:37*
%MOMM*%
%LPD*%
G01*
G04 APERTURE LIST*
G04 Aperture macros list*
%AMRoundRect*
0 Rectangle with rounded corners*
0 $1 Rounding radius*
0 $2 $3 $4 $5 $6 $7 $8 $9 X,Y pos of 4 corners*
0 Add a 4 corners polygon primitive as box body*
4,1,4,$2,$3,$4,$5,$6,$7,$8,$9,$2,$3,0*
0 Add four circle primitives for the rounded corners*
1,1,$1+$1,$2,$3*
1,1,$1+$1,$4,$5*
1,1,$1+$1,$6,$7*
1,1,$1+$1,$8,$9*
0 Add four rect primitives between the rounded corners*
20,1,$1+$1,$2,$3,$4,$5,0*
20,1,$1+$1,$4,$5,$6,$7,0*
20,1,$1+$1,$6,$7,$8,$9,0*
20,1,$1+$1,$8,$9,$2,$3,0*%
G04 Aperture macros list end*
%ADD10RoundRect,0.250000X-1.025000X-1.000000X1.025000X-1.000000X1.025000X1.000000X-1.025000X1.000000X0*%
G04 APERTURE END LIST*
D10*
%TO.C,MX14*%
X330737500Y-110230000D03*
X317287500Y-112770000D03*
%TD*%
%TO.C,MX39*%
X278350000Y-148330000D03*
X264900000Y-150870000D03*
%TD*%
%TO.C,MX56*%
X99756250Y-186430000D03*
X86306250Y-188970000D03*
%TD*%
%TO.C,MX46*%
X173575000Y-167380000D03*
X160125000Y-169920000D03*
%TD*%
%TO.C,MX24*%
X254537500Y-129280000D03*
X241087500Y-131820000D03*
%TD*%
%TO.C,MX17*%
X121187500Y-129280000D03*
X107737500Y-131820000D03*
%TD*%
%TO.C,MX11*%
X264062500Y-110230000D03*
X250612500Y-112770000D03*
%TD*%
%TO.C,MX12*%
X283112500Y-110230000D03*
X269662500Y-112770000D03*
%TD*%
%TO.C,MX64*%
X368837500Y-186430000D03*
X355387500Y-188970000D03*
%TD*%
%TO.C,MX15*%
X78325000Y-129280000D03*
X64875000Y-131820000D03*
%TD*%
%TO.C,MX45*%
X154525000Y-167380000D03*
X141075000Y-169920000D03*
%TD*%
%TO.C,MX26*%
X292637500Y-129280000D03*
X279187500Y-131820000D03*
%TD*%
%TO.C,MX29*%
X80706250Y-148330000D03*
X67256250Y-150870000D03*
%TD*%
%TO.C,MX34*%
X183100000Y-148330000D03*
X169650000Y-150870000D03*
%TD*%
%TO.C,MX49*%
X230725000Y-167380000D03*
X217275000Y-169920000D03*
%TD*%
%TO.C,MX28*%
X335500000Y-129280000D03*
X322050000Y-131820000D03*
%TD*%
%TO.C,MX23*%
X235487500Y-129280000D03*
X222037500Y-131820000D03*
%TD*%
%TO.C,MX37*%
X240250000Y-148330000D03*
X226800000Y-150870000D03*
%TD*%
%TO.C,MX16*%
X102137500Y-129280000D03*
X88687500Y-131820000D03*
%TD*%
%TO.C,MX42*%
X85468750Y-167380000D03*
X72018750Y-169920000D03*
%TD*%
%TO.C,MX5*%
X149762500Y-110230000D03*
X136312500Y-112770000D03*
%TD*%
%TO.C,MX60*%
X285493750Y-186430000D03*
X272043750Y-188970000D03*
%TD*%
%TO.C,MX13*%
X302162500Y-110230000D03*
X288712500Y-112770000D03*
%TD*%
%TO.C,MX21*%
X197387500Y-129280000D03*
X183937500Y-131820000D03*
%TD*%
%TO.C,MX22*%
X216437500Y-129280000D03*
X202987500Y-131820000D03*
%TD*%
%TO.C,MX38*%
X259300000Y-148330000D03*
X245850000Y-150870000D03*
%TD*%
%TO.C,MX63*%
X349787500Y-186430000D03*
X336337500Y-188970000D03*
%TD*%
%TO.C,MX27*%
X311687500Y-129280000D03*
X298237500Y-131820000D03*
%TD*%
%TO.C,MX57*%
X123568750Y-186430000D03*
X110118750Y-188970000D03*
%TD*%
%TO.C,MX3*%
X111662500Y-110230000D03*
X98212500Y-112770000D03*
%TD*%
%TO.C,MX18*%
X140237500Y-129280000D03*
X126787500Y-131820000D03*
%TD*%
%TO.C,MX6*%
X168812500Y-110230000D03*
X155362500Y-112770000D03*
%TD*%
%TO.C,MX44*%
X135475000Y-167380000D03*
X122025000Y-169920000D03*
%TD*%
%TO.C,MX10*%
X245012500Y-110230000D03*
X231562500Y-112770000D03*
%TD*%
%TO.C,MX40*%
X297400000Y-148330000D03*
X283950000Y-150870000D03*
%TD*%
%TO.C,MX41*%
X328356250Y-148330000D03*
X314906250Y-150870000D03*
%TD*%
%TO.C,MX54*%
X349787500Y-167380000D03*
X336337500Y-169920000D03*
%TD*%
%TO.C,MX2*%
X92612500Y-110230000D03*
X79162500Y-112770000D03*
%TD*%
%TO.C,MX7*%
X187862500Y-110230000D03*
X174412500Y-112770000D03*
%TD*%
%TO.C,MX9*%
X225962500Y-110230000D03*
X212512500Y-112770000D03*
%TD*%
%TO.C,MX35*%
X202150000Y-148330000D03*
X188700000Y-150870000D03*
%TD*%
%TO.C,MX31*%
X125950000Y-148330000D03*
X112500000Y-150870000D03*
%TD*%
%TO.C,MX58*%
X195006250Y-186430000D03*
X181556250Y-188970000D03*
%TD*%
%TO.C,MX53*%
X318831250Y-167380000D03*
X305381250Y-169920000D03*
%TD*%
%TO.C,MX20*%
X178337500Y-129280000D03*
X164887500Y-131820000D03*
%TD*%
%TO.C,MX32*%
X145000000Y-148330000D03*
X131550000Y-150870000D03*
%TD*%
%TO.C,MX19*%
X159287500Y-129280000D03*
X145837500Y-131820000D03*
%TD*%
%TO.C,MX50*%
X249775000Y-167380000D03*
X236325000Y-169920000D03*
%TD*%
%TO.C,MX1*%
X73562500Y-110230000D03*
X60112500Y-112770000D03*
%TD*%
%TO.C,MX55*%
X75943750Y-186430000D03*
X62493750Y-188970000D03*
%TD*%
%TO.C,MX62*%
X330737500Y-186430000D03*
X317287500Y-188970000D03*
%TD*%
%TO.C,MX25*%
X273587500Y-129280000D03*
X260137500Y-131820000D03*
%TD*%
%TO.C,MX51*%
X268825000Y-167380000D03*
X255375000Y-169920000D03*
%TD*%
%TO.C,MX8*%
X206912500Y-110230000D03*
X193462500Y-112770000D03*
%TD*%
%TO.C,MX52*%
X287875000Y-167380000D03*
X274425000Y-169920000D03*
%TD*%
%TO.C,MX33*%
X164050000Y-148330000D03*
X150600000Y-150870000D03*
%TD*%
%TO.C,MX47*%
X192625000Y-167380000D03*
X179175000Y-169920000D03*
%TD*%
%TO.C,MX43*%
X116425000Y-167380000D03*
X102975000Y-169920000D03*
%TD*%
%TO.C,MX59*%
X264062500Y-186430000D03*
X250612500Y-188970000D03*
%TD*%
%TO.C,MX48*%
X211675000Y-167380000D03*
X198225000Y-169920000D03*
%TD*%
%TO.C,MX36*%
X221200000Y-148330000D03*
X207750000Y-150870000D03*
%TD*%
%TO.C,MX4*%
X130712500Y-110230000D03*
X117262500Y-112770000D03*
%TD*%
%TO.C,MX30*%
X106900000Y-148330000D03*
X93450000Y-150870000D03*
%TD*%
%TO.C,MX61*%
X309306250Y-186430000D03*
X295856250Y-188970000D03*
%TD*%
M02*
