%TF.GenerationSoftware,KiCad,Pcbnew,7.0.8*%
%TF.CreationDate,2023-12-03T22:46:55+07:00*%
%TF.ProjectId,pcb,7063622e-6b69-4636-9164-5f7063625858,rev?*%
%TF.SameCoordinates,Original*%
%TF.FileFunction,Soldermask,Bot*%
%TF.FilePolarity,Negative*%
%FSLAX46Y46*%
G04 Gerber Fmt 4.6, Leading zero omitted, Abs format (unit mm)*
G04 Created by KiCad (PCBNEW 7.0.8) date 2023-12-03 22:46:55*
%MOMM*%
%LPD*%
G01*
G04 APERTURE LIST*
G04 Aperture macros list*
%AMRoundRect*
0 Rectangle with rounded corners*
0 $1 Rounding radius*
0 $2 $3 $4 $5 $6 $7 $8 $9 X,Y pos of 4 corners*
0 Add a 4 corners polygon primitive as box body*
4,1,4,$2,$3,$4,$5,$6,$7,$8,$9,$2,$3,0*
0 Add four circle primitives for the rounded corners*
1,1,$1+$1,$2,$3*
1,1,$1+$1,$4,$5*
1,1,$1+$1,$6,$7*
1,1,$1+$1,$8,$9*
0 Add four rect primitives between the rounded corners*
20,1,$1+$1,$2,$3,$4,$5,0*
20,1,$1+$1,$4,$5,$6,$7,0*
20,1,$1+$1,$6,$7,$8,$9,0*
20,1,$1+$1,$8,$9,$2,$3,0*%
G04 Aperture macros list end*
%ADD10O,1.700000X1.700000*%
%ADD11R,1.700000X1.700000*%
%ADD12C,4.000000*%
%ADD13C,3.987800*%
%ADD14C,2.000000*%
%ADD15RoundRect,0.550000X0.550000X-1.150000X0.550000X1.150000X-0.550000X1.150000X-0.550000X-1.150000X0*%
%ADD16RoundRect,0.500000X0.500000X-0.500000X0.500000X0.500000X-0.500000X0.500000X-0.500000X-0.500000X0*%
%ADD17C,3.300000*%
%ADD18RoundRect,0.250000X-1.025000X-1.000000X1.025000X-1.000000X1.025000X1.000000X-1.025000X1.000000X0*%
%ADD19C,1.750000*%
%ADD20O,1.600000X1.600000*%
%ADD21R,1.600000X1.600000*%
G04 APERTURE END LIST*
D10*
%TO.C,U1*%
X357980000Y-147595000D03*
D11*
X355440000Y-147595000D03*
D10*
X352900000Y-147595000D03*
X364330000Y-99565000D03*
X364330000Y-102105000D03*
D11*
X364330000Y-104645000D03*
D10*
X364330000Y-107185000D03*
X364330000Y-109725000D03*
X364330000Y-112265000D03*
X364330000Y-114805000D03*
D11*
X364330000Y-117345000D03*
D10*
X364330000Y-119885000D03*
X364330000Y-122425000D03*
X364330000Y-124965000D03*
X364330000Y-127505000D03*
D11*
X364330000Y-130045000D03*
D10*
X364330000Y-132585000D03*
X364330000Y-135125000D03*
X364330000Y-137665000D03*
X364330000Y-140205000D03*
D11*
X364330000Y-142745000D03*
D10*
X364330000Y-145285000D03*
X364330000Y-147825000D03*
X346550000Y-147825000D03*
X346550000Y-145285000D03*
D11*
X346550000Y-142745000D03*
D10*
X346550000Y-140205000D03*
X346550000Y-137665000D03*
X346550000Y-135125000D03*
X346550000Y-132585000D03*
D11*
X346550000Y-130045000D03*
D10*
X346550000Y-127505000D03*
X346550000Y-124965000D03*
X346550000Y-122425000D03*
X346550000Y-119885000D03*
D11*
X346550000Y-117345000D03*
D10*
X346550000Y-114805000D03*
X346550000Y-112265000D03*
X346550000Y-109725000D03*
X346550000Y-107185000D03*
D11*
X346550000Y-104645000D03*
D10*
X346550000Y-102105000D03*
X346550000Y-99565000D03*
%TD*%
D12*
%TO.C,S2*%
X90012500Y-171805000D03*
D13*
X90012500Y-156565000D03*
D12*
X66200000Y-171805000D03*
D13*
X66200000Y-156565000D03*
%TD*%
D14*
%TO.C,en_co1*%
X358975000Y-155315000D03*
X363975000Y-155315000D03*
D15*
X367075000Y-162315000D03*
X355875000Y-162315000D03*
D16*
X361475000Y-169815000D03*
D14*
X363975000Y-169815000D03*
X358975000Y-169815000D03*
%TD*%
D13*
%TO.C,S1*%
X137583750Y-175661950D03*
D12*
X137583750Y-190901950D03*
D13*
X237596250Y-175661950D03*
D12*
X237596250Y-190901950D03*
%TD*%
D13*
%TO.C,S4*%
X309087500Y-137540000D03*
D12*
X309087500Y-152780000D03*
D13*
X332900000Y-137540000D03*
D12*
X332900000Y-152780000D03*
%TD*%
D10*
%TO.C,J1*%
X369525000Y-131510000D03*
X369525000Y-128970000D03*
X369525000Y-126430000D03*
D11*
X369525000Y-123890000D03*
%TD*%
D13*
%TO.C,S5*%
X335275000Y-115925000D03*
D12*
X335275000Y-100685000D03*
D13*
X311462500Y-115925000D03*
D12*
X311462500Y-100685000D03*
%TD*%
D13*
%TO.C,S3*%
X299562500Y-156565000D03*
D12*
X299562500Y-171805000D03*
D13*
X323375000Y-156565000D03*
D12*
X323375000Y-171805000D03*
%TD*%
D17*
%TO.C,MX39*%
X268450000Y-150870000D03*
D18*
X264900000Y-150870000D03*
X278350000Y-148330000D03*
D17*
X274800000Y-148330000D03*
D19*
X276070000Y-145790000D03*
D13*
X270990000Y-145790000D03*
D19*
X265910000Y-145790000D03*
%TD*%
D20*
%TO.C,D59*%
X247972500Y-188960000D03*
D21*
X247972500Y-181340000D03*
%TD*%
D17*
%TO.C,MX56*%
X89856250Y-188970000D03*
D18*
X86306250Y-188970000D03*
X99756250Y-186430000D03*
D17*
X96206250Y-186430000D03*
D19*
X97476250Y-183890000D03*
D13*
X92396250Y-183890000D03*
D19*
X87316250Y-183890000D03*
%TD*%
D20*
%TO.C,D32*%
X128910000Y-150860000D03*
D21*
X128910000Y-143240000D03*
%TD*%
D20*
%TO.C,D36*%
X205110000Y-150860000D03*
D21*
X205110000Y-143240000D03*
%TD*%
D17*
%TO.C,MX46*%
X163675000Y-169920000D03*
D18*
X160125000Y-169920000D03*
X173575000Y-167380000D03*
D17*
X170025000Y-167380000D03*
D19*
X171295000Y-164840000D03*
D13*
X166215000Y-164840000D03*
D19*
X161135000Y-164840000D03*
%TD*%
D17*
%TO.C,MX24*%
X244637500Y-131820000D03*
D18*
X241087500Y-131820000D03*
X254537500Y-129280000D03*
D17*
X250987500Y-129280000D03*
D19*
X252257500Y-126740000D03*
D13*
X247177500Y-126740000D03*
D19*
X242097500Y-126740000D03*
%TD*%
D20*
%TO.C,D14*%
X314647500Y-112760000D03*
D21*
X314647500Y-105140000D03*
%TD*%
D17*
%TO.C,MX17*%
X111287500Y-131820000D03*
D18*
X107737500Y-131820000D03*
X121187500Y-129280000D03*
D17*
X117637500Y-129280000D03*
D19*
X118907500Y-126740000D03*
D13*
X113827500Y-126740000D03*
D19*
X108747500Y-126740000D03*
%TD*%
D20*
%TO.C,D13*%
X286072500Y-112760000D03*
D21*
X286072500Y-105140000D03*
%TD*%
D17*
%TO.C,MX11*%
X254162500Y-112770000D03*
D18*
X250612500Y-112770000D03*
X264062500Y-110230000D03*
D17*
X260512500Y-110230000D03*
D19*
X261782500Y-107690000D03*
D13*
X256702500Y-107690000D03*
D19*
X251622500Y-107690000D03*
%TD*%
D20*
%TO.C,D23*%
X219397500Y-131810000D03*
D21*
X219397500Y-124190000D03*
%TD*%
D20*
%TO.C,D8*%
X190822500Y-112760000D03*
D21*
X190822500Y-105140000D03*
%TD*%
D20*
%TO.C,D22*%
X200347500Y-131810000D03*
D21*
X200347500Y-124190000D03*
%TD*%
D20*
%TO.C,D34*%
X167010000Y-150860000D03*
D21*
X167010000Y-143240000D03*
%TD*%
D20*
%TO.C,D17*%
X105097500Y-131810000D03*
D21*
X105097500Y-124190000D03*
%TD*%
D20*
%TO.C,D42*%
X69378750Y-169910000D03*
D21*
X69378750Y-162290000D03*
%TD*%
D20*
%TO.C,D50*%
X233685000Y-169910000D03*
D21*
X233685000Y-162290000D03*
%TD*%
D17*
%TO.C,MX12*%
X273212500Y-112770000D03*
D18*
X269662500Y-112770000D03*
X283112500Y-110230000D03*
D17*
X279562500Y-110230000D03*
D19*
X280832500Y-107690000D03*
D13*
X275752500Y-107690000D03*
D19*
X270672500Y-107690000D03*
%TD*%
D20*
%TO.C,D56*%
X83666250Y-188960000D03*
D21*
X83666250Y-181340000D03*
%TD*%
D17*
%TO.C,MX64*%
X358937500Y-188970000D03*
D18*
X355387500Y-188970000D03*
X368837500Y-186430000D03*
D17*
X365287500Y-186430000D03*
D19*
X366557500Y-183890000D03*
D13*
X361477500Y-183890000D03*
D19*
X356397500Y-183890000D03*
%TD*%
D20*
%TO.C,D24*%
X238447500Y-131810000D03*
D21*
X238447500Y-124190000D03*
%TD*%
D17*
%TO.C,MX15*%
X68425000Y-131820000D03*
D18*
X64875000Y-131820000D03*
X78325000Y-129280000D03*
D17*
X74775000Y-129280000D03*
D19*
X76045000Y-126740000D03*
D13*
X70965000Y-126740000D03*
D19*
X65885000Y-126740000D03*
%TD*%
D20*
%TO.C,D41*%
X312266250Y-150860000D03*
D21*
X312266250Y-143240000D03*
%TD*%
D17*
%TO.C,MX45*%
X144625000Y-169920000D03*
D18*
X141075000Y-169920000D03*
X154525000Y-167380000D03*
D17*
X150975000Y-167380000D03*
D19*
X152245000Y-164840000D03*
D13*
X147165000Y-164840000D03*
D19*
X142085000Y-164840000D03*
%TD*%
D17*
%TO.C,MX26*%
X282737500Y-131820000D03*
D18*
X279187500Y-131820000D03*
X292637500Y-129280000D03*
D17*
X289087500Y-129280000D03*
D19*
X290357500Y-126740000D03*
D13*
X285277500Y-126740000D03*
D19*
X280197500Y-126740000D03*
%TD*%
D17*
%TO.C,MX14*%
X320837500Y-112770000D03*
D18*
X317287500Y-112770000D03*
X330737500Y-110230000D03*
D17*
X327187500Y-110230000D03*
D19*
X328457500Y-107690000D03*
D13*
X323377500Y-107690000D03*
D19*
X318297500Y-107690000D03*
%TD*%
D17*
%TO.C,MX29*%
X70806250Y-150870000D03*
D18*
X67256250Y-150870000D03*
X80706250Y-148330000D03*
D17*
X77156250Y-148330000D03*
D19*
X78426250Y-145790000D03*
D13*
X73346250Y-145790000D03*
D19*
X68266250Y-145790000D03*
%TD*%
D20*
%TO.C,D44*%
X119385000Y-169910000D03*
D21*
X119385000Y-162290000D03*
%TD*%
D20*
%TO.C,D20*%
X162247500Y-131810000D03*
D21*
X162247500Y-124190000D03*
%TD*%
D20*
%TO.C,D31*%
X109860000Y-150860000D03*
D21*
X109860000Y-143240000D03*
%TD*%
D17*
%TO.C,MX34*%
X173200000Y-150870000D03*
D18*
X169650000Y-150870000D03*
X183100000Y-148330000D03*
D17*
X179550000Y-148330000D03*
D19*
X180820000Y-145790000D03*
D13*
X175740000Y-145790000D03*
D19*
X170660000Y-145790000D03*
%TD*%
D17*
%TO.C,MX49*%
X220825000Y-169920000D03*
D18*
X217275000Y-169920000D03*
X230725000Y-167380000D03*
D17*
X227175000Y-167380000D03*
D19*
X228445000Y-164840000D03*
D13*
X223365000Y-164840000D03*
D19*
X218285000Y-164840000D03*
%TD*%
D17*
%TO.C,MX28*%
X325600000Y-131820000D03*
D18*
X322050000Y-131820000D03*
X335500000Y-129280000D03*
D17*
X331950000Y-129280000D03*
D19*
X333220000Y-126740000D03*
D13*
X328140000Y-126740000D03*
D19*
X323060000Y-126740000D03*
%TD*%
D17*
%TO.C,MX23*%
X225587500Y-131820000D03*
D18*
X222037500Y-131820000D03*
X235487500Y-129280000D03*
D17*
X231937500Y-129280000D03*
D19*
X233207500Y-126740000D03*
D13*
X228127500Y-126740000D03*
D19*
X223047500Y-126740000D03*
%TD*%
D20*
%TO.C,D37*%
X224160000Y-150860000D03*
D21*
X224160000Y-143240000D03*
%TD*%
D20*
%TO.C,D1*%
X58285000Y-117430000D03*
D21*
X65905000Y-117430000D03*
%TD*%
D17*
%TO.C,MX37*%
X230350000Y-150870000D03*
D18*
X226800000Y-150870000D03*
X240250000Y-148330000D03*
D17*
X236700000Y-148330000D03*
D19*
X237970000Y-145790000D03*
D13*
X232890000Y-145790000D03*
D19*
X227810000Y-145790000D03*
%TD*%
D20*
%TO.C,D54*%
X333697500Y-169910000D03*
D21*
X333697500Y-162290000D03*
%TD*%
D17*
%TO.C,MX16*%
X92237500Y-131820000D03*
D18*
X88687500Y-131820000D03*
X102137500Y-129280000D03*
D17*
X98587500Y-129280000D03*
D19*
X99857500Y-126740000D03*
D13*
X94777500Y-126740000D03*
D19*
X89697500Y-126740000D03*
%TD*%
D20*
%TO.C,D25*%
X257497500Y-131810000D03*
D21*
X257497500Y-124190000D03*
%TD*%
D20*
%TO.C,D29*%
X64616250Y-150860000D03*
D21*
X64616250Y-143240000D03*
%TD*%
D20*
%TO.C,D45*%
X138435000Y-169910000D03*
D21*
X138435000Y-162290000D03*
%TD*%
D17*
%TO.C,MX42*%
X75568750Y-169920000D03*
D18*
X72018750Y-169920000D03*
X85468750Y-167380000D03*
D17*
X81918750Y-167380000D03*
D19*
X83188750Y-164840000D03*
D13*
X78108750Y-164840000D03*
D19*
X73028750Y-164840000D03*
%TD*%
D17*
%TO.C,MX5*%
X139862500Y-112770000D03*
D18*
X136312500Y-112770000D03*
X149762500Y-110230000D03*
D17*
X146212500Y-110230000D03*
D19*
X147482500Y-107690000D03*
D13*
X142402500Y-107690000D03*
D19*
X137322500Y-107690000D03*
%TD*%
D20*
%TO.C,D49*%
X214635000Y-169910000D03*
D21*
X214635000Y-162290000D03*
%TD*%
D20*
%TO.C,D4*%
X114622500Y-112760000D03*
D21*
X114622500Y-105140000D03*
%TD*%
D17*
%TO.C,MX60*%
X275593750Y-188970000D03*
D18*
X272043750Y-188970000D03*
X285493750Y-186430000D03*
D17*
X281943750Y-186430000D03*
D19*
X283213750Y-183890000D03*
D13*
X278133750Y-183890000D03*
D19*
X273053750Y-183890000D03*
%TD*%
D17*
%TO.C,MX13*%
X292262500Y-112770000D03*
D18*
X288712500Y-112770000D03*
X302162500Y-110230000D03*
D17*
X298612500Y-110230000D03*
D19*
X299882500Y-107690000D03*
D13*
X294802500Y-107690000D03*
D19*
X289722500Y-107690000D03*
%TD*%
D20*
%TO.C,D15*%
X62235000Y-131810000D03*
D21*
X62235000Y-124190000D03*
%TD*%
D17*
%TO.C,MX21*%
X187487500Y-131820000D03*
D18*
X183937500Y-131820000D03*
X197387500Y-129280000D03*
D17*
X193837500Y-129280000D03*
D19*
X195107500Y-126740000D03*
D13*
X190027500Y-126740000D03*
D19*
X184947500Y-126740000D03*
%TD*%
D20*
%TO.C,D39*%
X262260000Y-150860000D03*
D21*
X262260000Y-143240000D03*
%TD*%
D20*
%TO.C,D64*%
X352747500Y-188960000D03*
D21*
X352747500Y-181340000D03*
%TD*%
D17*
%TO.C,MX22*%
X206537500Y-131820000D03*
D18*
X202987500Y-131820000D03*
X216437500Y-129280000D03*
D17*
X212887500Y-129280000D03*
D19*
X214157500Y-126740000D03*
D13*
X209077500Y-126740000D03*
D19*
X203997500Y-126740000D03*
%TD*%
D17*
%TO.C,MX38*%
X249400000Y-150870000D03*
D18*
X245850000Y-150870000D03*
X259300000Y-148330000D03*
D17*
X255750000Y-148330000D03*
D19*
X257020000Y-145790000D03*
D13*
X251940000Y-145790000D03*
D19*
X246860000Y-145790000D03*
%TD*%
D17*
%TO.C,MX63*%
X339887500Y-188970000D03*
D18*
X336337500Y-188970000D03*
X349787500Y-186430000D03*
D17*
X346237500Y-186430000D03*
D19*
X347507500Y-183890000D03*
D13*
X342427500Y-183890000D03*
D19*
X337347500Y-183890000D03*
%TD*%
D20*
%TO.C,D27*%
X295597500Y-131810000D03*
D21*
X295597500Y-124190000D03*
%TD*%
D20*
%TO.C,D40*%
X281310000Y-150860000D03*
D21*
X281310000Y-143240000D03*
%TD*%
D20*
%TO.C,D9*%
X209872500Y-112760000D03*
D21*
X209872500Y-105140000D03*
%TD*%
D17*
%TO.C,MX27*%
X301787500Y-131820000D03*
D18*
X298237500Y-131820000D03*
X311687500Y-129280000D03*
D17*
X308137500Y-129280000D03*
D19*
X309407500Y-126740000D03*
D13*
X304327500Y-126740000D03*
D19*
X299247500Y-126740000D03*
%TD*%
D20*
%TO.C,D58*%
X178916250Y-188960000D03*
D21*
X178916250Y-181340000D03*
%TD*%
D17*
%TO.C,MX57*%
X113668750Y-188970000D03*
D18*
X110118750Y-188970000D03*
X123568750Y-186430000D03*
D17*
X120018750Y-186430000D03*
D19*
X121288750Y-183890000D03*
D13*
X116208750Y-183890000D03*
D19*
X111128750Y-183890000D03*
%TD*%
D20*
%TO.C,D57*%
X107478750Y-188960000D03*
D21*
X107478750Y-181340000D03*
%TD*%
D17*
%TO.C,MX3*%
X101762500Y-112770000D03*
D18*
X98212500Y-112770000D03*
X111662500Y-110230000D03*
D17*
X108112500Y-110230000D03*
D19*
X109382500Y-107690000D03*
D13*
X104302500Y-107690000D03*
D19*
X99222500Y-107690000D03*
%TD*%
D17*
%TO.C,MX18*%
X130337500Y-131820000D03*
D18*
X126787500Y-131820000D03*
X140237500Y-129280000D03*
D17*
X136687500Y-129280000D03*
D19*
X137957500Y-126740000D03*
D13*
X132877500Y-126740000D03*
D19*
X127797500Y-126740000D03*
%TD*%
D20*
%TO.C,D12*%
X267022500Y-112760000D03*
D21*
X267022500Y-105140000D03*
%TD*%
D20*
%TO.C,D21*%
X181297500Y-131810000D03*
D21*
X181297500Y-124190000D03*
%TD*%
D20*
%TO.C,D48*%
X195585000Y-169910000D03*
D21*
X195585000Y-162290000D03*
%TD*%
D20*
%TO.C,D60*%
X269403750Y-188960000D03*
D21*
X269403750Y-181340000D03*
%TD*%
D17*
%TO.C,MX6*%
X158912500Y-112770000D03*
D18*
X155362500Y-112770000D03*
X168812500Y-110230000D03*
D17*
X165262500Y-110230000D03*
D19*
X166532500Y-107690000D03*
D13*
X161452500Y-107690000D03*
D19*
X156372500Y-107690000D03*
%TD*%
D17*
%TO.C,MX44*%
X125575000Y-169920000D03*
D18*
X122025000Y-169920000D03*
X135475000Y-167380000D03*
D17*
X131925000Y-167380000D03*
D19*
X133195000Y-164840000D03*
D13*
X128115000Y-164840000D03*
D19*
X123035000Y-164840000D03*
%TD*%
D20*
%TO.C,D35*%
X186060000Y-150860000D03*
D21*
X186060000Y-143240000D03*
%TD*%
D17*
%TO.C,MX10*%
X235112500Y-112770000D03*
D18*
X231562500Y-112770000D03*
X245012500Y-110230000D03*
D17*
X241462500Y-110230000D03*
D19*
X242732500Y-107690000D03*
D13*
X237652500Y-107690000D03*
D19*
X232572500Y-107690000D03*
%TD*%
D17*
%TO.C,MX40*%
X287500000Y-150870000D03*
D18*
X283950000Y-150870000D03*
X297400000Y-148330000D03*
D17*
X293850000Y-148330000D03*
D19*
X295120000Y-145790000D03*
D13*
X290040000Y-145790000D03*
D19*
X284960000Y-145790000D03*
%TD*%
D17*
%TO.C,MX41*%
X318456250Y-150870000D03*
D18*
X314906250Y-150870000D03*
X328356250Y-148330000D03*
D17*
X324806250Y-148330000D03*
D19*
X326076250Y-145790000D03*
D13*
X320996250Y-145790000D03*
D19*
X315916250Y-145790000D03*
%TD*%
D17*
%TO.C,MX54*%
X339887500Y-169920000D03*
D18*
X336337500Y-169920000D03*
X349787500Y-167380000D03*
D17*
X346237500Y-167380000D03*
D19*
X347507500Y-164840000D03*
D13*
X342427500Y-164840000D03*
D19*
X337347500Y-164840000D03*
%TD*%
D17*
%TO.C,MX2*%
X82712500Y-112770000D03*
D18*
X79162500Y-112770000D03*
X92612500Y-110230000D03*
D17*
X89062500Y-110230000D03*
D19*
X90332500Y-107690000D03*
D13*
X85252500Y-107690000D03*
D19*
X80172500Y-107690000D03*
%TD*%
D20*
%TO.C,D55*%
X59853750Y-188960000D03*
D21*
X59853750Y-181340000D03*
%TD*%
D17*
%TO.C,MX7*%
X177962500Y-112770000D03*
D18*
X174412500Y-112770000D03*
X187862500Y-110230000D03*
D17*
X184312500Y-110230000D03*
D19*
X185582500Y-107690000D03*
D13*
X180502500Y-107690000D03*
D19*
X175422500Y-107690000D03*
%TD*%
D20*
%TO.C,D6*%
X152722500Y-112760000D03*
D21*
X152722500Y-105140000D03*
%TD*%
D17*
%TO.C,MX9*%
X216062500Y-112770000D03*
D18*
X212512500Y-112770000D03*
X225962500Y-110230000D03*
D17*
X222412500Y-110230000D03*
D19*
X223682500Y-107690000D03*
D13*
X218602500Y-107690000D03*
D19*
X213522500Y-107690000D03*
%TD*%
D20*
%TO.C,D33*%
X147960000Y-150860000D03*
D21*
X147960000Y-143240000D03*
%TD*%
D20*
%TO.C,D30*%
X90810000Y-150860000D03*
D21*
X90810000Y-143240000D03*
%TD*%
D17*
%TO.C,MX35*%
X192250000Y-150870000D03*
D18*
X188700000Y-150870000D03*
X202150000Y-148330000D03*
D17*
X198600000Y-148330000D03*
D19*
X199870000Y-145790000D03*
D13*
X194790000Y-145790000D03*
D19*
X189710000Y-145790000D03*
%TD*%
D17*
%TO.C,MX31*%
X116050000Y-150870000D03*
D18*
X112500000Y-150870000D03*
X125950000Y-148330000D03*
D17*
X122400000Y-148330000D03*
D19*
X123670000Y-145790000D03*
D13*
X118590000Y-145790000D03*
D19*
X113510000Y-145790000D03*
%TD*%
D20*
%TO.C,D7*%
X171772500Y-112760000D03*
D21*
X171772500Y-105140000D03*
%TD*%
D20*
%TO.C,D43*%
X100335000Y-169910000D03*
D21*
X100335000Y-162290000D03*
%TD*%
D20*
%TO.C,D51*%
X252735000Y-169910000D03*
D21*
X252735000Y-162290000D03*
%TD*%
D20*
%TO.C,D19*%
X143197500Y-131810000D03*
D21*
X143197500Y-124190000D03*
%TD*%
D20*
%TO.C,D47*%
X176535000Y-169910000D03*
D21*
X176535000Y-162290000D03*
%TD*%
D17*
%TO.C,MX58*%
X185106250Y-188970000D03*
D18*
X181556250Y-188970000D03*
X195006250Y-186430000D03*
D17*
X191456250Y-186430000D03*
D19*
X192726250Y-183890000D03*
D13*
X187646250Y-183890000D03*
D19*
X182566250Y-183890000D03*
%TD*%
D17*
%TO.C,MX53*%
X308931250Y-169920000D03*
D18*
X305381250Y-169920000D03*
X318831250Y-167380000D03*
D17*
X315281250Y-167380000D03*
D19*
X316551250Y-164840000D03*
D13*
X311471250Y-164840000D03*
D19*
X306391250Y-164840000D03*
%TD*%
D17*
%TO.C,MX20*%
X168437500Y-131820000D03*
D18*
X164887500Y-131820000D03*
X178337500Y-129280000D03*
D17*
X174787500Y-129280000D03*
D19*
X176057500Y-126740000D03*
D13*
X170977500Y-126740000D03*
D19*
X165897500Y-126740000D03*
%TD*%
D17*
%TO.C,MX32*%
X135100000Y-150870000D03*
D18*
X131550000Y-150870000D03*
X145000000Y-148330000D03*
D17*
X141450000Y-148330000D03*
D19*
X142720000Y-145790000D03*
D13*
X137640000Y-145790000D03*
D19*
X132560000Y-145790000D03*
%TD*%
D20*
%TO.C,D38*%
X243210000Y-150860000D03*
D21*
X243210000Y-143240000D03*
%TD*%
D17*
%TO.C,MX19*%
X149387500Y-131820000D03*
D18*
X145837500Y-131820000D03*
X159287500Y-129280000D03*
D17*
X155737500Y-129280000D03*
D19*
X157007500Y-126740000D03*
D13*
X151927500Y-126740000D03*
D19*
X146847500Y-126740000D03*
%TD*%
D20*
%TO.C,D53*%
X302741250Y-169910000D03*
D21*
X302741250Y-162290000D03*
%TD*%
D17*
%TO.C,MX50*%
X239875000Y-169920000D03*
D18*
X236325000Y-169920000D03*
X249775000Y-167380000D03*
D17*
X246225000Y-167380000D03*
D19*
X247495000Y-164840000D03*
D13*
X242415000Y-164840000D03*
D19*
X237335000Y-164840000D03*
%TD*%
D17*
%TO.C,MX1*%
X63662500Y-112770000D03*
D18*
X60112500Y-112770000D03*
X73562500Y-110230000D03*
D17*
X70012500Y-110230000D03*
D19*
X71282500Y-107690000D03*
D13*
X66202500Y-107690000D03*
D19*
X61122500Y-107690000D03*
%TD*%
D17*
%TO.C,MX55*%
X66043750Y-188970000D03*
D18*
X62493750Y-188970000D03*
X75943750Y-186430000D03*
D17*
X72393750Y-186430000D03*
D19*
X73663750Y-183890000D03*
D13*
X68583750Y-183890000D03*
D19*
X63503750Y-183890000D03*
%TD*%
D17*
%TO.C,MX62*%
X320837500Y-188970000D03*
D18*
X317287500Y-188970000D03*
X330737500Y-186430000D03*
D17*
X327187500Y-186430000D03*
D19*
X328457500Y-183890000D03*
D13*
X323377500Y-183890000D03*
D19*
X318297500Y-183890000D03*
%TD*%
D20*
%TO.C,D63*%
X333697500Y-188960000D03*
D21*
X333697500Y-181340000D03*
%TD*%
D17*
%TO.C,MX25*%
X263687500Y-131820000D03*
D18*
X260137500Y-131820000D03*
X273587500Y-129280000D03*
D17*
X270037500Y-129280000D03*
D19*
X271307500Y-126740000D03*
D13*
X266227500Y-126740000D03*
D19*
X261147500Y-126740000D03*
%TD*%
D20*
%TO.C,D28*%
X319410000Y-131810000D03*
D21*
X319410000Y-124190000D03*
%TD*%
D17*
%TO.C,MX51*%
X258925000Y-169920000D03*
D18*
X255375000Y-169920000D03*
X268825000Y-167380000D03*
D17*
X265275000Y-167380000D03*
D19*
X266545000Y-164840000D03*
D13*
X261465000Y-164840000D03*
D19*
X256385000Y-164840000D03*
%TD*%
D17*
%TO.C,MX8*%
X197012500Y-112770000D03*
D18*
X193462500Y-112770000D03*
X206912500Y-110230000D03*
D17*
X203362500Y-110230000D03*
D19*
X204632500Y-107690000D03*
D13*
X199552500Y-107690000D03*
D19*
X194472500Y-107690000D03*
%TD*%
D20*
%TO.C,D2*%
X76522500Y-112760000D03*
D21*
X76522500Y-105140000D03*
%TD*%
D17*
%TO.C,MX52*%
X277975000Y-169920000D03*
D18*
X274425000Y-169920000D03*
X287875000Y-167380000D03*
D17*
X284325000Y-167380000D03*
D19*
X285595000Y-164840000D03*
D13*
X280515000Y-164840000D03*
D19*
X275435000Y-164840000D03*
%TD*%
D17*
%TO.C,MX33*%
X154150000Y-150870000D03*
D18*
X150600000Y-150870000D03*
X164050000Y-148330000D03*
D17*
X160500000Y-148330000D03*
D19*
X161770000Y-145790000D03*
D13*
X156690000Y-145790000D03*
D19*
X151610000Y-145790000D03*
%TD*%
D20*
%TO.C,D62*%
X314647500Y-188960000D03*
D21*
X314647500Y-181340000D03*
%TD*%
D20*
%TO.C,D16*%
X86047500Y-131810000D03*
D21*
X86047500Y-124190000D03*
%TD*%
D17*
%TO.C,MX47*%
X182725000Y-169920000D03*
D18*
X179175000Y-169920000D03*
X192625000Y-167380000D03*
D17*
X189075000Y-167380000D03*
D19*
X190345000Y-164840000D03*
D13*
X185265000Y-164840000D03*
D19*
X180185000Y-164840000D03*
%TD*%
D17*
%TO.C,MX43*%
X106525000Y-169920000D03*
D18*
X102975000Y-169920000D03*
X116425000Y-167380000D03*
D17*
X112875000Y-167380000D03*
D19*
X114145000Y-164840000D03*
D13*
X109065000Y-164840000D03*
D19*
X103985000Y-164840000D03*
%TD*%
D20*
%TO.C,D26*%
X276547500Y-131810000D03*
D21*
X276547500Y-124190000D03*
%TD*%
D17*
%TO.C,MX59*%
X254162500Y-188970000D03*
D18*
X250612500Y-188970000D03*
X264062500Y-186430000D03*
D17*
X260512500Y-186430000D03*
D19*
X261782500Y-183890000D03*
D13*
X256702500Y-183890000D03*
D19*
X251622500Y-183890000D03*
%TD*%
D20*
%TO.C,D11*%
X247972500Y-112760000D03*
D21*
X247972500Y-105140000D03*
%TD*%
D20*
%TO.C,D46*%
X157485000Y-169910000D03*
D21*
X157485000Y-162290000D03*
%TD*%
D20*
%TO.C,D10*%
X228922500Y-112760000D03*
D21*
X228922500Y-105140000D03*
%TD*%
D17*
%TO.C,MX48*%
X201775000Y-169920000D03*
D18*
X198225000Y-169920000D03*
X211675000Y-167380000D03*
D17*
X208125000Y-167380000D03*
D19*
X209395000Y-164840000D03*
D13*
X204315000Y-164840000D03*
D19*
X199235000Y-164840000D03*
%TD*%
D17*
%TO.C,MX36*%
X211300000Y-150870000D03*
D18*
X207750000Y-150870000D03*
X221200000Y-148330000D03*
D17*
X217650000Y-148330000D03*
D19*
X218920000Y-145790000D03*
D13*
X213840000Y-145790000D03*
D19*
X208760000Y-145790000D03*
%TD*%
D17*
%TO.C,MX4*%
X120812500Y-112770000D03*
D18*
X117262500Y-112770000D03*
X130712500Y-110230000D03*
D17*
X127162500Y-110230000D03*
D19*
X128432500Y-107690000D03*
D13*
X123352500Y-107690000D03*
D19*
X118272500Y-107690000D03*
%TD*%
D17*
%TO.C,MX30*%
X97000000Y-150870000D03*
D18*
X93450000Y-150870000D03*
X106900000Y-148330000D03*
D17*
X103350000Y-148330000D03*
D19*
X104620000Y-145790000D03*
D13*
X99540000Y-145790000D03*
D19*
X94460000Y-145790000D03*
%TD*%
D20*
%TO.C,D61*%
X293216250Y-188960000D03*
D21*
X293216250Y-181340000D03*
%TD*%
D17*
%TO.C,MX61*%
X299406250Y-188970000D03*
D18*
X295856250Y-188970000D03*
X309306250Y-186430000D03*
D17*
X305756250Y-186430000D03*
D19*
X307026250Y-183890000D03*
D13*
X301946250Y-183890000D03*
D19*
X296866250Y-183890000D03*
%TD*%
D20*
%TO.C,D52*%
X271785000Y-169910000D03*
D21*
X271785000Y-162290000D03*
%TD*%
D20*
%TO.C,D5*%
X133672500Y-112760000D03*
D21*
X133672500Y-105140000D03*
%TD*%
D20*
%TO.C,D3*%
X95572500Y-112760000D03*
D21*
X95572500Y-105140000D03*
%TD*%
D20*
%TO.C,D18*%
X124147500Y-131810000D03*
D21*
X124147500Y-124190000D03*
%TD*%
M02*
