M48
; DRILL file {KiCad 7.0.8} date Sun Jan 28 12:46:11 2024
; FORMAT={-:-/ absolute / inch / decimal}
; #@! TF.CreationDate,2024-01-28T12:46:11+07:00
; #@! TF.GenerationSoftware,Kicad,Pcbnew,7.0.8
; #@! TF.FileFunction,Plated,1,2,PTH
FMAT,2
INCH
; #@! TA.AperFunction,Plated,PTH,ViaDrill
T1C0.0157
; #@! TA.AperFunction,Plated,PTH,ComponentDrill
T2C0.0315
; #@! TA.AperFunction,Plated,PTH,ComponentDrill
T3C0.0394
; #@! TA.AperFunction,Plated,PTH,ComponentDrill
T4C0.0402
; #@! TA.AperFunction,Plated,PTH,ComponentDrill
T5C0.0591
; #@! TA.AperFunction,Plated,PTH,ComponentDrill
T6C0.1181
; #@! TA.AperFunction,Plated,PTH,ComponentDrill
T7C0.1200
%
G90
G05
T1
X5.222Y-4.5429
X6.0953Y-4.6579
X6.9848Y-4.7778
X7.7712Y-5.3393
X8.5212Y-5.3456
X9.4587Y-5.9614
X10.0362Y-6.1689
X10.5837Y-6.8467
X11.2399Y-6.9384
X12.1892Y-4.651
X12.252Y-7.0323
X12.4539Y-4.8551
X12.7717Y-4.7693
X12.8846Y-4.7185
X13.0212Y-7.0898
X13.0497Y-6.835
X13.0921Y-4.822
X13.0965Y-5.1909
X13.1487Y-4.2755
X13.1492Y-4.7197
X13.1894Y-6.2413
X13.2362Y-4.824
X13.2571Y-5.3098
X13.2602Y-5.5571
X13.2697Y-4.9228
X13.2917Y-5.2421
X13.2937Y-5.1909
X13.474Y-4.6567
X13.8287Y-7.0339
X13.8315Y-7.089
X13.8327Y-6.9126
X13.9425Y-6.887
X13.9453Y-7.0717
X13.9461Y-7.0087
X13.9772Y-4.5197
X14.0913Y-5.3177
X14.1528Y-5.0693
X14.1906Y-5.2909
X14.2744Y-5.5614
T2
X2.2947Y-4.6232
X2.3564Y-7.1394
X2.3564Y-7.4394
X2.4502Y-4.8894
X2.4502Y-5.1894
X2.5439Y-5.6394
X2.5439Y-5.9394
X2.5947Y-4.6232
X2.7314Y-6.3894
X2.7314Y-6.6894
X3.0127Y-4.1394
X3.0127Y-4.4394
X3.2939Y-7.1394
X3.2939Y-7.4394
X3.3877Y-4.8894
X3.3877Y-5.1894
X3.5752Y-5.6394
X3.5752Y-5.9394
X3.7627Y-4.1394
X3.7627Y-4.4394
X3.9502Y-6.3894
X3.9502Y-6.6894
X4.1377Y-4.8894
X4.1377Y-5.1894
X4.2314Y-7.1394
X4.2314Y-7.4394
X4.3252Y-5.6394
X4.3252Y-5.9394
X4.5127Y-4.1394
X4.5127Y-4.4394
X4.7002Y-6.3894
X4.7002Y-6.6894
X4.8877Y-4.8894
X4.8877Y-5.1894
X5.0752Y-5.6394
X5.0752Y-5.9394
X5.2627Y-4.1394
X5.2627Y-4.4394
X5.4502Y-6.3894
X5.4502Y-6.6894
X5.6377Y-4.8894
X5.6377Y-5.1894
X5.8252Y-5.6394
X5.8252Y-5.9394
X6.0127Y-4.1394
X6.0127Y-4.4394
X6.2002Y-6.3894
X6.2002Y-6.6894
X6.3877Y-4.8894
X6.3877Y-5.1894
X6.5752Y-5.6394
X6.5752Y-5.9394
X6.7627Y-4.1394
X6.7627Y-4.4394
X6.9502Y-6.3894
X6.9502Y-6.6894
X7.0439Y-7.1394
X7.0439Y-7.4394
X7.1377Y-4.8894
X7.1377Y-5.1894
X7.3252Y-5.6394
X7.3252Y-5.9394
X7.5127Y-4.1394
X7.5127Y-4.4394
X7.7002Y-6.3894
X7.7002Y-6.6894
X7.8877Y-4.8894
X7.8877Y-5.1894
X8.0752Y-5.6394
X8.0752Y-5.9394
X8.2627Y-4.1394
X8.2627Y-4.4394
X8.4502Y-6.3894
X8.4502Y-6.6894
X8.6377Y-4.8894
X8.6377Y-5.1894
X8.8252Y-5.6394
X8.8252Y-5.9394
X9.0127Y-4.1394
X9.0127Y-4.4394
X9.2002Y-6.3894
X9.2002Y-6.6894
X9.3877Y-4.8894
X9.3877Y-5.1894
X9.5752Y-5.6394
X9.5752Y-5.9394
X9.7627Y-4.1394
X9.7627Y-4.4394
X9.7627Y-7.1394
X9.7627Y-7.4394
X9.9502Y-6.3894
X9.9502Y-6.6894
X10.1377Y-4.8894
X10.1377Y-5.1894
X10.3252Y-5.6394
X10.3252Y-5.9394
X10.5127Y-4.1394
X10.5127Y-4.4394
X10.6064Y-7.1394
X10.6064Y-7.4394
X10.7002Y-6.3894
X10.7002Y-6.6894
X10.8877Y-4.8894
X10.8877Y-5.1894
X11.0752Y-5.6394
X11.0752Y-5.9394
X11.2627Y-4.1394
X11.2627Y-4.4394
X11.5439Y-7.1394
X11.5439Y-7.4394
X11.6377Y-4.8894
X11.6377Y-5.1894
X11.9189Y-6.3894
X11.9189Y-6.6894
X12.2939Y-5.6394
X12.2939Y-5.9394
X12.3877Y-4.1394
X12.3877Y-4.4394
X12.3877Y-7.1394
X12.3877Y-7.4394
X12.5752Y-4.8894
X12.5752Y-5.1894
X13.1377Y-6.3894
X13.1377Y-6.6894
X13.1377Y-7.1394
X13.1377Y-7.4394
X13.8877Y-7.1394
X13.8877Y-7.4394
T3
X13.4976Y-6.1362
X13.7969Y-6.1362
X14.1329Y-6.1148
X14.1329Y-6.6856
X14.2313Y-6.6856
X14.3297Y-6.1148
X14.3297Y-6.6856
X14.5482Y-4.8776
X14.5482Y-4.9776
X14.5482Y-5.0776
X14.5482Y-5.1776
T4
X13.6437Y-3.9199
X13.6437Y-4.0199
X13.6437Y-4.1199
X13.6437Y-4.2199
X13.6437Y-4.3199
X13.6437Y-4.4199
X13.6437Y-4.5199
X13.6437Y-4.6199
X13.6437Y-4.7199
X13.6437Y-4.8199
X13.6437Y-4.9199
X13.6437Y-5.0199
X13.6437Y-5.1199
X13.6437Y-5.2199
X13.6437Y-5.3199
X13.6437Y-5.4199
X13.6437Y-5.5199
X13.6437Y-5.6199
X13.6437Y-5.7199
X13.6437Y-5.8199
X13.8937Y-5.8108
X13.9937Y-5.8108
X14.0937Y-5.8108
X14.3437Y-3.9199
X14.3437Y-4.0199
X14.3437Y-4.1199
X14.3437Y-4.2199
X14.3437Y-4.3199
X14.3437Y-4.4199
X14.3437Y-4.5199
X14.3437Y-4.6199
X14.3437Y-4.7199
X14.3437Y-4.8199
X14.3437Y-4.9199
X14.3437Y-5.0199
X14.3437Y-5.1199
X14.3437Y-5.2199
X14.3437Y-5.3199
X14.3437Y-5.4199
X14.3437Y-5.5199
X14.3437Y-5.6199
X14.3437Y-5.7199
X14.3437Y-5.8199
T6
X2.5064Y-4.4398
X2.6001Y-7.4398
X2.6939Y-5.1898
X2.7564Y-4.3398
X2.7876Y-5.9398
X2.8501Y-7.3398
X2.9439Y-5.0898
X2.9751Y-6.6898
X3.0376Y-5.8398
X3.2251Y-6.5898
X3.2564Y-4.4398
X3.5064Y-4.3398
X3.5376Y-7.4398
X3.6314Y-5.1898
X3.7876Y-7.3398
X3.8189Y-5.9398
X3.8814Y-5.0898
X4.0064Y-4.4398
X4.0689Y-5.8398
X4.1939Y-6.6898
X4.2564Y-4.3398
X4.3814Y-5.1898
X4.4439Y-6.5898
X4.4751Y-7.4398
X4.5689Y-5.9398
X4.6314Y-5.0898
X4.7251Y-7.3398
X4.7564Y-4.4398
X4.8189Y-5.8398
X4.9439Y-6.6898
X5.0064Y-4.3398
X5.1314Y-5.1898
X5.1939Y-6.5898
X5.3189Y-5.9398
X5.3814Y-5.0898
X5.5064Y-4.4398
X5.5689Y-5.8398
X5.6939Y-6.6898
X5.7564Y-4.3398
X5.8814Y-5.1898
X5.9439Y-6.5898
X6.0689Y-5.9398
X6.1314Y-5.0898
X6.2564Y-4.4398
X6.3189Y-5.8398
X6.4439Y-6.6898
X6.5064Y-4.3398
X6.6314Y-5.1898
X6.6939Y-6.5898
X6.8189Y-5.9398
X6.8814Y-5.0898
X7.0064Y-4.4398
X7.0689Y-5.8398
X7.1939Y-6.6898
X7.2564Y-4.3398
X7.2876Y-7.4398
X7.3814Y-5.1898
X7.4439Y-6.5898
X7.5376Y-7.3398
X7.5689Y-5.9398
X7.6314Y-5.0898
X7.7564Y-4.4398
X7.8189Y-5.8398
X7.9439Y-6.6898
X8.0064Y-4.3398
X8.1314Y-5.1898
X8.1939Y-6.5898
X8.3189Y-5.9398
X8.3814Y-5.0898
X8.5064Y-4.4398
X8.5689Y-5.8398
X8.6939Y-6.6898
X8.7564Y-4.3398
X8.8814Y-5.1898
X8.9439Y-6.5898
X9.0689Y-5.9398
X9.1314Y-5.0898
X9.2564Y-4.4398
X9.3189Y-5.8398
X9.4439Y-6.6898
X9.5064Y-4.3398
X9.6314Y-5.1898
X9.6939Y-6.5898
X9.8189Y-5.9398
X9.8814Y-5.0898
X10.0064Y-4.4398
X10.0064Y-7.4398
X10.0689Y-5.8398
X10.1939Y-6.6898
X10.2564Y-4.3398
X10.2564Y-7.3398
X10.3814Y-5.1898
X10.4439Y-6.5898
X10.5689Y-5.9398
X10.6314Y-5.0898
X10.7564Y-4.4398
X10.8189Y-5.8398
X10.8501Y-7.4398
X10.9439Y-6.6898
X11.0064Y-4.3398
X11.1001Y-7.3398
X11.1314Y-5.1898
X11.1939Y-6.5898
X11.3189Y-5.9398
X11.3814Y-5.0898
X11.5064Y-4.4398
X11.5689Y-5.8398
X11.7564Y-4.3398
X11.7876Y-7.4398
X11.8814Y-5.1898
X12.0376Y-7.3398
X12.1314Y-5.0898
X12.1626Y-6.6898
X12.4126Y-6.5898
X12.5376Y-5.9398
X12.6314Y-4.4398
X12.6314Y-7.4398
X12.7876Y-5.8398
X12.8189Y-5.1898
X12.8814Y-4.3398
X12.8814Y-7.3398
X13.0689Y-5.0898
X13.3814Y-6.6898
X13.3814Y-7.4398
X13.6314Y-6.5898
X13.6314Y-7.3398
X14.1314Y-7.4398
X14.3814Y-7.3398
T7
X2.6063Y-6.764
X3.5438Y-6.764
X5.4167Y-7.5158
X9.3542Y-7.5158
X11.7938Y-6.764
X12.1688Y-6.015
X12.2622Y-3.9646
X12.7313Y-6.764
X13.1063Y-6.015
X13.1997Y-3.9646
T5
G00X14.0108Y-6.4159
M15
G01X14.0108Y-6.3648
M16
G05
G00X14.4518Y-6.4159
M15
G01X14.4518Y-6.3648
M16
G05
T0
M30
